<svg xmlns="http://www.w3.org/2000/svg" xmlns:xlink="http://www.w3.org/1999/xlink" width="894.213" height="521.096" viewBox="0 0 670.66 390.822"><path d="M-9.979 514.166h720v-540h-720z" fill="#fff"/><path stroke-width="2.25" stroke-linejoin="round" fill="none" stroke="#000" d="M39.254 145.291l-1.233 159.75"/><path d="M42.594 149.817l-3.323-6.776-3.427 6.724z" fill-rule="evenodd"/><path d="M-9.979 249.916h97.25v-45.75h-97.25z" fill="#fff"/><symbol id="a"><path d="M0 .717h.098V0H0v.717z"/></symbol><symbol id="b"><path d="M0 .523h.083V.449a.21.21 0 00.17.086C.33.535.38.509.406.457A.276.276 0 00.426.335V0h-.09v.33a.178.178 0 01-.013.077C.307.439.279.456.238.456A.173.173 0 01.187.449.132.132 0 01.123.406.132.132 0 01.094.353a.37.37 0 01-.006-.08V0H0v.523m.207.013z"/></symbol><symbol id="c"><path d="M.237.553A.227.227 0 00.381.51C.418.482.44.432.448.362H.362a.156.156 0 01-.035.08C.308.464.278.475.237.475.181.475.141.447.117.393A.326.326 0 01.094.26C.094.21.104.165.127.13.149.093.184.075.231.075c.037 0 .066.011.087.033A.184.184 0 01.362.2h.086C.438.13.414.08.375.048A.23.23 0 00.225 0 .2.2 0 00.06.075.288.288 0 000 .262c0 .092.022.163.067.215a.216.216 0 00.17.076M.224.551z"/></symbol><symbol id="d"><path d="M0 .523h.083v-.09a.198.198 0 00.05.064.13.13 0 00.101.037c.004 0 .011 0 .02-.002V.44a.13.13 0 01-.028.003.125.125 0 01-.102-.043A.148.148 0 01.088.3V0H0v.523z"/></symbol><symbol id="e"><path d="M.247.553A.237.237 0 00.435.46.233.233 0 00.47.367.604.604 0 00.478.252H.094A.225.225 0 01.132.124C.155.092.192.076.24.076a.14.14 0 01.143.107H.47A.182.182 0 00.447.118a.205.205 0 00-.142-.11A.301.301 0 00.233 0a.22.22 0 00-.165.07.277.277 0 00-.068.2.3.3 0 00.068.205.226.226 0 00.18.078m.14-.231a.228.228 0 01-.026.091C.338.455.298.477.242.477A.133.133 0 01.14.433.164.164 0 01.097.322h.29M.24.554z"/></symbol><symbol id="f"><path d="M.092.157C.092.13.102.11.12.097A.103.103 0 01.186.075a.2.2 0 01.09.021.12.12 0 01.073.117v.07A.15.15 0 00.307.268a.354.354 0 00-.05-.01L.204.25A.204.204 0 01.132.23C.105.215.092.19.092.157m.213.177c.02.003.033.012.04.026a.077.077 0 01.006.034c0 .03-.01.051-.032.064A.169.169 0 01.228.48C.182.479.149.467.13.442A.122.122 0 01.109.38H.027c.001.064.022.11.062.134.04.026.087.038.14.038A.285.285 0 00.38.518C.417.495.437.458.437.408v-.3A.04.04 0 01.442.084C.446.08.454.077.466.077A.2.2 0 01.495.08V.015A.245.245 0 00.463.008.228.228 0 00.434.006C.404.006.382.017.368.04a.124.124 0 00-.015.048A.239.239 0 00.165 0a.166.166 0 00-.12.044.148.148 0 00-.045.11c0 .05.015.087.045.114.03.026.07.043.12.049l.14.017m-.073.22z"/></symbol><symbol id="g"><path d="M.084.184A.128.128 0 01.106.117C.13.088.167.074.222.074c.032 0 .06.007.086.021a.071.071 0 01.037.066c0 .023-.01.04-.03.051A.354.354 0 01.24.237L.17.255A.34.34 0 00.07.292a.11.11 0 00-.056.099c0 .05.017.09.053.12s.084.046.144.046c.079 0 .135-.023.17-.07A.15.15 0 00.414.393H.331a.102.102 0 01-.02.054C.29.47.254.48.204.48A.127.127 0 01.13.462a.06.06 0 01-.025-.05c0-.023.011-.04.034-.055A.202.202 0 01.195.336L.253.322A.45.45 0 00.38.277C.415.255.432.22.432.171a.161.161 0 00-.054-.12C.343.017.29 0 .218 0 .138 0 .083.018.051.053A.202.202 0 000 .184h.084m.13.372z"/></symbol><symbol id="h"><path d="M0 .52h.09V0H0v.52m0 .197h.09v-.1H0v.1z"/></symbol><symbol id="i"><path d="M.22.753a.19.19 0 00.107-.03.241.241 0 00.05-.05V.74h.081V.264A.35.35 0 00.43.106C.393.036.324 0 .223 0A.252.252 0 00.08.038C.042.063.02.103.016.156h.09A.1.1 0 01.13.102c.02-.02.051-.03.094-.03.067 0 .111.025.132.072a.401.401 0 01.017.15.172.172 0 00-.063-.06.211.211 0 00-.099-.02.21.21 0 00-.149.06C.021.316 0 .383 0 .475 0 .563.021.632.064.68a.2.2 0 00.155.073M.377.485c0 .065-.013.113-.04.144a.128.128 0 01-.102.047.126.126 0 01-.127-.087A.34.34 0 01.09.467C.09.408.102.363.126.333A.117.117 0 01.223.287c.063 0 .107.028.133.085.014.032.021.07.021.113M.23.757z"/></symbol><use xlink:href="#a" transform="matrix(16 0 0 -16 3.506 223.766)"/><use xlink:href="#b" transform="matrix(16 0 0 -16 7.415 223.766)"/><use xlink:href="#c" transform="matrix(16 0 0 -16 15.74 224.008)"/><use xlink:href="#d" transform="matrix(16 0 0 -16 24.35 223.766)"/><use xlink:href="#e" transform="matrix(16 0 0 -16 29.17 224.063)"/><use xlink:href="#f" transform="matrix(16 0 0 -16 38.144 224.047)"/><use xlink:href="#g" transform="matrix(16 0 0 -16 46.915 224.086)"/><use xlink:href="#h" transform="matrix(16 0 0 -16 55.431 223.766)"/><use xlink:href="#b" transform="matrix(16 0 0 -16 58.983 223.766)"/><use xlink:href="#i" transform="matrix(16 0 0 -16 67.324 227.305)"/><use xlink:href="#j" transform="matrix(16 0 0 -16 75.744 223.766)"/><symbol id="k"><path d="M.093.274a.26.26 0 01.035-.14C.152.095.19.076.243.076a.12.12 0 01.1.052c.026.035.04.085.04.15 0 .067-.014.116-.041.147a.126.126 0 01-.1.048.133.133 0 01-.108-.05C.106.388.093.34.093.273M.225.55C.265.55.3.542.325.525A.236.236 0 00.38.475v.263h.084v-.72H.384v.073a.19.19 0 00-.072-.07A.208.208 0 00.215 0a.195.195 0 00-.151.073A.288.288 0 000 .27c0 .076.02.142.058.198.04.056.095.084.167.084z"/></symbol><use xlink:href="#f" transform="matrix(16 0 0 -16 11.024 243.04)"/><use xlink:href="#k" transform="matrix(16 0 0 -16 19.717 243.055)"/><use xlink:href="#k" transform="matrix(16 0 0 -16 28.613 243.055)"/><use xlink:href="#d" transform="matrix(16 0 0 -16 38.142 242.758)"/><use xlink:href="#e" transform="matrix(16 0 0 -16 42.962 243.055)"/><use xlink:href="#g" transform="matrix(16 0 0 -16 51.811 243.078)"/><use xlink:href="#g" transform="matrix(16 0 0 -16 59.811 243.078)"/><use xlink:href="#j" transform="matrix(16 0 0 -16 67.296 242.758)"/><path d="M104.021 157.541h135v170.625h-135z" fill="#bfbfbf" fill-rule="evenodd"/><path stroke-width="3" stroke-miterlimit="8" fill="none" stroke="#007dd6" d="M104.021 157.541h135v170.625h-135z"/><symbol id="l"><path d="M.216.108A.105.105 0 00.108 0 .105.105 0 00.03.03.106.106 0 000 .109C0 .14.01.165.03.186c.02.02.047.03.078.03A.104.104 0 00.216.108z"/></symbol><use xlink:href="#l" transform="matrix(24 0 0 -24 168.967 203.254)"/><use xlink:href="#j" transform="matrix(24 0 0 -24 175.621 209.254)"/><use xlink:href="#l" transform="matrix(24 0 0 -24 168.967 231.262)"/><use xlink:href="#j" transform="matrix(24 0 0 -24 175.621 237.262)"/><use xlink:href="#l" transform="matrix(24 0 0 -24 168.967 260.254)"/><use xlink:href="#j" transform="matrix(24 0 0 -24 165.229 295.246)"/><symbol id="m"><path d="M.092.252a.196.196 0 01.03-.099C.152.106.21.082.291.082c.036 0 .07.005.1.016.057.02.086.056.086.108 0 .04-.012.067-.037.084a.37.37 0 01-.116.042L.228.354a.44.44 0 00-.135.047.15.15 0 00-.068.135c0 .064.022.117.067.158a.268.268 0 00.19.062.327.327 0 00.19-.054C.526.666.553.608.553.528H.46a.18.18 0 01-.03.088C.4.654.35.672.277.672.221.672.18.66.155.636A.113.113 0 01.117.552c0-.035.015-.06.044-.077a.645.645 0 01.13-.039L.393.413A.308.308 0 00.504.368.17.17 0 00.573.222c0-.08-.03-.137-.087-.17A.387.387 0 00.285 0a.301.301 0 00-.21.068.23.23 0 00-.074.184h.091M.29.758z"/></symbol><symbol id="n"><path d="M.07.677h.09V.531h.083V.46H.16V.12c0-.02.006-.031.018-.037A.079.079 0 01.212.076h.014l.017.002v-.07A.293.293 0 00.176 0C.136 0 .107.01.093.031A.141.141 0 00.07.113V.46H0v.072h.07v.146z"/></symbol><symbol id="o"><path d="M0 .717h.084V.301L.31.523h.112l-.2-.196L.434 0H.32L.158.264.084.196V0H0v.717z"/></symbol><use xlink:href="#m" transform="matrix(16 0 0 -16 129.627 351.477)"/><use xlink:href="#n" transform="matrix(16 0 0 -16 139.721 351.274)"/><use xlink:href="#f" transform="matrix(16 0 0 -16 144.63 351.422)"/><use xlink:href="#c" transform="matrix(16 0 0 -16 153.346 351.383)"/><use xlink:href="#o" transform="matrix(16 0 0 -16 161.885 351.141)"/><use xlink:href="#p" transform="matrix(16 0 0 -16 168.885 351.141)"/><symbol id="q"><path d="M.191 0v.121l.09.121h.047L.25.122h.063V0H.19M0 0v.121l.09.121h.047L.059.122H.12V0H0z"/></symbol><use xlink:href="#q" transform="matrix(16 0 0 -16 174.708 342.204)"/><symbol id="r"><path d="M.243.076c.058 0 .098.022.12.066a.33.33 0 01.033.147.262.262 0 01-.024.12C.347.455.305.48.244.48.19.48.151.46.127.42A.285.285 0 01.09.27C.09.215.103.168.127.13.151.094.19.076.243.076m.004.481A.237.237 0 00.417.49C.464.445.487.379.487.292a.34.34 0 00-.061-.21C.385.029.32 0 .235 0a.216.216 0 00-.172.073A.29.29 0 000 .269c0 .088.022.158.067.21a.225.225 0 00.18.078M.244.555z"/></symbol><symbol id="s"><path d="M.228.268c.04 0 .075.017.102.05.027.035.04.087.04.155a.288.288 0 01-.017.108C.33.638.288.667.228.667.167.667.125.637.103.576a.362.362 0 010-.227C.125.295.167.268.228.268M0 .729h.085v-.07a.213.213 0 00.058.056c.03.02.065.03.105.03.059 0 .11-.024.15-.07C.44.632.46.566.46.482.46.368.43.286.371.237A.202.202 0 00.24.191.179.179 0 00.14.217a.228.228 0 00-.052.05V0H0v.729z"/></symbol><use xlink:href="#n" transform="matrix(16 0 0 -16 181.513 351.274)"/><use xlink:href="#r" transform="matrix(16 0 0 -16 186.242 351.446)"/><use xlink:href="#s" transform="matrix(16 0 0 -16 195.6 354.477)"/><symbol id="t"><path d="M.238 0H.191L.27.125H.207v.121h.121V.125L.238 0M.047 0H0l.078.125H.016v.121h.12V.125L.047 0z"/></symbol><use xlink:href="#t" transform="matrix(16 0 0 -16 204.886 342.266)"/><use xlink:href="#u" transform="matrix(16 0 0 -16 211.573 351.141)"/><use xlink:href="#m" transform="matrix(16 0 0 -16 116.3 144.981)"/><use xlink:href="#n" transform="matrix(16 0 0 -16 126.393 144.778)"/><use xlink:href="#f" transform="matrix(16 0 0 -16 131.302 144.926)"/><use xlink:href="#c" transform="matrix(16 0 0 -16 140.018 144.887)"/><use xlink:href="#o" transform="matrix(16 0 0 -16 148.557 144.645)"/><use xlink:href="#p" transform="matrix(16 0 0 -16 155.557 144.645)"/><use xlink:href="#q" transform="matrix(16 0 0 -16 161.38 135.708)"/><symbol id="v"><path d="M0 .736h.085v-.26a.192.192 0 00.156.077A.203.203 0 00.4.486C.44.44.46.376.46.288A.34.34 0 00.4.082.195.195 0 00.234 0a.17.17 0 00-.1.029.243.243 0 00-.053.054V.017H0v.72m.229-.66c.047 0 .083.02.106.057a.277.277 0 01.036.15c0 .055-.012.1-.036.136a.116.116 0 01-.104.055A.146.146 0 01.125.43C.095.4.081.352.081.284c0-.05.006-.09.018-.12A.128.128 0 01.23.078z"/></symbol><symbol id="w"><path d="M0 .523h.087V.449c.02.025.04.044.057.056a.17.17 0 00.098.03c.042 0 .075-.01.1-.031a.16.16 0 00.04-.052C.402.48.424.501.45.514a.19.19 0 00.089.02C.61.535.658.51.683.459a.249.249 0 00.02-.11V0h-.09v.363c0 .035-.01.059-.027.072a.102.102 0 01-.064.02A.127.127 0 01.433.42C.408.397.396.358.396.304V0h-.09v.341A.177.177 0 01.295.42C.28.443.256.456.219.456A.13.13 0 01.13.417C.1.391.087.345.087.277V0H0v.523z"/></symbol><use xlink:href="#v" transform="matrix(16 0 0 -16 168.927 144.91)"/><use xlink:href="#r" transform="matrix(16 0 0 -16 177.362 144.95)"/><use xlink:href="#n" transform="matrix(16 0 0 -16 185.977 144.778)"/><use xlink:href="#n" transform="matrix(16 0 0 -16 190.425 144.778)"/><use xlink:href="#r" transform="matrix(16 0 0 -16 195.154 144.95)"/><use xlink:href="#w" transform="matrix(16 0 0 -16 204.62 144.645)"/><use xlink:href="#t" transform="matrix(16 0 0 -16 218.23 135.77)"/><use xlink:href="#u" transform="matrix(16 0 0 -16 224.917 144.645)"/><symbol id="x"><path d="M.376.372V.27A.322.322 0 00.313.06.154.154 0 00.19 0a.163.163 0 00-.123.055A.362.362 0 000 .27v.102C0 .46.021.53.063.582A.161.161 0 00.341.536.4.4 0 00.366.47a.401.401 0 00.01-.098M.336.366a.34.34 0 01-.054.188A.117.117 0 01.188.6C.142.6.106.578.08.53A.332.332 0 01.041.366v-.09A.353.353 0 01.095.087.115.115 0 01.189.041c.046 0 .081.023.107.07.026.048.04.102.04.165v.09z"/></symbol><symbol id="y"><path d="M.279.221l.188-.18c.012 0 .02 0 .023-.002A.015.015 0 00.5.032.02.02 0 00.502.021.02.02 0 00.496.006C.492.002.485 0 .475 0H.343C.333 0 .326.002.32.006A.02.02 0 00.315.02c0 .006.002.01.006.014.005.004.012.006.022.006H.41L.25.194.092.04h.069C.17.041.177.039.18.035A.018.018 0 00.189.021.02.02 0 00.182.006C.177.002.17 0 .16 0H.027c-.01 0-.016.002-.02.006A.02.02 0 000 .02c0 .004.001.008.003.011A.018.018 0 00.012.04a.083.083 0 00.023.002l.188.18-.167.16c-.012 0-.02.001-.022.002a.021.021 0 00-.009.008.021.021 0 00-.003.011c0 .006.002.011.006.015C.033.421.04.423.05.423h.112c.01 0 .017-.002.02-.006A.02.02 0 00.19.402.02.02 0 00.183.387C.179.383.172.381.162.381h-.05L.252.248l.14.133H.34C.331.381.324.383.32.387a.02.02 0 00-.007.015c0 .006.003.011.007.015S.33.423.34.423h.112C.463.423.47.42.474.417A.02.02 0 00.477.391.018.018 0 00.468.383.072.072 0 00.446.381L.28.221z"/></symbol><symbol id="z"><path d="M.209.621v-.58h.14C.36.041.367.039.372.035A.018.018 0 00.377.021.02.02 0 00.371.006C.366.002.359 0 .35 0H.027c-.01 0-.016.002-.02.006A.02.02 0 000 .02c0 .006.002.01.006.014.005.004.012.006.021.006h.141v.523L.034.522A.057.057 0 00.02.52a.02.02 0 00-.014.005A.021.021 0 000 .54c0 .005.002.01.005.014a.047.047 0 00.016.008l.188.06z"/></symbol><symbol id="A"><path d="M.271.333A.182.182 0 00.35.267.157.157 0 00.375.179.17.17 0 00.32.053.183.183 0 00.187 0a.183.183 0 00-.132.053A.17.17 0 000 .18C0 .21.009.24.026.266c.017.027.043.05.078.067a.21.21 0 00-.065.053.147.147 0 00-.029.088c0 .045.018.084.052.117.035.034.077.051.126.051s.09-.017.125-.05A.159.159 0 00.365.473C.365.442.355.413.336.387A.2.2 0 00.271.333m.052.14a.12.12 0 01-.04.09A.132.132 0 01.187.6.134.134 0 01.091.563a.121.121 0 01-.04-.09c0-.032.014-.06.04-.084A.138.138 0 01.186.353c.039 0 .071.012.097.036a.11.11 0 01.039.083M.334.178a.126.126 0 01-.042.094.146.146 0 01-.104.04.146.146 0 01-.105-.04A.126.126 0 01.041.18.13.13 0 01.083.082.145.145 0 01.187.041c.042 0 .077.014.105.041a.13.13 0 01.042.096z"/></symbol><use xlink:href="#x" transform="matrix(14 0 0 -14 54.783 328.846)"/><use xlink:href="#y" transform="matrix(14 0 0 -14 62.308 328.641)"/><use xlink:href="#z" transform="matrix(14 0 0 -14 71.576 328.641)"/><use xlink:href="#x" transform="matrix(14 0 0 -14 79.983 328.846)"/><use xlink:href="#A" transform="matrix(14 0 0 -14 88.397 328.846)"/><use xlink:href="#u" transform="matrix(14 0 0 -14 95.218 328.641)"/><path d="M299.021 157.541h135v174h-135z" fill="#bfbfbf" fill-rule="evenodd"/><path stroke-width="3" stroke-miterlimit="8" fill="none" stroke="#007dd6" d="M299.021 157.541h135v174h-135z"/><use xlink:href="#l" transform="matrix(24 0 0 -24 363.967 204.941)"/><use xlink:href="#j" transform="matrix(24 0 0 -24 370.621 210.941)"/><use xlink:href="#l" transform="matrix(24 0 0 -24 363.967 232.95)"/><use xlink:href="#j" transform="matrix(24 0 0 -24 370.621 238.95)"/><use xlink:href="#l" transform="matrix(24 0 0 -24 363.967 261.941)"/><use xlink:href="#j" transform="matrix(24 0 0 -24 360.229 296.933)"/><use xlink:href="#m" transform="matrix(16 0 0 -16 327.627 372.977)"/><use xlink:href="#n" transform="matrix(16 0 0 -16 337.721 372.774)"/><use xlink:href="#f" transform="matrix(16 0 0 -16 342.63 372.922)"/><use xlink:href="#c" transform="matrix(16 0 0 -16 351.346 372.883)"/><use xlink:href="#o" transform="matrix(16 0 0 -16 359.885 372.641)"/><use xlink:href="#p" transform="matrix(16 0 0 -16 366.885 372.641)"/><use xlink:href="#q" transform="matrix(16 0 0 -16 372.708 363.704)"/><use xlink:href="#n" transform="matrix(16 0 0 -16 379.513 372.774)"/><use xlink:href="#r" transform="matrix(16 0 0 -16 384.242 372.946)"/><use xlink:href="#s" transform="matrix(16 0 0 -16 393.6 375.977)"/><use xlink:href="#t" transform="matrix(16 0 0 -16 402.886 363.766)"/><use xlink:href="#u" transform="matrix(16 0 0 -16 409.573 372.641)"/><use xlink:href="#m" transform="matrix(16 0 0 -16 311.291 144.977)"/><use xlink:href="#n" transform="matrix(16 0 0 -16 321.385 144.774)"/><use xlink:href="#f" transform="matrix(16 0 0 -16 326.294 144.922)"/><use xlink:href="#c" transform="matrix(16 0 0 -16 335.01 144.883)"/><use xlink:href="#o" transform="matrix(16 0 0 -16 343.55 144.641)"/><use xlink:href="#p" transform="matrix(16 0 0 -16 350.55 144.641)"/><use xlink:href="#q" transform="matrix(16 0 0 -16 356.372 135.704)"/><use xlink:href="#v" transform="matrix(16 0 0 -16 363.92 144.907)"/><use xlink:href="#r" transform="matrix(16 0 0 -16 372.354 144.946)"/><use xlink:href="#n" transform="matrix(16 0 0 -16 380.97 144.774)"/><use xlink:href="#n" transform="matrix(16 0 0 -16 385.417 144.774)"/><use xlink:href="#r" transform="matrix(16 0 0 -16 390.146 144.946)"/><use xlink:href="#w" transform="matrix(16 0 0 -16 399.613 144.641)"/><use xlink:href="#t" transform="matrix(16 0 0 -16 413.222 135.766)"/><use xlink:href="#u" transform="matrix(16 0 0 -16 419.91 144.641)"/><use xlink:href="#x" transform="matrix(14 0 0 -14 254.78 351.971)"/><use xlink:href="#y" transform="matrix(14 0 0 -14 262.305 351.766)"/><use xlink:href="#z" transform="matrix(14 0 0 -14 271.573 351.766)"/><use xlink:href="#x" transform="matrix(14 0 0 -14 279.98 351.971)"/><use xlink:href="#x" transform="matrix(14 0 0 -14 288.38 351.971)"/><use xlink:href="#u" transform="matrix(14 0 0 -14 295.214 351.766)"/><path d="M494.021 157.541h135v174h-135z" fill="#bfbfbf" fill-rule="evenodd"/><path stroke-width="3" stroke-miterlimit="8" fill="none" stroke="#007dd6" d="M494.02 157.541h135v174h-135z"/><use xlink:href="#l" transform="matrix(24 0 0 -24 558.967 204.941)"/><use xlink:href="#j" transform="matrix(24 0 0 -24 565.62 210.941)"/><use xlink:href="#l" transform="matrix(24 0 0 -24 558.967 232.95)"/><use xlink:href="#j" transform="matrix(24 0 0 -24 565.62 238.95)"/><use xlink:href="#l" transform="matrix(24 0 0 -24 558.967 261.941)"/><use xlink:href="#j" transform="matrix(24 0 0 -24 555.229 296.933)"/><use xlink:href="#m" transform="matrix(16 0 0 -16 519.627 384.102)"/><use xlink:href="#n" transform="matrix(16 0 0 -16 529.721 383.899)"/><use xlink:href="#f" transform="matrix(16 0 0 -16 534.63 384.047)"/><use xlink:href="#c" transform="matrix(16 0 0 -16 543.346 384.008)"/><use xlink:href="#o" transform="matrix(16 0 0 -16 551.885 383.766)"/><use xlink:href="#p" transform="matrix(16 0 0 -16 558.885 383.766)"/><use xlink:href="#q" transform="matrix(16 0 0 -16 564.708 374.829)"/><use xlink:href="#n" transform="matrix(16 0 0 -16 571.513 383.899)"/><use xlink:href="#r" transform="matrix(16 0 0 -16 576.242 384.07)"/><use xlink:href="#s" transform="matrix(16 0 0 -16 585.6 387.102)"/><use xlink:href="#t" transform="matrix(16 0 0 -16 594.886 374.891)"/><use xlink:href="#u" transform="matrix(16 0 0 -16 601.573 383.766)"/><use xlink:href="#m" transform="matrix(16 0 0 -16 506.3 144.982)"/><use xlink:href="#n" transform="matrix(16 0 0 -16 516.393 144.779)"/><use xlink:href="#f" transform="matrix(16 0 0 -16 521.302 144.927)"/><use xlink:href="#c" transform="matrix(16 0 0 -16 530.018 144.888)"/><use xlink:href="#o" transform="matrix(16 0 0 -16 538.557 144.646)"/><use xlink:href="#p" transform="matrix(16 0 0 -16 545.557 144.646)"/><use xlink:href="#q" transform="matrix(16 0 0 -16 551.38 135.709)"/><use xlink:href="#v" transform="matrix(16 0 0 -16 558.927 144.912)"/><use xlink:href="#r" transform="matrix(16 0 0 -16 567.362 144.95)"/><use xlink:href="#n" transform="matrix(16 0 0 -16 575.977 144.779)"/><use xlink:href="#n" transform="matrix(16 0 0 -16 580.425 144.779)"/><use xlink:href="#r" transform="matrix(16 0 0 -16 585.154 144.95)"/><use xlink:href="#w" transform="matrix(16 0 0 -16 594.62 144.646)"/><use xlink:href="#t" transform="matrix(16 0 0 -16 608.23 135.771)"/><use xlink:href="#u" transform="matrix(16 0 0 -16 614.917 144.646)"/><use xlink:href="#x" transform="matrix(14 0 0 -14 446.78 328.846)"/><use xlink:href="#y" transform="matrix(14 0 0 -14 454.305 328.641)"/><use xlink:href="#z" transform="matrix(14 0 0 -14 463.573 328.641)"/><use xlink:href="#x" transform="matrix(14 0 0 -14 471.98 328.846)"/><use xlink:href="#A" transform="matrix(14 0 0 -14 480.393 328.846)"/><use xlink:href="#u" transform="matrix(14 0 0 -14 487.214 328.641)"/><path d="M299.021 329.041h135v24h-135z" fill="#fff" fill-rule="evenodd"/><path stroke-width="3" stroke-miterlimit="8" fill="none" stroke="#007dd6" d="M299.021 329.041h135v24h-135z"/><symbol id="B"><path d="M.04.041h.315v.016c0 .01.002.017.006.021a.02.02 0 00.015.006.02.02 0 00.015-.006C.395.074.396.067.396.058V0H0v.06c.083.075.164.152.243.23C.28.324.305.351.32.368a.175.175 0 01.028.044.104.104 0 01.007.04.125.125 0 01-.042.092.143.143 0 01-.103.04.156.156 0 01-.095-.03A.138.138 0 01.061.48C.059.471.056.466.053.464A.02.02 0 00.04.459a.02.02 0 00-.015.005.02.02 0 00-.005.014.18.18 0 00.096.126C.146.62.177.627.21.627A.183.183 0 00.341.574a.164.164 0 00.055-.12A.143.143 0 00.386.4.212.212 0 00.356.35 5.222 5.222 0 00.04.044V.04z"/></symbol><symbol id="C"><path d="M.29.348a.198.198 0 00.085-.07c.02-.029.03-.06.03-.091 0-.05-.02-.093-.06-.13A.21.21 0 00.195 0a.296.296 0 00-.109.022.229.229 0 00-.079.046A.024.024 0 000 .085c0 .005.002.01.005.014A.019.019 0 00.02.104.03.03 0 00.037.097a.264.264 0 01.16-.056c.047 0 .087.015.119.044.032.03.048.064.048.1A.126.126 0 01.34.257a.156.156 0 01-.068.055.213.213 0 01-.09.02c-.01 0-.016.002-.02.006a.02.02 0 00-.007.015c0 .006.002.01.006.015.004.004.01.006.019.006L.215.373c.037 0 .067.011.09.034a.104.104 0 010 .159A.138.138 0 01.205.6.204.204 0 01.128.586.146.146 0 01.07.546.052.052 0 00.059.534a.02.02 0 00-.01-.002.02.02 0 00-.014.006A.019.019 0 00.03.55c0 .013.014.03.043.05.04.027.084.041.134.041A.178.178 0 00.333.595a.146.146 0 00.05-.11A.14.14 0 00.36.406.166.166 0 00.29.348z"/></symbol><use xlink:href="#x" transform="matrix(16 0 0 -16 344.01 347.675)"/><use xlink:href="#y" transform="matrix(16 0 0 -16 352.61 347.441)"/><use xlink:href="#z" transform="matrix(16 0 0 -16 363.202 347.441)"/><use xlink:href="#B" transform="matrix(16 0 0 -16 372.357 347.441)"/><use xlink:href="#C" transform="matrix(16 0 0 -16 382.144 347.675)"/><use xlink:href="#u" transform="matrix(16 0 0 -16 390.22 347.441)"/><path d="M170.021 29.291h66v24h-66z" fill="#fff" fill-rule="evenodd"/><path stroke-miterlimit="8" fill="none" stroke="#000" d="M170.021 29.291h66v24h-66z"/><use xlink:href="#x" transform="matrix(16 0 0 -16 182.01 47.925)"/><use xlink:href="#y" transform="matrix(16 0 0 -16 190.61 47.691)"/><use xlink:href="#z" transform="matrix(16 0 0 -16 201.202 47.691)"/><use xlink:href="#B" transform="matrix(16 0 0 -16 210.357 47.691)"/><use xlink:href="#C" transform="matrix(16 0 0 -16 220.144 47.925)"/><use xlink:href="#u" transform="matrix(16 0 0 -16 228.221 47.691)"/><path d="M170.021 53.291h66v24h-66z" fill="#fff" fill-rule="evenodd"/><path stroke-miterlimit="8" fill="none" stroke="#000" d="M170.021 53.291h66v24h-66z"/><use xlink:href="#x" transform="matrix(16 0 0 -16 221.01 71.925)"/><use xlink:href="#u" transform="matrix(16 0 0 -16 228.821 71.691)"/><path d="M170.021 77.291h66v24h-66z" fill="#fff" fill-rule="evenodd"/><path stroke-miterlimit="8" fill="none" stroke="#000" d="M170.021 77.291h66v24h-66z"/><use xlink:href="#x" transform="matrix(16 0 0 -16 182.01 95.925)"/><use xlink:href="#y" transform="matrix(16 0 0 -16 190.61 95.691)"/><use xlink:href="#z" transform="matrix(16 0 0 -16 201.202 95.691)"/><use xlink:href="#x" transform="matrix(16 0 0 -16 210.81 95.925)"/><use xlink:href="#A" transform="matrix(16 0 0 -16 220.426 95.925)"/><use xlink:href="#u" transform="matrix(16 0 0 -16 228.221 95.691)"/><path d="M110.021 29.291h60v24h-60z" fill="#fff" fill-rule="evenodd"/><path stroke-miterlimit="8" fill="none" stroke="#000" d="M110.021 29.291h60v24h-60z"/><symbol id="D"><path d="M.271.508a.122.122 0 00-.037-.09.12.12 0 00-.088-.037.12.12 0 00-.088.037.123.123 0 00-.037.09c0 .035.012.065.037.09a.12.12 0 00.088.036.12.12 0 00.088-.037.122.122 0 00.037-.09m-.03 0c0 .028-.009.05-.028.07a.091.091 0 01-.067.028.093.093 0 01-.068-.028.095.095 0 01-.028-.07C.05.482.06.458.078.44A.093.093 0 01.146.411c.026 0 .049.01.067.028a.094.094 0 01.029.069M.404.366L.024.242A.041.041 0 00.014.24a.014.014 0 00-.01.005.015.015 0 00-.004.01l.003.01.012.006.38.123a.042.042 0 00.01.002.012.012 0 00.01-.004.014.014 0 00.003-.01.017.017 0 00-.003-.01C.413.37.41.368.404.366M.397.126A.122.122 0 00.36.036.12.12 0 00.272 0a.12.12 0 00-.088.037.123.123 0 00-.037.09c0 .035.012.065.037.09a.12.12 0 00.088.036A.12.12 0 00.36.216a.122.122 0 00.037-.09m-.03 0c0 .028-.009.05-.028.07a.091.091 0 01-.067.028.093.093 0 01-.068-.029.095.095 0 01-.028-.069.096.096 0 11.192 0z"/></symbol><symbol id="E"><path d="M.167.423V.319c.054.049.094.08.12.093a.16.16 0 00.074.021.107.107 0 00.068-.025C.449.392.46.38.46.371A.021.021 0 00.454.355.02.02 0 00.44.35L.431.35a.083.083 0 00-.013.011.124.124 0 01-.03.024.055.055 0 01-.025.006.139.139 0 01-.065-.021.979.979 0 01-.13-.105V.04h.181C.36.041.366.039.371.035A.018.018 0 00.377.021.02.02 0 00.371.006C.366.002.359 0 .349 0H.027c-.01 0-.016.002-.02.005A.02.02 0 000 .02c0 .006.002.01.006.014S.017.04.027.04h.1V.38H.05C.04.381.034.383.03.387a.02.02 0 00-.007.015c0 .006.002.011.006.015.005.004.012.006.022.006h.116z"/></symbol><symbol id="F"><path d="M.348.016v.06A.292.292 0 00.157 0a.167.167 0 00-.115.037A.12.12 0 000 .13c0 .04.018.074.055.104.036.03.09.044.16.044A.75.75 0 00.347.262V.33C.348.35.338.37.316.387.296.404.264.412.223.412A.474.474 0 01.088.384.094.094 0 00.068.38a.019.019 0 00-.013.006A.02.02 0 00.049.4c0 .005.002.01.005.013a.488.488 0 00.17.04.176.176 0 00.122-.038.113.113 0 00.043-.086V.057h.055C.454.057.46.055.465.051A.018.018 0 00.472.037.02.02 0 00.465.022C.461.018.454.016.444.016H.348m0 .204a.39.39 0 01-.13.016A.225.225 0 01.08.198C.054.178.041.156.041.128A.08.08 0 01.07.067C.09.05.118.041.155.041c.035 0 .068.007.098.021A.36.36 0 01.348.13v.09z"/></symbol><use xlink:href="#D" transform="matrix(16 0 0 -16 122.682 47.879)"/><use xlink:href="#E" transform="matrix(16 0 0 -16 132.157 47.691)"/><use xlink:href="#F" transform="matrix(16 0 0 -16 141.546 47.949)"/><use xlink:href="#y" transform="matrix(16 0 0 -16 150.81 47.691)"/><use xlink:href="#u" transform="matrix(16 0 0 -16 159.621 47.691)"/><path d="M110.021 53.291h60v24h-60z" fill="#fff" fill-rule="evenodd"/><path stroke-miterlimit="8" fill="none" stroke="#000" d="M110.021 53.291h60v24h-60z"/><symbol id="G"><path d="M.44.629V.057h.054c.01 0 .017-.002.022-.006A.018.018 0 00.522.037.02.02 0 00.516.022C.51.018.504.016.494.016H.398v.082A.216.216 0 00.11.029a.236.236 0 00-.08.31.214.214 0 00.187.115.219.219 0 00.18-.098v.231H.344C.333.587.326.59.322.593a.02.02 0 00-.007.015c0 .006.003.011.007.015s.011.006.021.006H.44M.398.227a.181.181 0 01-.053.131.17.17 0 01-.125.054.17.17 0 01-.126-.054A.181.181 0 01.04.227C.041.175.059.13.094.095A.17.17 0 01.22.04a.17.17 0 01.125.054C.38.13.398.175.398.227z"/></symbol><use xlink:href="#D" transform="matrix(16 0 0 -16 122.682 71.879)"/><use xlink:href="#E" transform="matrix(16 0 0 -16 132.157 71.691)"/><use xlink:href="#G" transform="matrix(16 0 0 -16 141.405 71.949)"/><use xlink:href="#y" transform="matrix(16 0 0 -16 150.81 71.691)"/><use xlink:href="#u" transform="matrix(16 0 0 -16 159.621 71.691)"/><path d="M110.021 77.291h60v24h-60z" fill="#fff" fill-rule="evenodd"/><path stroke-miterlimit="8" fill="none" stroke="#000" d="M110.021 77.291h60v24h-60z"/><symbol id="H"><path d="M.334.412c0 .01.002.016.006.02A.02.02 0 00.355.44.02.02 0 00.37.433C.374.428.376.42.376.41v-.07C.376.33.374.324.37.32A.02.02 0 00.355.313.02.02 0 00.341.32C.337.322.335.329.334.336a.065.065 0 01-.03.049.185.185 0 01-.106.027.179.179 0 01-.107-.028C.072.37.063.354.063.337c0-.02.01-.035.034-.048A.253.253 0 01.186.268.604.604 0 00.304.247a.148.148 0 00.07-.048.105.105 0 00.024-.065C.398.099.38.068.348.04.314.014.265 0 .2 0a.248.248 0 00-.159.05c0-.012 0-.019-.002-.022A.018.018 0 00.032.02.02.02 0 00.02.016a.02.02 0 00-.015.006C.002.027 0 .034 0 .043v.085c0 .01.002.017.005.02a.02.02 0 00.016.007A.02.02 0 00.035.15.02.02 0 00.042.133c0-.015.003-.028.01-.038A.125.125 0 01.108.056.246.246 0 01.199.041c.053 0 .093.01.119.03.026.02.039.04.039.063 0 .025-.013.046-.04.06a.302.302 0 01-.116.032.472.472 0 00-.11.02.111.111 0 00-.051.038A.09.09 0 00.02.34c0 .035.017.063.052.083.034.021.075.032.123.032A.218.218 0 00.334.412z"/></symbol><symbol id="I"><path d="M.124.611V.537c.024.03.05.052.078.067a.207.207 0 00.1.022c.04 0 .077-.01.111-.028A.213.213 0 00.302.199a.214.214 0 00-.178.09V.04h.1C.232.041.24.039.243.036A.02.02 0 00.25.02.02.02 0 00.244.006C.24.002.233 0 .224 0H.026c-.01 0-.016.002-.02.006A.018.018 0 000 .02a.02.02 0 00.006.015C.011.039.018.04.027.04h.056V.57H.027c-.01 0-.016.002-.02.006A.02.02 0 000 .59C0 .597.002.6.006.605.011.61.018.611.027.611h.097M.479.413a.163.163 0 01-.052.12.172.172 0 01-.125.051.174.174 0 01-.127-.05.164.164 0 01-.051-.121A.174.174 0 01.302.24c.049 0 .09.016.125.05A.165.165 0 01.48.413z"/></symbol><use xlink:href="#D" transform="matrix(16 0 0 -16 122.682 95.879)"/><use xlink:href="#E" transform="matrix(16 0 0 -16 132.157 95.691)"/><use xlink:href="#H" transform="matrix(16 0 0 -16 142.038 95.949)"/><use xlink:href="#I" transform="matrix(16 0 0 -16 150.373 98.707)"/><use xlink:href="#u" transform="matrix(16 0 0 -16 159.621 95.691)"/><path stroke-width="2.25" stroke-miterlimit="8" fill="none" stroke="#000" d="M110.021 77.291h126v24h-126zM110.021 53.291h126v24h-126zM110.021 29.291h126v24h-126z"/><symbol id="J"><path d="M.15 0H0v.72h.15V0M.074.734z"/></symbol><symbol id="K"><path d="M.294.545C.349.545.394.53.429.5.464.473.48.425.48.358V0H.34v.324c0 .028-.004.05-.011.064C.314.416.288.43.25.43.202.43.17.41.152.37A.206.206 0 01.14.29V0H0v.531h.134V.454a.236.236 0 00.051.059.176.176 0 00.109.032M.243.546z"/></symbol><symbol id="L"><path d="M.141.596H0v.128h.141V.596M0 .532h.141V0H0v.532z"/></symbol><symbol id="M"><path d="M0 .438v.099h.074v.148h.138V.537h.086v-.1H.212v-.28C.212.135.215.12.22.116.226.11.243.108.271.108h.027V.006L.232.002C.167 0 .122.012.098.036.082.052.074.077.074.11v.328H0z"/></symbol><symbol id="N"><path d="M.33.275A.16.16 0 00.266.252L.235.247a.202.202 0 01-.063-.02A.064.064 0 01.14.169c0-.023.006-.04.02-.051A.076.076 0 01.207.1.14.14 0 01.29.127c.025.018.039.05.04.097v.051M.245.34A.217.217 0 01.3.353c.02.008.03.021.03.04 0 .02-.008.036-.023.044A.138.138 0 01.241.45C.208.45.185.442.17.425A.101.101 0 01.15.376H.017a.204.204 0 00.04.115c.036.047.1.07.189.07C.304.562.356.55.4.528.446.504.469.46.469.396V.152.09C.472.072.474.06.479.053a.05.05 0 01.02-.016v-.02h-.15a.155.155 0 00-.01.03.365.365 0 00-.004.032.286.286 0 00-.066-.053A.2.2 0 00.167 0a.176.176 0 00-.12.041A.148.148 0 000 .158C0 .224.025.271.076.3a.336.336 0 00.122.034L.245.34m.007.223z"/></symbol><symbol id="O"><path d="M.14 0H0v.72h.14V0z"/></symbol><symbol id="P"><path d="M.076.113h.018a.22.22 0 01.039 0 .07.07 0 01.031.012C.172.131.18.142.187.16c.007.017.01.028.008.032L0 .748h.155L.27.355l.11.393h.148L.346.224A.729.729 0 00.263.037C.243.012.2 0 .14 0a.719.719 0 00-.064.002v.111m.189.649z"/></symbol><use xlink:href="#J" transform="matrix(16 0 0 -16 148.877 17.766)"/><use xlink:href="#K" transform="matrix(16 0 0 -16 153.349 17.766)"/><use xlink:href="#L" transform="matrix(16 0 0 -16 163.14 17.766)"/><use xlink:href="#M" transform="matrix(16 0 0 -16 166.682 17.92)"/><use xlink:href="#L" transform="matrix(16 0 0 -16 172.916 17.766)"/><use xlink:href="#N" transform="matrix(16 0 0 -16 176.755 18.032)"/><use xlink:href="#O" transform="matrix(16 0 0 -16 186.276 17.766)"/><use xlink:href="#O" transform="matrix(16 0 0 -16 190.724 17.766)"/><use xlink:href="#P" transform="matrix(16 0 0 -16 194.25 21.211)"/><use xlink:href="#Q" transform="matrix(16 0 0 -16 202.982 17.766)"/><path d="M362.021 30.416h66v24h-66z" fill="#fff" fill-rule="evenodd"/><path stroke-miterlimit="8" fill="none" stroke="#000" d="M362.02 30.416h66v24h-66z"/><use xlink:href="#x" transform="matrix(16 0 0 -16 374.01 49.05)"/><use xlink:href="#y" transform="matrix(16 0 0 -16 382.61 48.816)"/><use xlink:href="#z" transform="matrix(16 0 0 -16 393.202 48.816)"/><use xlink:href="#B" transform="matrix(16 0 0 -16 402.357 48.816)"/><use xlink:href="#C" transform="matrix(16 0 0 -16 412.144 49.05)"/><use xlink:href="#u" transform="matrix(16 0 0 -16 420.221 48.816)"/><path d="M362.021 54.416h66v24h-66z" fill="#fff" fill-rule="evenodd"/><path stroke-miterlimit="8" fill="none" stroke="#000" d="M362.02 54.416h66v24h-66z"/><use xlink:href="#x" transform="matrix(16 0 0 -16 413.01 73.05)"/><use xlink:href="#u" transform="matrix(16 0 0 -16 420.821 72.816)"/><path d="M362.021 78.416h66v24h-66z" fill="#fff" fill-rule="evenodd"/><path stroke-miterlimit="8" fill="none" stroke="#000" d="M362.02 78.416h66v24h-66z"/><use xlink:href="#x" transform="matrix(16 0 0 -16 374.01 97.05)"/><use xlink:href="#y" transform="matrix(16 0 0 -16 382.61 96.816)"/><use xlink:href="#z" transform="matrix(16 0 0 -16 393.202 96.816)"/><use xlink:href="#x" transform="matrix(16 0 0 -16 402.81 97.05)"/><use xlink:href="#x" transform="matrix(16 0 0 -16 412.41 97.05)"/><use xlink:href="#u" transform="matrix(16 0 0 -16 420.221 96.816)"/><path d="M302.021 30.416h60v24h-60z" fill="#fff" fill-rule="evenodd"/><path stroke-miterlimit="8" fill="none" stroke="#000" d="M302.02 30.416h60v24h-60z"/><use xlink:href="#D" transform="matrix(16 0 0 -16 314.682 49.004)"/><use xlink:href="#E" transform="matrix(16 0 0 -16 324.157 48.816)"/><use xlink:href="#F" transform="matrix(16 0 0 -16 333.546 49.074)"/><use xlink:href="#y" transform="matrix(16 0 0 -16 342.81 48.816)"/><use xlink:href="#u" transform="matrix(16 0 0 -16 351.621 48.816)"/><path d="M302.021 54.416h60v24h-60z" fill="#fff" fill-rule="evenodd"/><path stroke-miterlimit="8" fill="none" stroke="#000" d="M302.02 54.416h60v24h-60z"/><use xlink:href="#D" transform="matrix(16 0 0 -16 314.682 73.004)"/><use xlink:href="#E" transform="matrix(16 0 0 -16 324.157 72.816)"/><use xlink:href="#G" transform="matrix(16 0 0 -16 333.405 73.074)"/><use xlink:href="#y" transform="matrix(16 0 0 -16 342.81 72.816)"/><use xlink:href="#u" transform="matrix(16 0 0 -16 351.621 72.816)"/><path d="M302.021 78.416h60v24h-60z" fill="#fff" fill-rule="evenodd"/><path stroke-miterlimit="8" fill="none" stroke="#000" d="M302.02 78.416h60v24h-60z"/><use xlink:href="#D" transform="matrix(16 0 0 -16 314.682 97.004)"/><use xlink:href="#E" transform="matrix(16 0 0 -16 324.157 96.816)"/><use xlink:href="#H" transform="matrix(16 0 0 -16 334.038 97.074)"/><use xlink:href="#I" transform="matrix(16 0 0 -16 342.373 99.832)"/><use xlink:href="#u" transform="matrix(16 0 0 -16 351.621 96.816)"/><path stroke-width="2.25" stroke-miterlimit="8" fill="none" stroke="#000" d="M302.02 78.416h126v24h-126zM302.02 54.416h126v24h-126zM302.02 30.416h126v24h-126z"/><symbol id="R"><path d="M.184.264V.1h.06C.268.1.285.096.295.086A.047.047 0 00.311.05.045.045 0 00.295.014C.285.004.268 0 .245 0H.066C.043 0 .026.005.015.014A.046.046 0 000 .05c0 .015.005.027.016.036.01.01.027.014.05.014h.018v.452H.067C.043.552.026.557.015.566A.048.048 0 000 .603c0 .014.005.026.015.035.01.01.028.014.052.014h.117V.618a.274.274 0 00.15.048.242.242 0 00.175-.07.215.215 0 00.072-.16.197.197 0 00-.085-.163A.26.26 0 00.259.23a.323.323 0 00-.075.034m.297.172a.123.123 0 01-.017.053.146.146 0 01-.132.076A.143.143 0 01.215.51a.123.123 0 01-.03-.074c0-.027.014-.053.043-.078A.155.155 0 01.333.319C.375.32.41.332.438.357c.029.025.043.051.043.079z"/></symbol><symbol id="S"><path d="M.498.46V.115C.519.116.535.111.545.102A.047.047 0 00.56.066.047.047 0 00.544.03C.534.02.517.016.494.016H.397V.04A.481.481 0 00.316.01.306.306 0 00.242 0a.154.154 0 00-.143.078.13.13 0 00-.015.066v.215H.067C.043.36.026.364.015.373A.048.048 0 000 .41c0 .014.005.026.015.035.01.01.028.014.052.014h.117V.162C.184.14.19.125.2.115.21.105.225.1.247.1c.02 0 .041.004.065.012a.473.473 0 01.086.043V.36H.362C.338.36.32.364.31.373A.048.048 0 00.295.41C.295.424.3.436.31.445.32.455.338.46.362.46h.136z"/></symbol><symbol id="T"><path d="M.334.342a.2.2 0 01-.107.03.19.19 0 01-.092-.018C.125.348.12.342.12.335.12.328.126.321.14.313A.276.276 0 01.21.298.817.817 0 00.349.271.168.168 0 00.428.217.12.12 0 00.456.142a.11.11 0 00-.048-.09A.28.28 0 00.232 0a.391.391 0 00-.148.03.057.057 0 00-.016-.01.044.044 0 00-.017-.003.049.049 0 00-.037.015C.004.042 0 .059 0 .083v.034c0 .024.005.041.014.051.01.01.021.016.036.016a.045.045 0 00.03-.01A.065.065 0 00.1.14.158.158 0 01.155.11.256.256 0 01.229.1a.22.22 0 01.107.022c.012.007.018.014.018.022 0 .013-.009.024-.026.032a.383.383 0 01-.107.022C.141.206.087.222.061.247A.113.113 0 00.02.334a.11.11 0 00.045.09.252.252 0 00.161.049.315.315 0 00.128-.027.091.091 0 00.017.01.04.04 0 00.015.003A.044.044 0 00.42.444C.43.434.434.417.434.393V.368C.434.346.431.332.426.324A.05.05 0 00.384.3a.049.049 0 00-.032.012.05.05 0 00-.018.03z"/></symbol><symbol id="U"><path d="M.184.633V.42a.259.259 0 00.128.037.23.23 0 00.092-.018.156.156 0 00.094-.15V.1C.523.1.54.098.548.093A.048.048 0 00.57.05.047.047 0 00.556.014C.546.004.53 0 .505 0H.39C.367 0 .35.005.339.014A.048.048 0 00.324.05c0 .019.008.033.024.043C.356.098.372.1.398.1v.181C.397.307.391.325.38.335.365.35.342.356.312.356a.128.128 0 01-.06-.013.312.312 0 01-.068-.055V.1C.21.1.226.098.234.093A.048.048 0 00.258.05.047.047 0 00.242.014C.232.004.215 0 .191 0H.077C.053 0 .036.005.025.014A.048.048 0 00.01.05c0 .019.008.033.024.043C.042.098.06.1.084.1v.433H.067C.043.533.026.538.015.547A.048.048 0 000 .583C0 .598.005.61.015.62c.01.01.028.014.052.014h.117z"/></symbol><symbol id="V"><path d="M.497.552V.1h.018C.538.1.555.096.565.086A.047.047 0 00.581.05.046.046 0 00.566.014C.556.004.539 0 .515 0H.337C.313 0 .297.005.286.014A.046.046 0 00.27.05c0 .015.005.027.015.036C.296.096.313.1.337.1h.06v.164A.311.311 0 00.322.23a.265.265 0 00-.237.043A.197.197 0 000 .437c0 .06.024.112.072.159.048.046.107.07.176.07A.253.253 0 00.397.618v.034h.118c.023 0 .04-.004.05-.014A.046.046 0 00.581.602.047.047 0 00.566.566C.556.556.539.552.515.552H.497m-.1-.116A.123.123 0 01.38.489a.147.147 0 01-.132.076A.142.142 0 01.13.51.123.123 0 01.1.435C.1.408.114.382.143.357A.155.155 0 01.249.319C.29.32.326.332.354.357c.029.025.043.051.043.079z"/></symbol><symbol id="X"><path d="M.3.5A.136.136 0 00.258.4a.136.136 0 00-.1-.04.137.137 0 00-.1.04.136.136 0 00-.04.1c0 .04.013.073.04.1a.136.136 0 00.1.042c.04 0 .073-.014.1-.041A.135.135 0 00.3.5M.238.5C.238.522.23.54.215.556A.077.077 0 01.159.58.077.077 0 01.102.557.076.076 0 01.08.5C.08.48.087.46.103.444A.077.077 0 01.159.421c.022 0 .04.008.056.023A.077.077 0 01.238.5m.18-.148l-.37-.12a.075.075 0 00-.02-.004.027.027 0 00-.02.009A.033.033 0 000 .26C0 .267.002.273.007.28.01.283.017.287.03.29l.369.12c.009.003.016.004.02.004a.025.025 0 00.02-.01.031.031 0 00.009-.022.03.03 0 00-.007-.02C.438.36.43.356.418.353m.009-.21A.136.136 0 00.385.04.137.137 0 00.285 0a.136.136 0 00-.1.042.136.136 0 00-.041.1c0 .038.013.072.041.1a.136.136 0 00.1.04c.04 0 .073-.013.1-.04a.135.135 0 00.042-.1m-.062 0c0 .021-.008.04-.024.055a.077.077 0 01-.056.024A.077.077 0 01.23.197.076.076 0 01.206.141c0-.022.007-.04.023-.056A.077.077 0 01.285.062c.022 0 .04.008.056.023a.077.077 0 01.024.056z"/></symbol><symbol id="Y"><path d="M.227.443V.381c.042.03.075.05.099.06a.18.18 0 00.068.016A.152.152 0 00.489.42C.509.404.52.388.52.37A.05.05 0 00.505.335.049.049 0 00.469.319C.457.32.444.326.43.338.417.35.404.356.394.356.38.356.359.348.33.33A1.016 1.016 0 01.227.251v-.15h.142C.393.1.41.094.42.085A.046.046 0 00.436.05.047.047 0 00.42.014C.41.004.393 0 .37 0H.066C.043 0 .026.005.015.014A.048.048 0 000 .05c0 .015.005.027.015.036C.025.096.043.1.067.1h.06v.243H.09C.066.343.05.348.04.357a.048.048 0 00-.016.037c0 .014.005.026.016.035.01.01.027.014.051.014h.137z"/></symbol><symbol id="Z"><path d="M.347.017V.04A.378.378 0 00.18 0a.196.196 0 00-.13.042C.016.072 0 .102 0 .137 0 .18.021.218.064.254a.268.268 0 00.178.054c.03 0 .065-.003.105-.01v.024a.043.043 0 01-.02.037C.314.369.29.373.254.373A.501.501 0 01.139.355.188.188 0 00.098.35a.047.047 0 00-.035.014A.052.052 0 00.05.4C.05.41.05.416.055.422a.037.037 0 00.013.015.65.65 0 00.182.036C.313.473.36.46.395.433a.131.131 0 00.052-.11V.117h.017C.488.117.505.112.515.103A.046.046 0 00.531.066.047.047 0 00.515.03C.505.021.488.017.464.017H.347m0 .179a.582.582 0 01-.111.012.183.183 0 01-.105-.03C.113.165.104.152.104.139c0-.01.004-.017.013-.023A.12.12 0 01.184.1a.3.3 0 01.163.053v.043z"/></symbol><symbol id="aa"><path d="M.354.23L.506.1C.524.1.538.094.546.084.557.075.562.064.562.05A.047.047 0 00.545.014C.535.004.518 0 .494 0H.38C.356 0 .339.005.328.014A.048.048 0 00.313.05c0 .012.004.022.01.03.008.01.018.016.031.02L.279.164.203.1A.06.06 0 00.236.082a.047.047 0 00.01-.031.048.048 0 00-.015-.037C.221.004.204 0 .18 0H.067C.043 0 .026.005.015.014A.048.048 0 000 .05c0 .014.005.025.014.034C.023.094.036.1.054.1l.15.131-.132.112a.06.06 0 00-.04.016.049.049 0 00-.013.035c0 .014.005.026.015.035.01.01.028.014.052.014H.18C.204.443.22.44.23.43.241.42.247.41.247.394c0-.02-.01-.035-.028-.047l.06-.05.06.051C.321.361.312.375.312.392c0 .016.006.028.016.037.01.01.027.014.051.014h.093C.496.443.513.44.523.43A.046.046 0 00.54.393.047.047 0 00.525.36C.517.349.503.345.485.343L.355.23z"/></symbol><use xlink:href="#R" transform="matrix(16 0 0 -16 319.268 22.235)"/><use xlink:href="#S" transform="matrix(16 0 0 -16 329.235 19.149)"/><use xlink:href="#T" transform="matrix(16 0 0 -16 339.78 19.149)"/><use xlink:href="#U" transform="matrix(16 0 0 -16 348.404 18.891)"/><use xlink:href="#V" transform="matrix(16 0 0 -16 358.363 22.235)"/><use xlink:href="#W" transform="matrix(16 0 0 -16 367.4 18.891)"/><use xlink:href="#X" transform="matrix(16 0 0 -16 378.235 19.125)"/><use xlink:href="#Y" transform="matrix(16 0 0 -16 387.445 18.891)"/><use xlink:href="#Z" transform="matrix(16 0 0 -16 396.896 19.157)"/><use xlink:href="#aa" transform="matrix(16 0 0 -16 406.137 18.891)"/><use xlink:href="#W" transform="matrix(16 0 0 -16 415.4 18.891)"/><path d="M554.021 31.541h66v24h-66z" fill="#fff" fill-rule="evenodd"/><path stroke-miterlimit="8" fill="none" stroke="#000" d="M554.02 31.541h66v24h-66z"/><use xlink:href="#x" transform="matrix(16 0 0 -16 566.01 50.175)"/><use xlink:href="#y" transform="matrix(16 0 0 -16 574.61 49.941)"/><use xlink:href="#z" transform="matrix(16 0 0 -16 585.202 49.941)"/><use xlink:href="#B" transform="matrix(16 0 0 -16 594.357 49.941)"/><use xlink:href="#C" transform="matrix(16 0 0 -16 604.144 50.175)"/><use xlink:href="#u" transform="matrix(16 0 0 -16 612.22 49.941)"/><path d="M554.021 55.541h66v24h-66z" fill="#fff" fill-rule="evenodd"/><path stroke-miterlimit="8" fill="none" stroke="#000" d="M554.02 55.541h66v24h-66z"/><use xlink:href="#x" transform="matrix(16 0 0 -16 566.01 74.175)"/><use xlink:href="#y" transform="matrix(16 0 0 -16 574.61 73.941)"/><use xlink:href="#z" transform="matrix(16 0 0 -16 585.202 73.941)"/><use xlink:href="#B" transform="matrix(16 0 0 -16 594.357 73.941)"/><use xlink:href="#C" transform="matrix(16 0 0 -16 604.144 74.175)"/><use xlink:href="#u" transform="matrix(16 0 0 -16 612.22 73.941)"/><path d="M554.021 79.541h66v24h-66z" fill="#fff" fill-rule="evenodd"/><path stroke-miterlimit="8" fill="none" stroke="#000" d="M554.02 79.541h66v24h-66z"/><use xlink:href="#x" transform="matrix(16 0 0 -16 566.01 98.175)"/><use xlink:href="#y" transform="matrix(16 0 0 -16 574.61 97.941)"/><use xlink:href="#z" transform="matrix(16 0 0 -16 585.202 97.941)"/><use xlink:href="#x" transform="matrix(16 0 0 -16 594.81 98.175)"/><use xlink:href="#A" transform="matrix(16 0 0 -16 604.426 98.175)"/><use xlink:href="#u" transform="matrix(16 0 0 -16 612.22 97.941)"/><path d="M494.021 31.541h60v24h-60z" fill="#fff" fill-rule="evenodd"/><path stroke-miterlimit="8" fill="none" stroke="#000" d="M494.02 31.541h60v24h-60z"/><use xlink:href="#D" transform="matrix(16 0 0 -16 506.682 50.129)"/><use xlink:href="#E" transform="matrix(16 0 0 -16 516.157 49.941)"/><use xlink:href="#F" transform="matrix(16 0 0 -16 525.546 50.199)"/><use xlink:href="#y" transform="matrix(16 0 0 -16 534.81 49.941)"/><use xlink:href="#u" transform="matrix(16 0 0 -16 543.62 49.941)"/><path d="M494.021 55.541h60v24h-60z" fill="#fff" fill-rule="evenodd"/><path stroke-miterlimit="8" fill="none" stroke="#000" d="M494.02 55.541h60v24h-60z"/><use xlink:href="#D" transform="matrix(16 0 0 -16 506.682 74.129)"/><use xlink:href="#E" transform="matrix(16 0 0 -16 516.157 73.941)"/><use xlink:href="#G" transform="matrix(16 0 0 -16 525.405 74.199)"/><use xlink:href="#y" transform="matrix(16 0 0 -16 534.81 73.941)"/><use xlink:href="#u" transform="matrix(16 0 0 -16 543.62 73.941)"/><path d="M494.021 79.541h60v24h-60z" fill="#fff" fill-rule="evenodd"/><path stroke-miterlimit="8" fill="none" stroke="#000" d="M494.02 79.541h60v24h-60z"/><use xlink:href="#D" transform="matrix(16 0 0 -16 506.682 98.129)"/><use xlink:href="#E" transform="matrix(16 0 0 -16 516.157 97.941)"/><use xlink:href="#H" transform="matrix(16 0 0 -16 526.038 98.199)"/><use xlink:href="#I" transform="matrix(16 0 0 -16 534.372 100.957)"/><use xlink:href="#u" transform="matrix(16 0 0 -16 543.62 97.941)"/><path stroke-width="2.25" stroke-miterlimit="8" fill="none" stroke="#000" d="M494.02 79.541h126v24h-126zM494.02 55.541h126v24h-126zM494.02 31.541h126v24h-126z"/><symbol id="ab"><path d="M.518.23A.225.225 0 00.391.031a.29.29 0 00-.263 0 .229.229 0 00-.095.085.216.216 0 000 .231c.022.039.054.07.095.091a.274.274 0 00.262 0A.237.237 0 00.518.23m-.1-.001a.134.134 0 01-.035.089.157.157 0 01-.124.055.157.157 0 01-.113-.044A.135.135 0 01.1.23C.1.197.115.168.146.14A.164.164 0 01.259.1C.304.1.34.113.372.14c.03.027.046.056.046.088z"/></symbol><symbol id="ac"><path d="M.5.65V.115h.017c.023 0 .04-.005.05-.014A.046.046 0 00.584.066.047.047 0 00.568.03C.558.02.54.016.517.016H.399v.025A.295.295 0 00.25 0 .254.254 0 00.07.065.215.215 0 000 .228C0 .295.024.353.072.4A.24.24 0 00.25.473.247.247 0 00.325.46.298.298 0 00.4.425v.124H.382C.358.55.341.554.331.563a.047.047 0 00-.016.036c0 .015.005.027.016.036.01.01.027.014.051.014H.5M.4.225A.142.142 0 01.355.33.146.146 0 01.25.373.145.145 0 01.144.33.14.14 0 01.1.226C.1.19.113.16.14.136A.16.16 0 01.25.1a.16.16 0 01.11.035C.386.16.4.19.4.225z"/></symbol><use xlink:href="#R" transform="matrix(16 0 0 -16 516.069 23.36)"/><use xlink:href="#ab" transform="matrix(16 0 0 -16 526.473 20.274)"/><use xlink:href="#R" transform="matrix(16 0 0 -16 535.269 23.36)"/><use xlink:href="#V" transform="matrix(16 0 0 -16 545.564 23.36)"/><use xlink:href="#W" transform="matrix(16 0 0 -16 554.601 20.016)"/><use xlink:href="#X" transform="matrix(16 0 0 -16 565.436 20.25)"/><use xlink:href="#Y" transform="matrix(16 0 0 -16 574.645 20.016)"/><use xlink:href="#ac" transform="matrix(16 0 0 -16 583.886 20.274)"/><use xlink:href="#aa" transform="matrix(16 0 0 -16 593.337 20.016)"/><use xlink:href="#W" transform="matrix(16 0 0 -16 602.601 20.016)"/><path d="M494.021 328.166h135v24h-135z" fill="#fff" fill-rule="evenodd"/><path stroke-width="3" stroke-miterlimit="8" fill="none" stroke="#007dd6" d="M494.02 328.166h135v24h-135z"/><use xlink:href="#x" transform="matrix(16 0 0 -16 539.01 346.8)"/><use xlink:href="#y" transform="matrix(16 0 0 -16 547.61 346.566)"/><use xlink:href="#z" transform="matrix(16 0 0 -16 558.202 346.566)"/><use xlink:href="#B" transform="matrix(16 0 0 -16 567.357 346.566)"/><use xlink:href="#C" transform="matrix(16 0 0 -16 577.144 346.8)"/><use xlink:href="#u" transform="matrix(16 0 0 -16 585.22 346.566)"/><path stroke-width=".75" stroke-linejoin="round" fill="none" stroke="#000" d="M605.27 376.166l1.563-.188 1.938-.125 4.75-.437 5.75-.438 6.25-.562 6.375-.688 6.125-.687 5.438-.875 4.312-.938 3.125-1.062 2.688-1.25 2.312-1.25 1.938-1.438 3.187-3 2.5-3.062 2-3.25 1.188-3.375.312-3.563-.75-3.624-.5-2.251-1-2.187-1.437-2.188-1.75-2.125-4.188-3.687-4.625-2.813-2.562-.937-3-.625-6.625-.563-3.376-.062h-3.062l-2.688-.063-.19-.01"/><path d="M635.09 332.066l-5.819-3.337 6.161-2.653z" fill-rule="evenodd"/><use xlink:href="#x" transform="matrix(14 0 0 -14 254.78 327.971)"/><use xlink:href="#y" transform="matrix(14 0 0 -14 262.305 327.766)"/><use xlink:href="#z" transform="matrix(14 0 0 -14 271.573 327.766)"/><use xlink:href="#x" transform="matrix(14 0 0 -14 279.98 327.971)"/><use xlink:href="#A" transform="matrix(14 0 0 -14 288.393 327.971)"/><use xlink:href="#u" transform="matrix(14 0 0 -14 295.214 327.766)"/></svg>