<svg xmlns="http://www.w3.org/2000/svg" xmlns:xlink="http://www.w3.org/1999/xlink" width="517.926" height="287.5" viewBox="0 0 388.444 215.625"><path d="M-32.176 426.964h720v-540h-720z" fill="#fff"/><path d="M3.824 24.589h12v18h-12z" fill="#e4e4e4" fill-rule="evenodd"/><path stroke-width=".75" stroke-miterlimit="8" fill="none" stroke="#000" d="M3.824 24.59h12v18h-12z"/><symbol id="a"><path d="M.02.16h.016A.313.313 0 01.06.073C.079.04.106.023.141.023c.02 0 .037.007.05.02C.205.059.21.077.21.1a.097.097 0 01-.018.06l-.04.06a.874.874 0 00-.046.073.122.122 0 00-.014.056c0 .028.01.053.03.074.02.022.05.033.087.033a.192.192 0 00.055-.01.189.189 0 01.042-.008C.315.438.32.44.325.443a.05.05 0 01.01.013H.35L.33.317H.313A.22.22 0 01.294.39.078.078 0 01.22.433.06.06 0 01.182.42C.17.411.165.398.165.38A.08.08 0 01.172.345.587.587 0 01.207.292l.035-.05A.44.44 0 00.28.179.125.125 0 00.29.126.11.11 0 00.246.037.165.165 0 00.14.001a.283.283 0 00-.057.008.373.373 0 01-.043.009C.033.018.028.016.024.013A.044.044 0 01.016 0H0l.02.16z"/></symbol><use xlink:href="#a" transform="matrix(12 0 0 -12 7.018 38.559)"/><use xlink:href="#b" transform="matrix(12 0 0 -12 11.492 38.39)"/><path d="M15.824 24.589h96v18h-96z" fill="#c6e6e9" fill-rule="evenodd"/><path stroke-width=".75" stroke-miterlimit="8" fill="none" stroke="#000" d="M15.824 24.59h96v18h-96z"/><symbol id="c"><path d="M.368.318H.46V.254H.31L.237.182H.46V.118h-.28L.06 0 .017.044l.074.074H0v.064h.15l.073.072H0v.064h.281L.4.436.443.392.368.318z"/></symbol><use xlink:href="#c" transform="matrix(12 0 0 -12 34.563 38.172)"/><symbol id="e"><path d="M.23.027c.048 0 .081.027.1.079a.74.74 0 01.026.227c0 .08-.005.143-.016.19C.32.61.282.655.227.655.17.655.133.61.113.519a.907.907 0 01-.016-.19C.097.255.102.196.113.15.134.07.173.027.23.027M.23.681c.075 0 .133-.04.174-.118A.547.547 0 00.422.161C.384.055.318 0 .225 0a.187.187 0 00-.159.087A.43.43 0 000 .341c0 .084.015.156.044.217C.084.64.146.68.23.68z"/></symbol><symbol id="f"><path d="M.28.43a.358.358 0 01.073.05c.03.028.044.059.044.093a.085.085 0 01-.022.061.074.074 0 01-.057.024.072.072 0 01-.057-.024A.096.096 0 01.24.57C.24.55.244.528.25.503A.624.624 0 01.281.43M.222.054c.018 0 .04.005.066.015.026.01.051.027.075.05a1.396 1.396 0 00-.152.238.33.33 0 01-.077-.06.155.155 0 01-.041-.106C.094.154.106.12.13.094a.119.119 0 01.093-.04M.197.392a.403.403 0 00-.035.135c0 .047.014.086.043.117C.233.675.27.69.313.69c.04 0 .073-.01.1-.032A.11.11 0 00.45.57.131.131 0 00.4.464.446.446 0 00.295.398l.063-.11C.372.267.395.235.428.193A.515.515 0 01.498.3a.19.19 0 01.02.072c0 .018-.007.03-.02.038a.13.13 0 01-.044.008V.44H.67V.42A.162.162 0 01.622.407.108.108 0 01.577.36L.55.314a.85.85 0 00-.1-.149.582.582 0 01.044-.046.167.167 0 01.109-.047c.021 0 .04.005.054.016.01.006.022.019.037.037L.709.114A.224.224 0 00.655.038.147.147 0 00.596.006.139.139 0 00.557 0a.172.172 0 00-.094.03.524.524 0 00-.074.062A.364.364 0 00.3.03.284.284 0 00.171 0a.182.182 0 00-.125.042A.146.146 0 000 .156c0 .045.014.085.042.12A.405.405 0 00.159.37l.038.022z"/></symbol><use xlink:href="#d" transform="matrix(12 0 0 -12 40.612 38.39)"/><use xlink:href="#e" transform="matrix(12 0 0 -12 43.718 38.5)"/><use xlink:href="#d" transform="matrix(12 0 0 -12 49.612 38.39)"/><use xlink:href="#f" transform="matrix(12 0 0 -12 53.093 38.565)"/><use xlink:href="#d" transform="matrix(12 0 0 -12 61.948 38.39)"/><use xlink:href="#c" transform="matrix(12 0 0 -12 65.487 38.172)"/><symbol id="g"><path d="M0 .011c.12.124.2.215.243.273a.287.287 0 01.064.17C.307.5.294.537.267.562a.129.129 0 01-.093.038.135.135 0 01-.108-.049A.283.283 0 01.022.47L.001.474C.017.55.045.601.083.63c.04.03.081.044.126.044a.178.178 0 00.185-.18A.255.255 0 00.338.34a3.322 3.322 0 00-.24-.264h.225c.031 0 .053.004.066.011a.146.146 0 01.043.055L.444.136.39 0H0v.011z"/></symbol><symbol id="h"><path d="M.043.1C.062.1.086.09.116.068c.03-.02.053-.03.07-.03.037 0 .07.016.098.048a.183.183 0 01.042.122C.326.293.28.354.19.391a.367.367 0 01-.153.03.02.02 0 00-.006.006l.001.007.002.005.107.233h.21c.01 0 .017.002.023.006a.12.12 0 01.022.02L.405.69.367.6C.366.598.362.596.357.595a.173.173 0 00-.02-.001H.148L.107.508A.892.892 0 00.224.482a.264.264 0 00.102-.06.237.237 0 00.071-.17.237.237 0 00-.077-.18A.272.272 0 00.126 0a.262.262 0 00-.077.01C.016.02 0 .036 0 .062c0 .01.003.019.01.026C.017.096.028.1.043.1z"/></symbol><use xlink:href="#d" transform="matrix(12 0 0 -12 71.536 38.39)"/><use xlink:href="#g" transform="matrix(12 0 0 -12 74.894 38.39)"/><use xlink:href="#h" transform="matrix(12 0 0 -12 80.917 38.518)"/><use xlink:href="#h" transform="matrix(12 0 0 -12 86.917 38.518)"/><path d="M111.824 24.589h276v18h-276z" fill="#eee" fill-rule="evenodd"/><path stroke-width=".75" stroke-miterlimit="8" fill="none" stroke="#000" d="M111.824 24.59h276v18h-276z"/><symbol id="i"><path d="M.572.824c0-.01-.003-.02-.01-.03a.036.036 0 00-.03-.013.038.038 0 00-.028.01.034.034 0 00-.01.025c0 .007.003.018.009.034C.503.854.5.858.497.861A.029.029 0 01.48.866C.448.866.421.84.4.787A1.035 1.035 0 01.36.634h.108L.461.602H.353L.28.285A.674.674 0 00.203.079C.171.026.13 0 .08 0a.083.083 0 00-.057.019C.007.032 0 .046 0 .062c0 .01.003.018.01.027.006.008.015.013.028.013A.04.04 0 00.066.09.037.037 0 00.073.046.033.033 0 01.067.033C.067.03.07.028.073.026A.03.03 0 01.087.023c.028 0 .052.022.07.065.01.023.02.055.029.095l.088.419h-.09L.19.634h.093C.303.71.325.766.35.803c.036.056.082.084.136.084a.097.097 0 00.061-.02C.564.856.572.84.572.825z"/></symbol><use xlink:href="#i" transform="matrix(12 0 0 -12 246.237 40.891)"/><use xlink:href="#b" transform="matrix(12 0 0 -12 251.36 38.39)"/><symbol id="j"><path d="M.264 0H.176v.56A.582.582 0 000 .454V.54a.53.53 0 01.129.084.33.33 0 01.078.096h.057V0z"/></symbol><symbol id="k"><path d="M0 0v.1h.1V0H0z"/></symbol><symbol id="m"><path d="M0 0v.716h.097L.473.154v.562h.091V0H.467L.09.563V0H0z"/></symbol><symbol id="n"><path d="M0 .271c0 .096.027.167.08.213a.241.241 0 00.163.058c.071 0 .13-.023.175-.07A.266.266 0 00.486.278C.486.212.476.16.456.121A.211.211 0 00.368.03.253.253 0 00.243 0a.234.234 0 00-.176.07C.022.116 0 .183 0 .27m.09 0c0-.066.015-.116.044-.15a.14.14 0 01.11-.049c.043 0 .08.017.108.05.029.033.044.084.044.152C.396.338.38.387.352.419a.138.138 0 01-.109.05.14.14 0 01-.11-.05C.106.388.09.338.09.272z"/></symbol><symbol id="o"><path d="M0 0v.519h.08v-.08C.1.478.117.502.134.514A.099.099 0 00.19.53c.03 0 .06-.01.09-.028L.252.42a.126.126 0 01-.064.02.083.083 0 01-.052-.018.093.093 0 01-.032-.048.342.342 0 01-.015-.103V0H0z"/></symbol><symbol id="p"><path d="M0 0v.519h.079V.446A.183.183 0 00.236.53.17.17 0 00.33.506.128.128 0 00.382.44C.423.5.477.53.542.53.594.53.633.516.662.487.688.46.701.415.701.356V0H.616v.327c0 .035-.003.06-.009.075a.072.072 0 01-.03.038.122.122 0 01-.144-.022C.408.392.396.354.396.3V0H.308v.337c0 .039-.007.068-.021.088-.015.02-.038.03-.07.03a.129.129 0 01-.07-.02.111.111 0 01-.045-.058A.322.322 0 01.088.27V0H0z"/></symbol><symbol id="q"><path d="M.368.076A.27.27 0 00.178 0C.12 0 .075.014.045.042A.139.139 0 000 .148a.142.142 0 00.063.12c.018.013.04.023.063.03A.628.628 0 00.204.31a.803.803 0 01.157.03v.023C.361.4.353.424.336.439.314.46.281.47.236.47.195.47.164.462.145.447.125.433.11.407.1.371L.015.382a.21.21 0 00.039.09c.018.022.043.04.077.051A.342.342 0 00.25.542c.044 0 .08-.005.108-.016a.141.141 0 00.061-.04.136.136 0 00.027-.059.495.495 0 00.005-.08V.228C.45.147.45.096.455.074A.2.2 0 01.478.012H.386a.186.186 0 00-.018.064M.361.272A.645.645 0 00.217.239.332.332 0 01.141.22a.076.076 0 01-.047-.07C.094.127.103.108.12.092.138.077.164.07.198.07s.064.007.09.022a.138.138 0 01.059.06c.01.02.014.05.014.089v.032z"/></symbol><symbol id="r"><path d="M0 0v.716h.088V0H0z"/></symbol><symbol id="s"><path d="M0 .615v.1h.088v-.1H0M0 0v.519h.088V0H0z"/></symbol><symbol id="t"><path d="M0 0v.071l.33.38A1.928 1.928 0 00.231.446H.02V.52h.423V.46L.163.131.108.071c.04.003.077.005.111.005h.24V0H0z"/></symbol><symbol id="u"><path d="M.384.179L.475.167a.222.222 0 00-.08-.123A.24.24 0 00.248 0a.238.238 0 00-.18.07A.275.275 0 000 .267C0 .354.022.422.067.47a.228.228 0 00.175.072c.07 0 .126-.024.17-.07a.281.281 0 00.066-.2.82.82 0 000-.023H.09A.2.2 0 01.139.118.144.144 0 01.248.072c.032 0 .06.009.082.026.023.017.04.044.054.08M.096.322h.29a.176.176 0 01-.034.098.135.135 0 01-.109.05.14.14 0 01-.102-.04.161.161 0 01-.045-.108z"/></symbol><symbol id="v"><path d="M.368.012v.065A.161.161 0 00.223 0 .205.205 0 00.11.034a.227.227 0 00-.08.095A.334.334 0 000 .271c0 .051.009.098.026.14a.204.204 0 00.193.131.171.171 0 00.143-.071v.257H.45V.012H.368M.09.27C.09.204.104.154.132.12a.127.127 0 01.1-.049c.038 0 .07.016.097.047.027.032.04.08.04.144C.37.334.357.386.33.42a.126.126 0 01-.2.002C.103.39.09.34.09.271z"/></symbol><use xlink:href="#j" transform="matrix(12 0 0 -12 6.33 13.19)"/><use xlink:href="#k" transform="matrix(12 0 0 -12 12.786 13.19)"/><use xlink:href="#l" transform="matrix(12 0 0 -12 15.032 13.19)"/><use xlink:href="#m" transform="matrix(12 0 0 -12 19.282 13.19)"/><use xlink:href="#n" transform="matrix(12 0 0 -12 27.43 13.33)"/><use xlink:href="#o" transform="matrix(12 0 0 -12 34.484 13.19)"/><use xlink:href="#p" transform="matrix(12 0 0 -12 38.491 13.19)"/><use xlink:href="#q" transform="matrix(12 0 0 -12 48.13 13.33)"/><use xlink:href="#r" transform="matrix(12 0 0 -12 55.136 13.19)"/><use xlink:href="#s" transform="matrix(12 0 0 -12 57.83 13.19)"/><use xlink:href="#t" transform="matrix(12 0 0 -12 59.93 13.19)"/><use xlink:href="#u" transform="matrix(12 0 0 -12 66.136 13.33)"/><use xlink:href="#v" transform="matrix(12 0 0 -12 72.778 13.33)"/><use xlink:href="#l" transform="matrix(12 0 0 -12 79.04 13.19)"/><path d="M3.324 84.589h12v18h-12z" fill="#e4e4e4" fill-rule="evenodd"/><path stroke-width=".75" stroke-miterlimit="8" fill="none" stroke="#000" d="M3.324 84.59h12v18h-12z"/><use xlink:href="#a" transform="matrix(12 0 0 -12 6.518 98.559)"/><use xlink:href="#b" transform="matrix(12 0 0 -12 10.992 98.39)"/><path d="M111.324 84.589h276v18h-276z" fill="#eee" fill-rule="evenodd"/><path stroke-width=".75" stroke-miterlimit="8" fill="none" stroke="#000" d="M111.324 84.59h276v18h-276z"/><use xlink:href="#i" transform="matrix(12 0 0 -12 245.737 100.891)"/><use xlink:href="#b" transform="matrix(12 0 0 -12 250.86 98.39)"/><path d="M2.824 138.589h12v18h-12z" fill="#e4e4e4" fill-rule="evenodd"/><path stroke-width=".75" stroke-miterlimit="8" fill="none" stroke="#000" d="M2.824 138.59h12v18h-12z"/><use xlink:href="#a" transform="matrix(12 0 0 -12 6.018 152.559)"/><use xlink:href="#b" transform="matrix(12 0 0 -12 10.492 152.39)"/><path d="M3.324 192.589h12v18h-12z" fill="#e4e4e4" fill-rule="evenodd"/><path stroke-width=".75" stroke-miterlimit="8" fill="none" stroke="#000" d="M3.324 192.59h12v18h-12z"/><use xlink:href="#a" transform="matrix(12 0 0 -12 6.518 206.559)"/><use xlink:href="#b" transform="matrix(12 0 0 -12 10.992 206.39)"/><path d="M111.324 192.589h276v18h-276z" fill="#eee" fill-rule="evenodd"/><path stroke-width=".75" stroke-miterlimit="8" fill="none" stroke="#000" d="M111.324 192.59h276v18h-276z"/><use xlink:href="#c" transform="matrix(12 0 0 -12 242.063 206.172)"/><use xlink:href="#d" transform="matrix(12 0 0 -12 248.112 206.39)"/><use xlink:href="#e" transform="matrix(12 0 0 -12 251.218 206.5)"/><use xlink:href="#w" transform="matrix(12 0 0 -12 257.112 206.39)"/><symbol id="x"><path d="M.474.084V0H0C0 .021.003.042.01.061a.325.325 0 00.058.095.923.923 0 00.115.109c.078.063.13.114.157.151a.183.183 0 01.041.106.116.116 0 01-.037.088.133.133 0 01-.097.036.137.137 0 01-.102-.038.144.144 0 01-.038-.106l-.09.01c.005.067.029.118.07.154C.127.7.181.719.25.719A.227.227 0 00.413.662.188.188 0 00.473.52.215.215 0 00.455.436.325.325 0 00.397.348 1.392 1.392 0 00.26.222 1.46 1.46 0 01.16.132.281.281 0 01.123.084h.35z"/></symbol><symbol id="y"><path d="M0 0v.716h.247a.598.598 0 00.127-.01.242.242 0 00.105-.052.29.29 0 00.084-.122.474.474 0 00.029-.17.5.5 0 00-.02-.145.354.354 0 00-.048-.104.263.263 0 00-.066-.065.266.266 0 00-.085-.036A.485.485 0 00.258 0H0m.095.084h.153c.047 0 .084.005.11.014a.159.159 0 01.065.037c.022.022.04.052.052.09a.44.44 0 01.02.138.33.33 0 01-.038.173.184.184 0 01-.09.08.37.37 0 01-.122.015h-.15V.084z"/></symbol><symbol id="z"><path d="M0 0v.519h.08V.445A.186.186 0 00.243.53C.275.53.304.525.33.513A.134.134 0 00.39.47.17.17 0 00.416.404.503.503 0 00.42.32V0H.333v.315a.235.235 0 01-.01.08.083.083 0 01-.036.043.113.113 0 01-.061.016.143.143 0 01-.098-.036C.101.395.088.35.088.283V0H0z"/></symbol><symbol id="A"><path d="M0 .202l.088.011A.196.196 0 01.139.105.129.129 0 01.228.073c.041 0 .076.014.105.043a.145.145 0 01.042.106.136.136 0 01-.14.14.252.252 0 01-.062-.01l.01.077.014-.001c.038 0 .071.01.101.029.03.02.045.05.045.09 0 .033-.01.06-.032.08A.116.116 0 01.226.66.12.12 0 01.141.627.162.162 0 01.097.53L.009.546c.01.059.035.104.073.137A.211.211 0 00.224.73C.264.731.3.723.332.706a.179.179 0 00.102-.16C.434.513.425.485.409.46A.17.17 0 00.335.4.166.166 0 00.434.338.184.184 0 00.469.224.212.212 0 00.4.064.24.24 0 00.228 0 .218.218 0 000 .202z"/></symbol><symbol id="B"><path d="M0 0v.716h.095V0H0z"/></symbol><symbol id="C"><path d="M.078 0v.45H0V.52h.078v.055c0 .035.003.06.009.077A.112.112 0 00.13.707a.16.16 0 00.09.021.43.43 0 00.082-.009L.29.643a.295.295 0 01-.052.004C.212.647.193.642.182.63.17.62.165.598.165.566V.52h.101V.45H.165V0H.078z"/></symbol><symbol id="D"><path d="M.24.085L.253.008A.326.326 0 00.187 0a.15.15 0 00-.075.015.085.085 0 00-.037.04.317.317 0 00-.01.104v.298H0v.068h.064v.129l.088.053V.525H.24V.457H.152V.154c0-.025.001-.041.004-.049A.038.038 0 01.171.088a.06.06 0 01.03-.006l.04.003z"/></symbol><symbol id="E"><path d="M.046.01l-.01.083a.196.196 0 01.05-.008c.02 0 .036.004.047.01a.08.08 0 01.03.028.431.431 0 01.034.086L0 .73h.095l.108-.3C.217.39.229.35.24.309c.01.04.022.08.036.118l.111.302h.088L.278.202a1.035 1.035 0 00-.05-.118.171.171 0 00-.053-.063A.126.126 0 00.103 0a.176.176 0 00-.057.01z"/></symbol><symbol id="F"><path d="M.082.012H0v.716h.088V.472c.037.047.084.07.142.07a.214.214 0 00.09-.02.18.18 0 00.07-.054.256.256 0 00.044-.084A.347.347 0 00.45.28.296.296 0 00.384.073.206.206 0 00.226 0a.165.165 0 00-.144.077V.012M.08.275A.27.27 0 01.106.14C.134.095.171.072.218.072c.039 0 .072.017.1.05.028.034.042.083.042.15 0 .067-.014.117-.04.15A.122.122 0 01.221.47a.126.126 0 01-.1-.05C.096.385.082.337.082.274z"/></symbol><use xlink:href="#x" transform="matrix(12 0 0 -12 4.88 74.317)"/><use xlink:href="#k" transform="matrix(12 0 0 -12 12.286 74.317)"/><use xlink:href="#l" transform="matrix(12 0 0 -12 14.532 74.317)"/><use xlink:href="#y" transform="matrix(12 0 0 -12 18.794 74.317)"/><use xlink:href="#u" transform="matrix(12 0 0 -12 26.972 74.458)"/><use xlink:href="#z" transform="matrix(12 0 0 -12 33.995 74.317)"/><use xlink:href="#n" transform="matrix(12 0 0 -12 40.275 74.458)"/><use xlink:href="#o" transform="matrix(12 0 0 -12 47.328 74.317)"/><use xlink:href="#p" transform="matrix(12 0 0 -12 51.335 74.317)"/><use xlink:href="#q" transform="matrix(12 0 0 -12 60.974 74.458)"/><use xlink:href="#r" transform="matrix(12 0 0 -12 67.98 74.317)"/><use xlink:href="#s" transform="matrix(12 0 0 -12 70.673 74.317)"/><use xlink:href="#t" transform="matrix(12 0 0 -12 72.775 74.317)"/><use xlink:href="#u" transform="matrix(12 0 0 -12 78.98 74.458)"/><use xlink:href="#v" transform="matrix(12 0 0 -12 85.622 74.458)"/><use xlink:href="#l" transform="matrix(12 0 0 -12 91.884 74.317)"/><use xlink:href="#A" transform="matrix(12 0 0 -12 4.536 130.341)"/><use xlink:href="#q" transform="matrix(12 0 0 -12 11.138 130.33)"/><use xlink:href="#k" transform="matrix(12 0 0 -12 18.466 130.19)"/><use xlink:href="#l" transform="matrix(12 0 0 -12 20.712 130.19)"/><use xlink:href="#B" transform="matrix(12 0 0 -12 25.167 130.19)"/><use xlink:href="#z" transform="matrix(12 0 0 -12 28.175 130.19)"/><use xlink:href="#C" transform="matrix(12 0 0 -12 34.168 130.19)"/><use xlink:href="#s" transform="matrix(12 0 0 -12 38.19 130.19)"/><use xlink:href="#z" transform="matrix(12 0 0 -12 40.847 130.19)"/><use xlink:href="#s" transform="matrix(12 0 0 -12 47.525 130.19)"/><use xlink:href="#D" transform="matrix(12 0 0 -12 49.603 130.271)"/><use xlink:href="#E" transform="matrix(12 0 0 -12 52.922 132.715)"/><use xlink:href="#l" transform="matrix(12 0 0 -12 58.728 130.19)"/><use xlink:href="#A" transform="matrix(12 0 0 -12 4.032 186.213)"/><use xlink:href="#F" transform="matrix(12 0 0 -12 10.985 186.202)"/><use xlink:href="#k" transform="matrix(12 0 0 -12 17.962 186.061)"/><use xlink:href="#l" transform="matrix(12 0 0 -12 20.208 186.061)"/><use xlink:href="#m" transform="matrix(12 0 0 -12 24.458 186.061)"/><use xlink:href="#q" transform="matrix(12 0 0 -12 32.642 186.202)"/><use xlink:href="#m" transform="matrix(12 0 0 -12 39.794 186.061)"/><use xlink:href="#l" transform="matrix(12 0 0 -12 47.544 186.061)"/><path d="M14.824 138.589h12v18h-12z" fill="#c6e6e9" fill-rule="evenodd"/><path stroke-width=".75" stroke-miterlimit="8" fill="none" stroke="#000" d="M14.824 138.59h12v18h-12z"/><symbol id="G"><path d="M.209.621v-.58h.14C.36.041.367.039.372.035A.018.018 0 00.377.021.02.02 0 00.371.006C.366.002.359 0 .35 0H.027c-.01 0-.016.002-.02.006A.02.02 0 000 .02c0 .006.002.01.006.014.005.004.012.006.021.006h.141v.523L.034.522A.057.057 0 00.02.52a.02.02 0 00-.014.005A.021.021 0 000 .54c0 .005.002.01.005.014a.047.047 0 00.016.008l.188.06z"/></symbol><use xlink:href="#G" transform="matrix(12 0 0 -12 18.16 152.39)"/><use xlink:href="#H" transform="matrix(12 0 0 -12 24.024 152.39)"/><path d="M110.824 138.589h12v18h-12z" fill="#eee" fill-rule="evenodd"/><path stroke-width=".75" stroke-miterlimit="8" fill="none" stroke="#000" d="M110.824 138.59h12v18h-12z"/><symbol id="I"><path d="M.376.372V.27A.322.322 0 00.313.06.154.154 0 00.19 0a.163.163 0 00-.123.055A.362.362 0 000 .27v.102C0 .46.021.53.063.582A.161.161 0 00.341.536.4.4 0 00.366.47a.401.401 0 00.01-.098M.336.366a.34.34 0 01-.054.188A.117.117 0 01.188.6C.142.6.106.578.08.53A.332.332 0 01.041.366v-.09A.353.353 0 01.095.087.115.115 0 01.189.041c.046 0 .081.023.107.07.026.048.04.102.04.165v.09z"/></symbol><use xlink:href="#I" transform="matrix(12 0 0 -12 114.166 152.565)"/><use xlink:href="#H" transform="matrix(12 0 0 -12 120.024 152.39)"/><path d="M26.824 138.589h12v18h-12z" fill="#c6e6e9" fill-rule="evenodd"/><path stroke-width=".75" stroke-miterlimit="8" fill="none" stroke="#000" d="M26.824 138.59h12v18h-12z"/><use xlink:href="#G" transform="matrix(12 0 0 -12 30.16 152.39)"/><use xlink:href="#H" transform="matrix(12 0 0 -12 36.024 152.39)"/><path d="M38.824 138.589h12v18h-12z" fill="#c6e6e9" fill-rule="evenodd"/><path stroke-width=".75" stroke-miterlimit="8" fill="none" stroke="#000" d="M38.824 138.59h12v18h-12z"/><use xlink:href="#G" transform="matrix(12 0 0 -12 42.16 152.39)"/><use xlink:href="#H" transform="matrix(12 0 0 -12 48.024 152.39)"/><path d="M50.824 138.589h12v18h-12z" fill="#c6e6e9" fill-rule="evenodd"/><path stroke-width=".75" stroke-miterlimit="8" fill="none" stroke="#000" d="M50.824 138.59h12v18h-12z"/><use xlink:href="#G" transform="matrix(12 0 0 -12 54.16 152.39)"/><use xlink:href="#H" transform="matrix(12 0 0 -12 60.024 152.39)"/><path d="M62.824 138.589h12v18h-12z" fill="#c6e6e9" fill-rule="evenodd"/><path stroke-width=".75" stroke-miterlimit="8" fill="none" stroke="#000" d="M62.824 138.59h12v18h-12z"/><use xlink:href="#G" transform="matrix(12 0 0 -12 66.16 152.39)"/><use xlink:href="#H" transform="matrix(12 0 0 -12 72.024 152.39)"/><path d="M74.824 138.589h12v18h-12z" fill="#c6e6e9" fill-rule="evenodd"/><path stroke-width=".75" stroke-miterlimit="8" fill="none" stroke="#000" d="M74.824 138.59h12v18h-12z"/><use xlink:href="#G" transform="matrix(12 0 0 -12 78.16 152.39)"/><use xlink:href="#H" transform="matrix(12 0 0 -12 84.024 152.39)"/><path d="M86.824 138.589h12v18h-12z" fill="#c6e6e9" fill-rule="evenodd"/><path stroke-width=".75" stroke-miterlimit="8" fill="none" stroke="#000" d="M86.824 138.59h12v18h-12z"/><use xlink:href="#G" transform="matrix(12 0 0 -12 90.16 152.39)"/><use xlink:href="#H" transform="matrix(12 0 0 -12 96.024 152.39)"/><path d="M98.824 138.589h12v18h-12z" fill="#c6e6e9" fill-rule="evenodd"/><path stroke-width=".75" stroke-miterlimit="8" fill="none" stroke="#000" d="M98.824 138.59h12v18h-12z"/><use xlink:href="#G" transform="matrix(12 0 0 -12 102.16 152.39)"/><use xlink:href="#H" transform="matrix(12 0 0 -12 108.024 152.39)"/><path d="M122.824 138.589h12v18h-12z" fill="#eee" fill-rule="evenodd"/><path stroke-width=".75" stroke-miterlimit="8" fill="none" stroke="#000" d="M122.824 138.59h12v18h-12z"/><use xlink:href="#I" transform="matrix(12 0 0 -12 126.166 152.565)"/><use xlink:href="#H" transform="matrix(12 0 0 -12 132.024 152.39)"/><path d="M134.824 138.589h12v18h-12z" fill="#eee" fill-rule="evenodd"/><path stroke-width=".75" stroke-miterlimit="8" fill="none" stroke="#000" d="M134.824 138.59h12v18h-12z"/><use xlink:href="#I" transform="matrix(12 0 0 -12 138.166 152.565)"/><use xlink:href="#H" transform="matrix(12 0 0 -12 144.024 152.39)"/><path d="M146.824 138.589h12v18h-12z" fill="#eee" fill-rule="evenodd"/><path stroke-width=".75" stroke-miterlimit="8" fill="none" stroke="#000" d="M146.824 138.59h12v18h-12z"/><use xlink:href="#I" transform="matrix(12 0 0 -12 150.166 152.565)"/><use xlink:href="#H" transform="matrix(12 0 0 -12 156.024 152.39)"/><path d="M158.824 138.589h12v18h-12z" fill="#eee" fill-rule="evenodd"/><path stroke-width=".75" stroke-miterlimit="8" fill="none" stroke="#000" d="M158.824 138.59h12v18h-12z"/><use xlink:href="#I" transform="matrix(12 0 0 -12 162.166 152.565)"/><use xlink:href="#H" transform="matrix(12 0 0 -12 168.024 152.39)"/><path d="M170.824 138.589h12v18h-12z" fill="#eee" fill-rule="evenodd"/><path stroke-width=".75" stroke-miterlimit="8" fill="none" stroke="#000" d="M170.824 138.59h12v18h-12z"/><use xlink:href="#I" transform="matrix(12 0 0 -12 174.166 152.565)"/><use xlink:href="#H" transform="matrix(12 0 0 -12 180.024 152.39)"/><path d="M182.824 138.589h12v18h-12z" fill="#eee" fill-rule="evenodd"/><path stroke-width=".75" stroke-miterlimit="8" fill="none" stroke="#000" d="M182.824 138.59h12v18h-12z"/><use xlink:href="#I" transform="matrix(12 0 0 -12 186.166 152.565)"/><use xlink:href="#H" transform="matrix(12 0 0 -12 192.024 152.39)"/><path d="M194.824 138.589h12v18h-12z" fill="#eee" fill-rule="evenodd"/><path stroke-width=".75" stroke-miterlimit="8" fill="none" stroke="#000" d="M194.824 138.59h12v18h-12z"/><use xlink:href="#I" transform="matrix(12 0 0 -12 198.166 152.565)"/><use xlink:href="#H" transform="matrix(12 0 0 -12 204.024 152.39)"/><path d="M206.824 138.589h12v18h-12z" fill="#eee" fill-rule="evenodd"/><path stroke-width=".75" stroke-miterlimit="8" fill="none" stroke="#000" d="M206.824 138.59h12v18h-12z"/><use xlink:href="#I" transform="matrix(12 0 0 -12 210.166 152.565)"/><use xlink:href="#H" transform="matrix(12 0 0 -12 216.024 152.39)"/><path d="M218.824 138.589h12v18h-12z" fill="#eee" fill-rule="evenodd"/><path stroke-width=".75" stroke-miterlimit="8" fill="none" stroke="#000" d="M218.824 138.59h12v18h-12z"/><use xlink:href="#I" transform="matrix(12 0 0 -12 222.166 152.565)"/><use xlink:href="#H" transform="matrix(12 0 0 -12 228.024 152.39)"/><path d="M230.824 138.589h12v18h-12z" fill="#eee" fill-rule="evenodd"/><path stroke-width=".75" stroke-miterlimit="8" fill="none" stroke="#000" d="M230.824 138.59h12v18h-12z"/><use xlink:href="#I" transform="matrix(12 0 0 -12 234.166 152.565)"/><use xlink:href="#H" transform="matrix(12 0 0 -12 240.024 152.39)"/><path d="M242.824 138.589h12v18h-12z" fill="#eee" fill-rule="evenodd"/><path stroke-width=".75" stroke-miterlimit="8" fill="none" stroke="#000" d="M242.824 138.59h12v18h-12z"/><use xlink:href="#I" transform="matrix(12 0 0 -12 246.166 152.565)"/><use xlink:href="#H" transform="matrix(12 0 0 -12 252.024 152.39)"/><path d="M254.824 138.589h12v18h-12z" fill="#eee" fill-rule="evenodd"/><path stroke-width=".75" stroke-miterlimit="8" fill="none" stroke="#000" d="M254.824 138.59h12v18h-12z"/><use xlink:href="#I" transform="matrix(12 0 0 -12 258.166 152.565)"/><use xlink:href="#H" transform="matrix(12 0 0 -12 264.024 152.39)"/><path d="M266.824 138.589h12v18h-12z" fill="#eee" fill-rule="evenodd"/><path stroke-width=".75" stroke-miterlimit="8" fill="none" stroke="#000" d="M266.824 138.59h12v18h-12z"/><use xlink:href="#I" transform="matrix(12 0 0 -12 270.166 152.565)"/><use xlink:href="#H" transform="matrix(12 0 0 -12 276.024 152.39)"/><path d="M278.824 138.589h12v18h-12z" fill="#eee" fill-rule="evenodd"/><path stroke-width=".75" stroke-miterlimit="8" fill="none" stroke="#000" d="M278.824 138.59h12v18h-12z"/><use xlink:href="#I" transform="matrix(12 0 0 -12 282.166 152.565)"/><use xlink:href="#H" transform="matrix(12 0 0 -12 288.024 152.39)"/><path d="M290.824 138.589h12v18h-12z" fill="#eee" fill-rule="evenodd"/><path stroke-width=".75" stroke-miterlimit="8" fill="none" stroke="#000" d="M290.824 138.59h12v18h-12z"/><use xlink:href="#I" transform="matrix(12 0 0 -12 294.166 152.565)"/><use xlink:href="#H" transform="matrix(12 0 0 -12 300.024 152.39)"/><path d="M302.824 138.589h12v18h-12z" fill="#eee" fill-rule="evenodd"/><path stroke-width=".75" stroke-miterlimit="8" fill="none" stroke="#000" d="M302.824 138.59h12v18h-12z"/><use xlink:href="#I" transform="matrix(12 0 0 -12 306.166 152.565)"/><use xlink:href="#H" transform="matrix(12 0 0 -12 312.024 152.39)"/><path d="M314.824 138.589h12v18h-12z" fill="#eee" fill-rule="evenodd"/><path stroke-width=".75" stroke-miterlimit="8" fill="none" stroke="#000" d="M314.824 138.59h12v18h-12z"/><use xlink:href="#I" transform="matrix(12 0 0 -12 318.166 152.565)"/><use xlink:href="#H" transform="matrix(12 0 0 -12 324.024 152.39)"/><path d="M326.824 138.589h12v18h-12z" fill="#eee" fill-rule="evenodd"/><path stroke-width=".75" stroke-miterlimit="8" fill="none" stroke="#000" d="M326.824 138.59h12v18h-12z"/><use xlink:href="#I" transform="matrix(12 0 0 -12 330.166 152.565)"/><use xlink:href="#H" transform="matrix(12 0 0 -12 336.024 152.39)"/><path d="M338.824 138.589h12v18h-12z" fill="#eee" fill-rule="evenodd"/><path stroke-width=".75" stroke-miterlimit="8" fill="none" stroke="#000" d="M338.824 138.59h12v18h-12z"/><use xlink:href="#I" transform="matrix(12 0 0 -12 342.166 152.565)"/><use xlink:href="#H" transform="matrix(12 0 0 -12 348.024 152.39)"/><path d="M350.824 138.589h12v18h-12z" fill="#eee" fill-rule="evenodd"/><path stroke-width=".75" stroke-miterlimit="8" fill="none" stroke="#000" d="M350.824 138.59h12v18h-12z"/><use xlink:href="#I" transform="matrix(12 0 0 -12 354.166 152.565)"/><use xlink:href="#H" transform="matrix(12 0 0 -12 360.024 152.39)"/><path d="M362.824 138.589h12v18h-12z" fill="#eee" fill-rule="evenodd"/><path stroke-width=".75" stroke-miterlimit="8" fill="none" stroke="#000" d="M362.824 138.59h12v18h-12z"/><use xlink:href="#I" transform="matrix(12 0 0 -12 366.166 152.565)"/><use xlink:href="#H" transform="matrix(12 0 0 -12 372.024 152.39)"/><path d="M374.824 138.589h12v18h-12z" fill="#eee" fill-rule="evenodd"/><path stroke-width=".75" stroke-miterlimit="8" fill="none" stroke="#000" d="M374.824 138.59h12v18h-12z"/><use xlink:href="#I" transform="matrix(12 0 0 -12 378.166 152.565)"/><use xlink:href="#H" transform="matrix(12 0 0 -12 384.024 152.39)"/><path d="M15.324 192.589h12v18h-12z" fill="#c6e6e9" fill-rule="evenodd"/><path stroke-width=".75" stroke-miterlimit="8" fill="none" stroke="#000" d="M15.324 192.59h12v18h-12z"/><use xlink:href="#G" transform="matrix(12 0 0 -12 18.66 206.39)"/><use xlink:href="#H" transform="matrix(12 0 0 -12 24.524 206.39)"/><path d="M27.324 192.589h12v18h-12z" fill="#c6e6e9" fill-rule="evenodd"/><path stroke-width=".75" stroke-miterlimit="8" fill="none" stroke="#000" d="M27.324 192.59h12v18h-12z"/><use xlink:href="#G" transform="matrix(12 0 0 -12 30.66 206.39)"/><use xlink:href="#H" transform="matrix(12 0 0 -12 36.524 206.39)"/><path d="M39.324 192.589h12v18h-12z" fill="#c6e6e9" fill-rule="evenodd"/><path stroke-width=".75" stroke-miterlimit="8" fill="none" stroke="#000" d="M39.324 192.59h12v18h-12z"/><use xlink:href="#G" transform="matrix(12 0 0 -12 42.66 206.39)"/><use xlink:href="#H" transform="matrix(12 0 0 -12 48.524 206.39)"/><path d="M51.324 192.589h12v18h-12z" fill="#c6e6e9" fill-rule="evenodd"/><path stroke-width=".75" stroke-miterlimit="8" fill="none" stroke="#000" d="M51.324 192.59h12v18h-12z"/><use xlink:href="#G" transform="matrix(12 0 0 -12 54.66 206.39)"/><use xlink:href="#H" transform="matrix(12 0 0 -12 60.524 206.39)"/><path d="M63.324 192.589h12v18h-12z" fill="#c6e6e9" fill-rule="evenodd"/><path stroke-width=".75" stroke-miterlimit="8" fill="none" stroke="#000" d="M63.324 192.59h12v18h-12z"/><use xlink:href="#G" transform="matrix(12 0 0 -12 66.66 206.39)"/><use xlink:href="#H" transform="matrix(12 0 0 -12 72.524 206.39)"/><path d="M75.324 192.589h12v18h-12z" fill="#c6e6e9" fill-rule="evenodd"/><path stroke-width=".75" stroke-miterlimit="8" fill="none" stroke="#000" d="M75.324 192.59h12v18h-12z"/><use xlink:href="#G" transform="matrix(12 0 0 -12 78.66 206.39)"/><use xlink:href="#H" transform="matrix(12 0 0 -12 84.524 206.39)"/><path d="M87.324 192.589h12v18h-12z" fill="#c6e6e9" fill-rule="evenodd"/><path stroke-width=".75" stroke-miterlimit="8" fill="none" stroke="#000" d="M87.324 192.59h12v18h-12z"/><use xlink:href="#G" transform="matrix(12 0 0 -12 90.66 206.39)"/><use xlink:href="#H" transform="matrix(12 0 0 -12 96.524 206.39)"/><path d="M99.324 192.589h12v18h-12z" fill="#c6e6e9" fill-rule="evenodd"/><path stroke-width=".75" stroke-miterlimit="8" fill="none" stroke="#000" d="M99.324 192.59h12v18h-12z"/><use xlink:href="#G" transform="matrix(12 0 0 -12 102.66 206.39)"/><use xlink:href="#H" transform="matrix(12 0 0 -12 108.524 206.39)"/><path d="M15.324 84.589h12v18h-12z" fill="#c6e6e9" fill-rule="evenodd"/><path stroke-width=".75" stroke-miterlimit="8" fill="none" stroke="#000" d="M15.324 84.59h12v18h-12z"/><use xlink:href="#I" transform="matrix(12 0 0 -12 18.666 98.565)"/><use xlink:href="#H" transform="matrix(12 0 0 -12 24.524 98.39)"/><path d="M27.324 84.589h12v18h-12z" fill="#c6e6e9" fill-rule="evenodd"/><path stroke-width=".75" stroke-miterlimit="8" fill="none" stroke="#000" d="M27.324 84.59h12v18h-12z"/><use xlink:href="#I" transform="matrix(12 0 0 -12 30.666 98.565)"/><use xlink:href="#H" transform="matrix(12 0 0 -12 36.524 98.39)"/><path d="M39.324 84.589h12v18h-12z" fill="#c6e6e9" fill-rule="evenodd"/><path stroke-width=".75" stroke-miterlimit="8" fill="none" stroke="#000" d="M39.324 84.59h12v18h-12z"/><use xlink:href="#I" transform="matrix(12 0 0 -12 42.666 98.565)"/><use xlink:href="#H" transform="matrix(12 0 0 -12 48.524 98.39)"/><path d="M51.324 84.589h12v18h-12z" fill="#c6e6e9" fill-rule="evenodd"/><path stroke-width=".75" stroke-miterlimit="8" fill="none" stroke="#000" d="M51.324 84.59h12v18h-12z"/><use xlink:href="#I" transform="matrix(12 0 0 -12 54.666 98.565)"/><use xlink:href="#H" transform="matrix(12 0 0 -12 60.524 98.39)"/><path d="M63.324 84.589h12v18h-12z" fill="#c6e6e9" fill-rule="evenodd"/><path stroke-width=".75" stroke-miterlimit="8" fill="none" stroke="#000" d="M63.324 84.59h12v18h-12z"/><use xlink:href="#I" transform="matrix(12 0 0 -12 66.666 98.565)"/><use xlink:href="#H" transform="matrix(12 0 0 -12 72.524 98.39)"/><path d="M75.324 84.589h12v18h-12z" fill="#c6e6e9" fill-rule="evenodd"/><path stroke-width=".75" stroke-miterlimit="8" fill="none" stroke="#000" d="M75.324 84.59h12v18h-12z"/><use xlink:href="#I" transform="matrix(12 0 0 -12 78.666 98.565)"/><use xlink:href="#H" transform="matrix(12 0 0 -12 84.524 98.39)"/><path d="M87.324 84.589h12v18h-12z" fill="#c6e6e9" fill-rule="evenodd"/><path stroke-width=".75" stroke-miterlimit="8" fill="none" stroke="#000" d="M87.324 84.59h12v18h-12z"/><use xlink:href="#I" transform="matrix(12 0 0 -12 90.666 98.565)"/><use xlink:href="#H" transform="matrix(12 0 0 -12 96.524 98.39)"/><path d="M99.324 84.589h12v18h-12z" fill="#c6e6e9" fill-rule="evenodd"/><path stroke-width=".75" stroke-miterlimit="8" fill="none" stroke="#000" d="M99.324 84.59h12v18h-12z"/><use xlink:href="#I" transform="matrix(12 0 0 -12 102.666 98.565)"/><use xlink:href="#H" transform="matrix(12 0 0 -12 108.524 98.39)"/></svg>