<svg xmlns="http://www.w3.org/2000/svg" xmlns:xlink="http://www.w3.org/1999/xlink" width="524.267" height="244.164" viewBox="0 0 393.2 183.123"><path d="M-6.808 502.275h720v-540h-720z" fill="#fff"/><symbol id="a"><path d="M.034.092C.052.092.076.083.105.064A.15.15 0 01.18.037c.046 0 .08.015.102.046a.17.17 0 01.006.192C.258.319.207.342.135.342H.123L.109.34.108.353C.16.372.2.393.23.418c.03.024.045.057.045.097C.276.55.264.577.24.595A.132.132 0 01.065.584.302.302 0 01.017.519L0 .52C.014.571.04.61.074.64.11.67.151.684.197.684c.05 0 .088-.014.115-.04A.13.13 0 00.32.46a.312.312 0 00-.06-.05.252.252 0 00.076-.047.173.173 0 00.053-.13.221.221 0 00-.073-.163C.267.024.198 0 .108 0 .068 0 .04.006.024.018.008.03 0 .042 0 .056c0 .009.003.017.008.025.005.007.014.011.026.011z"/></symbol><symbol id="b"><path d="M.185.67L.187.668V.074c0-.025.007-.041.02-.048A.2.2 0 01.283.014V0H.007v.015c.04.002.065.007.077.016.012.009.018.028.018.057V.54a.085.085 0 01-.006.036C.092.584.084.588.071.588A.104.104 0 01.038.58.453.453 0 010 .566V.58l.18.09h.005z"/></symbol><use xlink:href="#a" transform="matrix(10 0 0 -10 6.626 28.223)"/><use xlink:href="#b" transform="matrix(10 0 0 -10 12.3 28.15)"/><use xlink:href="#c" transform="matrix(10 0 0 -10 16.192 28.15)"/><symbol id="d"><path d="M.23.027c.048 0 .081.027.1.079a.74.74 0 01.026.227c0 .08-.005.143-.016.19C.32.61.282.655.227.655.17.655.133.61.113.519a.907.907 0 01-.016-.19C.097.255.102.196.113.15.134.07.173.027.23.027M.23.681c.075 0 .133-.04.174-.118A.547.547 0 00.422.161C.384.055.318 0 .225 0a.187.187 0 00-.159.087A.43.43 0 000 .341c0 .084.015.156.044.217C.084.64.146.68.23.68z"/></symbol><use xlink:href="#a" transform="matrix(10 0 0 -10 18.626 28.223)"/><use xlink:href="#d" transform="matrix(10 0 0 -10 23.28 28.243)"/><use xlink:href="#c" transform="matrix(10 0 0 -10 28.192 28.15)"/><symbol id="e"><path d="M0 .011c.12.124.2.215.243.273a.287.287 0 01.064.17C.307.5.294.537.267.562a.129.129 0 01-.093.038.135.135 0 01-.108-.049A.283.283 0 01.022.47L.001.474C.017.55.045.601.083.63c.04.03.081.044.126.044a.178.178 0 00.185-.18A.255.255 0 00.338.34a3.322 3.322 0 00-.24-.264h.225c.031 0 .053.004.066.011a.146.146 0 01.043.055L.444.136.39 0H0v.011z"/></symbol><use xlink:href="#e" transform="matrix(10 0 0 -10 102.49 28.15)"/><use xlink:href="#a" transform="matrix(10 0 0 -10 107.626 28.223)"/><use xlink:href="#c" transform="matrix(10 0 0 -10 112.192 28.15)"/><use xlink:href="#e" transform="matrix(10 0 0 -10 114.49 28.15)"/><use xlink:href="#e" transform="matrix(10 0 0 -10 119.49 28.15)"/><use xlink:href="#c" transform="matrix(10 0 0 -10 124.192 28.15)"/><use xlink:href="#d" transform="matrix(10 0 0 -10 380.28 28.243)"/><use xlink:href="#c" transform="matrix(10 0 0 -10 385.192 28.15)"/><path d="M4.692 33.9h12v18h-12z" fill="#e4e4e4" fill-rule="evenodd"/><path stroke-width=".75" stroke-miterlimit="8" fill="none" stroke="#000" d="M4.692 33.9h12v18h-12z"/><symbol id="f"><path d="M.334.412c0 .01.002.016.006.02A.02.02 0 00.355.44.02.02 0 00.37.433C.374.428.376.42.376.41v-.07C.376.33.374.324.37.32A.02.02 0 00.355.313.02.02 0 00.341.32C.337.322.335.329.334.336a.065.065 0 01-.03.049.185.185 0 01-.106.027.179.179 0 01-.107-.028C.072.37.063.354.063.337c0-.02.01-.035.034-.048A.253.253 0 01.186.268.604.604 0 00.304.247a.148.148 0 00.07-.048.105.105 0 00.024-.065C.398.099.38.068.348.04.314.014.265 0 .2 0a.248.248 0 00-.159.05c0-.012 0-.019-.002-.022A.018.018 0 00.032.02.02.02 0 00.02.016a.02.02 0 00-.015.006C.002.027 0 .034 0 .043v.085c0 .01.002.017.005.02a.02.02 0 00.016.007A.02.02 0 00.035.15.02.02 0 00.042.133c0-.015.003-.028.01-.038A.125.125 0 01.108.056.246.246 0 01.199.041c.053 0 .093.01.119.03.026.02.039.04.039.063 0 .025-.013.046-.04.06a.302.302 0 01-.116.032.472.472 0 00-.11.02.111.111 0 00-.051.038A.09.09 0 00.02.34c0 .035.017.063.052.083.034.021.075.032.123.032A.218.218 0 00.334.412z"/></symbol><use xlink:href="#f" transform="matrix(12 0 0 -12 7.905 47.893)"/><use xlink:href="#g" transform="matrix(12 0 0 -12 13.892 47.7)"/><path d="M16.692 33.9h96v18h-96z" fill="#c6e6e9" fill-rule="evenodd"/><path stroke-width=".75" stroke-miterlimit="8" fill="none" stroke="#000" d="M16.692 33.9h96v18h-96z"/><symbol id="h"><path d="M.46.218H.041A.2.2 0 01.108.089.205.205 0 01.247.041a.334.334 0 01.178.055C.43.101.436.104.44.104.446.104.45.1.455.097A.02.02 0 00.46.083C.46.077.458.073.453.067A.221.221 0 00.369.02.366.366 0 00.247 0C.177 0 .117.023.07.069A.227.227 0 000 .236c0 .06.022.111.066.154A.227.227 0 00.23.454.222.222 0 00.46.218M.417.259a.178.178 0 01-.064.11.189.189 0 01-.124.043A.19.19 0 01.106.37.18.18 0 01.042.26h.376z"/></symbol><symbol id="i"><path d="M.279.221l.188-.18c.012 0 .02 0 .023-.002A.015.015 0 00.5.032.02.02 0 00.502.021.02.02 0 00.496.006C.492.002.485 0 .475 0H.343C.333 0 .326.002.32.006A.02.02 0 00.315.02c0 .006.002.01.006.014.005.004.012.006.022.006H.41L.25.194.092.04h.069C.17.041.177.039.18.035A.018.018 0 00.189.021.02.02 0 00.182.006C.177.002.17 0 .16 0H.027c-.01 0-.016.002-.02.006A.02.02 0 000 .02c0 .004.001.008.003.011A.018.018 0 00.012.04a.083.083 0 00.023.002l.188.18-.167.16c-.012 0-.02.001-.022.002a.021.021 0 00-.009.008.021.021 0 00-.003.011c0 .006.002.011.006.015C.033.421.04.423.05.423h.112c.01 0 .017-.002.02-.006A.02.02 0 00.19.402.02.02 0 00.183.387C.179.383.172.381.162.381h-.05L.252.248l.14.133H.34C.331.381.324.383.32.387a.02.02 0 00-.007.015c0 .006.003.011.007.015S.33.423.34.423h.112C.463.423.47.42.474.417A.02.02 0 00.477.391.018.018 0 00.468.383.072.072 0 00.446.381L.28.221z"/></symbol><symbol id="j"><path d="M.124.611V.537c.024.03.05.052.078.067a.207.207 0 00.1.022c.04 0 .077-.01.111-.028A.213.213 0 00.302.199a.214.214 0 00-.178.09V.04h.1C.232.041.24.039.243.036A.02.02 0 00.25.02.02.02 0 00.244.006C.24.002.233 0 .224 0H.026c-.01 0-.016.002-.02.006A.018.018 0 000 .02a.02.02 0 00.006.015C.011.039.018.04.027.04h.056V.57H.027c-.01 0-.016.002-.02.006A.02.02 0 000 .59C0 .597.002.6.006.605.011.61.018.611.027.611h.097M.479.413a.163.163 0 01-.052.12.172.172 0 01-.125.051.174.174 0 01-.127-.05.164.164 0 01-.051-.121A.174.174 0 01.302.24c.049 0 .09.016.125.05A.165.165 0 01.48.413z"/></symbol><use xlink:href="#h" transform="matrix(12 0 0 -12 54.642 47.893)"/><use xlink:href="#i" transform="matrix(12 0 0 -12 61.684 47.7)"/><use xlink:href="#j" transform="matrix(12 0 0 -12 68.556 49.962)"/><use xlink:href="#g" transform="matrix(12 0 0 -12 75.492 47.7)"/><path d="M112.692 33.9h276v18h-276z" fill="#eee" fill-rule="evenodd"/><path stroke-width=".75" stroke-miterlimit="8" fill="none" stroke="#000" d="M112.692 33.9h276v18h-276z"/><symbol id="k"><path d="M.168.381v-.34h.18C.358.041.365.039.37.035A.018.018 0 00.375.021.02.02 0 00.37.006C.365.002.358 0 .35 0H.026c-.01 0-.016.002-.02.006A.02.02 0 000 .02c0 .006.002.01.006.014.005.004.012.006.021.006h.1v.34h-.09c-.01 0-.016.002-.02.006A.02.02 0 00.01.402c0 .006.002.011.007.015.004.004.01.006.02.006h.09v.062c0 .034.013.064.041.09A.16.16 0 00.28.613c.039 0 .08-.004.124-.01C.42.598.43.595.434.592A.02.02 0 00.439.579.02.02 0 00.433.564.022.022 0 00.417.559L.404.56A.85.85 0 01.28.571.12.12 0 01.197.545a.08.08 0 01-.029-.06V.423H.36C.37.423.377.42.38.417A.02.02 0 00.388.402.02.02 0 00.381.387C.377.383.37.381.36.381H.168z"/></symbol><symbol id="l"><path d="M.167.423V.319c.054.049.094.08.12.093a.16.16 0 00.074.021.107.107 0 00.068-.025C.449.392.46.38.46.371A.021.021 0 00.454.355.02.02 0 00.44.35L.431.35a.083.083 0 00-.013.011.124.124 0 01-.03.024.055.055 0 01-.025.006.139.139 0 01-.065-.021.979.979 0 01-.13-.105V.04h.181C.36.041.366.039.371.035A.018.018 0 00.377.021.02.02 0 00.371.006C.366.002.359 0 .349 0H.027c-.01 0-.016.002-.02.005A.02.02 0 000 .02c0 .006.002.01.006.014S.017.04.027.04h.1V.38H.05C.04.381.034.383.03.387a.02.02 0 00-.007.015c0 .006.002.011.006.015.005.004.012.006.022.006h.116z"/></symbol><symbol id="m"><path d="M.348.016v.06A.292.292 0 00.157 0a.167.167 0 00-.115.037A.12.12 0 000 .13c0 .04.018.074.055.104.036.03.09.044.16.044A.75.75 0 00.347.262V.33C.348.35.338.37.316.387.296.404.264.412.223.412A.474.474 0 01.088.384.094.094 0 00.068.38a.019.019 0 00-.013.006A.02.02 0 00.049.4c0 .005.002.01.005.013a.488.488 0 00.17.04.176.176 0 00.122-.038.113.113 0 00.043-.086V.057h.055C.454.057.46.055.465.051A.018.018 0 00.472.037.02.02 0 00.465.022C.461.018.454.016.444.016H.348m0 .204a.39.39 0 01-.13.016A.225.225 0 01.08.198C.054.178.041.156.041.128A.08.08 0 01.07.067C.09.05.118.041.155.041c.035 0 .068.007.098.021A.36.36 0 01.348.13v.09z"/></symbol><symbol id="n"><path d="M.388.397v.014c0 .01.002.017.006.022a.02.02 0 00.014.006.02.02 0 00.015-.006C.427.428.43.42.43.41V.318C.43.308.427.301.423.297A.018.018 0 00.408.29a.02.02 0 00-.014.005C.39.3.388.306.388.315.386.338.37.36.342.38a.19.19 0 01-.115.031C.167.412.12.393.088.355a.2.2 0 01-.047-.13A.177.177 0 01.229.04c.031 0 .064.006.097.018.033.011.063.03.09.056.006.007.012.01.018.01.005 0 .01-.002.013-.006A.018.018 0 00.453.105C.453.091.437.074.403.052A.316.316 0 00.228 0a.223.223 0 00-.164.063.218.218 0 00-.063.16.224.224 0 00.23.23.231.231 0 00.158-.056z"/></symbol><use xlink:href="#k" transform="matrix(12 0 0 -12 237.152 47.7)"/><use xlink:href="#l" transform="matrix(12 0 0 -12 244.094 47.7)"/><use xlink:href="#m" transform="matrix(12 0 0 -12 251.136 47.893)"/><use xlink:href="#n" transform="matrix(12 0 0 -12 258.494 47.893)"/><use xlink:href="#g" transform="matrix(12 0 0 -12 264.692 47.7)"/><symbol id="o"><path d="M.434.233A.25.25 0 00.376.072.181.181 0 00.227 0C.17 0 .117.027.07.08A.314.314 0 000 .296C0 .41.046.508.137.59A.413.413 0 00.41.694L.414.678a.478.478 0 01-.106-.03A.252.252 0 01.23.593.418.418 0 01.12.397c.02.012.038.021.053.027A.21.21 0 00.25.44.175.175 0 00.38.386C.417.35.435.3.435.233M.344.195a.303.303 0 01-.02.116C.3.367.262.395.208.395.158.395.124.38.107.35A.193.193 0 01.092.262c0-.053.012-.105.034-.156C.149.056.185.03.233.03.273.03.3.046.318.08a.245.245 0 01.026.115z"/></symbol><use xlink:href="#o" transform="matrix(10 0 0 -10 6.534 107.382)"/><use xlink:href="#a" transform="matrix(10 0 0 -10 11.626 107.348)"/><use xlink:href="#c" transform="matrix(10 0 0 -10 16.192 107.275)"/><use xlink:href="#o" transform="matrix(10 0 0 -10 18.534 107.382)"/><use xlink:href="#e" transform="matrix(10 0 0 -10 23.49 107.275)"/><use xlink:href="#c" transform="matrix(10 0 0 -10 28.192 107.275)"/><symbol id="p"><path d="M.043.1C.062.1.086.09.116.068c.03-.02.053-.03.07-.03.037 0 .07.016.098.048a.183.183 0 01.042.122C.326.293.28.354.19.391a.367.367 0 01-.153.03.02.02 0 00-.006.006l.001.007.002.005.107.233h.21c.01 0 .017.002.023.006a.12.12 0 01.022.02L.405.69.367.6C.366.598.362.596.357.595a.173.173 0 00-.02-.001H.148L.107.508A.892.892 0 00.224.482a.264.264 0 00.102-.06.237.237 0 00.071-.17.237.237 0 00-.077-.18A.272.272 0 00.126 0a.262.262 0 00-.077.01C.016.02 0 .036 0 .062c0 .01.003.019.01.026C.017.096.028.1.043.1z"/></symbol><use xlink:href="#p" transform="matrix(10 0 0 -10 138.51 107.382)"/><use xlink:href="#e" transform="matrix(10 0 0 -10 143.49 107.275)"/><use xlink:href="#c" transform="matrix(10 0 0 -10 148.192 107.275)"/><use xlink:href="#p" transform="matrix(10 0 0 -10 150.51 107.382)"/><use xlink:href="#b" transform="matrix(10 0 0 -10 156.3 107.275)"/><use xlink:href="#c" transform="matrix(10 0 0 -10 160.192 107.275)"/><path d="M4.692 111.9h12v18h-12z" fill="#e4e4e4" fill-rule="evenodd"/><path stroke-width=".75" stroke-miterlimit="8" fill="none" stroke="#000" d="M4.692 111.9h12v18h-12z"/><use xlink:href="#f" transform="matrix(12 0 0 -12 7.905 125.893)"/><use xlink:href="#g" transform="matrix(12 0 0 -12 13.892 125.7)"/><path d="M16.692 111.9h132v18h-132z" fill="#c6e6e9" fill-rule="evenodd"/><path stroke-width=".75" stroke-miterlimit="8" fill="none" stroke="#000" d="M16.692 111.9h132v18h-132z"/><use xlink:href="#h" transform="matrix(12 0 0 -12 72.642 125.893)"/><use xlink:href="#i" transform="matrix(12 0 0 -12 79.684 125.7)"/><use xlink:href="#j" transform="matrix(12 0 0 -12 86.556 127.962)"/><use xlink:href="#g" transform="matrix(12 0 0 -12 93.492 125.7)"/><path d="M148.692 111.9h239.5v18h-239.5z" fill="#eee" fill-rule="evenodd"/><path stroke-width=".75" stroke-miterlimit="8" fill="none" stroke="#000" d="M148.692 111.9h239.5v18h-239.5z"/><use xlink:href="#k" transform="matrix(12 0 0 -12 234.152 125.7)"/><use xlink:href="#l" transform="matrix(12 0 0 -12 241.094 125.7)"/><use xlink:href="#m" transform="matrix(12 0 0 -12 248.136 125.893)"/><use xlink:href="#n" transform="matrix(12 0 0 -12 255.494 125.893)"/><use xlink:href="#g" transform="matrix(12 0 0 -12 261.692 125.7)"/><symbol id="q"><path d="M0 .43c0 .112.034.212.102.298.041.052.09.094.147.126l.01-.016A.446.446 0 01.145.716a.55.55 0 01-.06-.274c0-.085.008-.155.023-.21A.361.361 0 01.26.016L.245 0a.417.417 0 00-.13.113A.481.481 0 000 .429z"/></symbol><symbol id="r"><path d="M.109.414a.052.052 0 00-.017-.04.055.055 0 00-.038-.015.05.05 0 00-.039.016.055.055 0 000 .077c.011.01.024.016.039.016A.054.054 0 00.092.452.049.049 0 00.109.414M.052 0a.05.05 0 00-.036.016.054.054 0 00-.016.04C0 .07.005.082.016.092A.05.05 0 00.054.11a.056.056 0 00.04-.016.05.05 0 00.017-.038.055.055 0 00-.016-.039A.056.056 0 00.052 0z"/></symbol><symbol id="s"><path d="M.258.424a.487.487 0 00-.074-.26A.482.482 0 00.009 0L0 .016c.05.038.087.077.11.117A.55.55 0 01.17.412.77.77 0 01.143.64.367.367 0 010 .838l.013.016a.474.474 0 00.143-.13.482.482 0 00.102-.3z"/></symbol><use xlink:href="#q" transform="matrix(12 0 0 -12 269.443 127.839)"/><use xlink:href="#p" transform="matrix(12 0 0 -12 273.269 125.829)"/><use xlink:href="#b" transform="matrix(12 0 0 -12 280.218 125.7)"/><use xlink:href="#r" transform="matrix(12 0 0 -12 285.855 125.8)"/><use xlink:href="#a" transform="matrix(12 0 0 -12 288.745 125.788)"/><use xlink:href="#e" transform="matrix(12 0 0 -12 294.581 125.7)"/><use xlink:href="#s" transform="matrix(12 0 0 -12 300.54 127.839)"/><use xlink:href="#c" transform="matrix(12 0 0 -12 304.22 125.7)"/><symbol id="t"><path d="M.023.214a.36.36 0 01.06-.107.187.187 0 01.147-.07c.032 0 .06.01.083.03.023.02.035.049.035.085 0 .032-.012.06-.035.085a.621.621 0 01-.097.069L.131.359a.306.306 0 00-.062.05.153.153 0 00-.042.104c0 .05.017.092.05.126a.18.18 0 00.133.05C.233.689.26.683.292.672A.36.36 0 01.348.655c.012 0 .02.003.025.01a.061.061 0 01.011.024h.02L.428.476H.403C.387.54.36.585.324.61a.184.184 0 01-.106.038.112.112 0 01-.072-.024.08.08 0 01-.03-.067C.116.531.124.51.139.491A.302.302 0 01.212.433L.3.38A.454.454 0 00.416.286.161.161 0 00.449.184.168.168 0 00.39.053.219.219 0 00.24 0 .297.297 0 00.14.018a.363.363 0 01-.058.017C.072.035.063.032.06.025A.071.071 0 01.052 0H.03L0 .214h.023M.237.69z"/></symbol><symbol id="u"><path d="M.063.63a.05.05 0 00.014.037c.01.01.022.015.036.015A.048.048 0 00.15.667.048.048 0 00.164.63.05.05 0 00.15.594.049.049 0 00.113.58a.05.05 0 00-.05.05M0 .014C.035.017.057.023.066.03.075.04.08.063.08.101v.233a.148.148 0 01-.005.044C.07.392.06.398.045.398A.648.648 0 01.004.39v.016l.02.007a1.769 1.769 0 01.137.047L.163.452v-.35c0-.038.004-.06.013-.07.01-.01.03-.016.061-.018V0H0v.014z"/></symbol><symbol id="v"><path d="M.002.014C.025.017.042.022.05.03.06.04.064.059.064.089v.247C.064.357.062.372.06.38.052.393.039.4.02.4A.093.093 0 010 .397v.017l.095.03L.14.46C.143.46.144.46.145.457V.378a.5.5 0 00.07.058.147.147 0 00.08.024.104.104 0 00.06-.02C.391.417.408.373.408.31V.08C.408.057.413.04.422.03.432.02.448.014.47.014V0H.26v.014c.024.003.04.01.05.02.01.01.014.03.014.064v.209A.138.138 0 01.31.376C.3.395.28.404.252.404a.107.107 0 01-.059-.02A.336.336 0 01.15.347V.074C.15.05.156.034.166.026.176.02.193.014.216.014V0H.001v.014M.234.46z"/></symbol><symbol id="w"><path d="M.072.127C.072.1.087.081.118.071A.331.331 0 01.224.055a.27.27 0 01.131.028c.034.02.051.042.051.07 0 .021-.013.036-.04.043a.501.501 0 01-.097.007 1.758 1.758 0 00-.11.007.624.624 0 00-.035.006C.12.216.111.206.095.186A.099.099 0 01.072.126m.063.255a.129.129 0 00-.07.052.152.152 0 00-.023.085c0 .038.015.074.045.108S.16.678.215.678C.24.678.265.673.294.661A.229.229 0 01.376.645a1.414 1.414 0 01.061.001h.006v-.04H.36A.42.42 0 00.373.571.191.191 0 00.38.517.143.143 0 00.334.415.167.167 0 00.21.368a.381.381 0 00-.043.005C.157.373.145.365.129.349.114.333.106.319.106.309.106.3.117.293.14.288A.235.235 0 01.19.282C.274.282.33.277.36.268.41.252.434.219.434.168.434.119.405.077.348.047A.365.365 0 00.174 0a.218.218 0 00-.127.033C.016.054 0 .077 0 .1a.06.06 0 00.012.034.443.443 0 00.05.05l.032.029L.1.22a.151.151 0 00-.034.017C.053.247.046.258.046.27c0 .013.006.026.017.04a.65.65 0 00.072.07m.093.01c.018 0 .033.005.045.015.02.016.03.043.03.082 0 .03-.009.066-.025.104C.263.631.236.65.2.65.168.65.146.635.134.605a.202.202 0 01.02-.166C.172.407.196.392.227.392M.224.678z"/></symbol><symbol id="x"><path d="M.002.014c.03.003.051.009.062.018.01.01.016.027.016.054v.477a.125.125 0 01-.005.045c-.007.014-.02.02-.04.02L.02.627A.425.425 0 010 .623v.016C.044.65.097.666.159.686.16.686.162.685.163.683a.05.05 0 000-.013V.084C.164.056.169.038.179.03c.01-.008.03-.013.06-.015V0H.003v.014z"/></symbol><symbol id="y"><path d="M.21.47A.172.172 0 00.33.422C.365.39.382.345.382.287h-.31C.075.212.092.157.123.122A.143.143 0 01.233.07c.034 0 .063.01.086.027a.27.27 0 01.065.076L.401.167A.277.277 0 00.326.053.186.186 0 00.192 0 .165.165 0 00.05.07.267.267 0 000 .228c0 .065.02.122.058.17.039.047.09.07.151.07M.181.435a.093.093 0 01-.085-.05.194.194 0 01-.022-.066H.28A.203.203 0 01.26.391C.245.42.22.434.181.434M.203.47z"/></symbol><symbol id="A"><path d="M.155.308a.1.1 0 01.038-.05.109.109 0 01.06-.016c.035 0 .065.017.09.052A.249.249 0 01.38.44C.38.5.367.545.34.575a.116.116 0 01-.089.044.107.107 0 01-.066-.022C.165.582.155.567.155.553V.308M0 .016c.03.002.05.009.058.02.009.01.013.028.013.052v.469C.07.58.068.597.06.604.057.611.045.614.029.614A.103.103 0 01.004.613v.016l.047.016.098.033c.002 0 .003 0 .003-.002A.008.008 0 00.154.67V.604c.021.021.04.037.056.048C.24.67.27.679.3.679.347.68.385.66.418.622A.233.233 0 00.465.465.292.292 0 00.407.288.175.175 0 00.213.215a.141.141 0 00-.058.037v-.16C.155.06.161.04.171.033a.162.162 0 01.07-.015V0H0v.016z"/></symbol><symbol id="B"><path d="M0 .016C.03.02.05.024.06.032.07.04.074.057.074.083v.22a.182.182 0 01-.01.07C.06.385.049.392.033.392A.18.18 0 01.002.39v.016A77.612 77.612 0 00.1.439.88.88 0 01.15.46C.153.46.154.46.154.458l.001-.01v-.08c.021.029.041.051.06.068.02.016.04.024.06.024C.293.46.307.455.317.445A.049.049 0 00.332.408.049.049 0 00.32.374.038.038 0 00.29.36C.278.36.265.366.252.377.24.39.23.395.223.395.212.395.198.385.181.367A.084.084 0 01.156.31V.09c0-.028.007-.048.02-.059C.189.021.21.015.24.016V0H0v.016z"/></symbol><symbol id="C"><path d="M.226.47C.266.47.3.46.33.438.36.418.375.394.375.369.375.36.371.35.364.34.356.329.344.325.329.325A.044.044 0 00.3.337.069.069 0 00.28.37L.274.395C.27.412.263.424.252.43a.078.078 0 01-.042.01.116.116 0 01-.094-.048.203.203 0 01-.038-.13C.078.216.092.17.12.132A.134.134 0 01.234.073c.034 0 .064.01.09.033a.31.31 0 01.051.06L.389.159A.387.387 0 00.33.065.18.18 0 00.193 0C.143 0 .098.02.06.06A.224.224 0 000 .223c0 .068.021.125.064.174A.206.206 0 00.226.47m-.022 0z"/></symbol><symbol id="D"><path d="M.001.163h.016a.255.255 0 01.03-.085.11.11 0 01.1-.055.08.08 0 01.058.02.07.07 0 01.022.053.072.072 0 01-.013.04.125.125 0 01-.043.036L.117.204a.312.312 0 00-.089.065A.114.114 0 000 .346c0 .036.013.066.04.09A.141.141 0 00.136.47.188.188 0 00.194.46.269.269 0 01.229.45c.006 0 .01.001.013.003A.02.02 0 01.249.46H.26L.264.325H.249A.226.226 0 01.222.4a.097.097 0 01-.087.049.07.07 0 01-.073-.07c0-.03.022-.057.067-.08L.193.262C.263.225.297.18.297.13A.118.118 0 00.254.037.168.168 0 00.14 0a.264.264 0 00-.066.01.3.3 0 01-.044.01.014.014 0 01-.01-.005.026.026 0 01-.007-.01H0v.158m.143.308z"/></symbol><symbol id="E"><path d="M0 .242c0 .064.02.12.062.164A.207.207 0 00.22.473.217.217 0 00.38.41.228.228 0 00.444.24.251.251 0 00.383.073.2.2 0 00.223 0a.21.21 0 00-.158.069A.242.242 0 000 .242m.207.202A.097.097 0 01.14.418C.108.388.091.338.091.265c0-.058.013-.112.04-.162C.156.053.192.028.24.028c.036 0 .064.017.084.05.02.034.03.078.03.132a.35.35 0 01-.038.16C.29.418.255.443.207.443m.018.03z"/></symbol><use xlink:href="#t" transform="matrix(12 0 0 -12 6.89 14.786)"/><use xlink:href="#u" transform="matrix(12 0 0 -12 13.298 14.628)"/><use xlink:href="#v" transform="matrix(12 0 0 -12 16.593 14.628)"/><use xlink:href="#w" transform="matrix(12 0 0 -12 22.716 17.241)"/><use xlink:href="#x" transform="matrix(12 0 0 -12 28.617 14.628)"/><use xlink:href="#y" transform="matrix(12 0 0 -12 31.97 14.769)"/><use xlink:href="#z" transform="matrix(12 0 0 -12 37.064 14.628)"/><use xlink:href="#A" transform="matrix(12 0 0 -12 40.117 17.241)"/><use xlink:href="#B" transform="matrix(12 0 0 -12 46.117 14.628)"/><use xlink:href="#y" transform="matrix(12 0 0 -12 50.294 14.769)"/><use xlink:href="#C" transform="matrix(12 0 0 -12 55.663 14.74)"/><use xlink:href="#u" transform="matrix(12 0 0 -12 60.95 14.628)"/><use xlink:href="#D" transform="matrix(12 0 0 -12 64.661 14.74)"/><use xlink:href="#u" transform="matrix(12 0 0 -12 68.954 14.628)"/><use xlink:href="#E" transform="matrix(12 0 0 -12 72.36 14.81)"/><use xlink:href="#v" transform="matrix(12 0 0 -12 78.25 14.628)"/><use xlink:href="#c" transform="matrix(12 0 0 -12 84.056 14.628)"/><symbol id="F"><path d="M.19.077C.19.061.192.05.2.045.21.04.226.037.251.037c.078 0 .142.016.193.046C.52.131.56.213.56.327.56.43.528.507.464.56a.335.335 0 01-.217.066.098.098 0 01-.046-.007C.193.613.19.602.19.585V.077M0 .018c.036.004.06.01.071.02.011.009.017.033.017.07v.445c0 .037-.005.06-.016.07C.06.635.037.64 0 .644v.019h.27C.36.662.437.647.5.617.613.563.67.467.67.329.67.279.66.23.64.187A.31.31 0 00.466.029.547.547 0 00.276 0H0v.018z"/></symbol><symbol id="G"><path d="M.146.461V.15c0-.022.003-.04.01-.053C.166.07.188.059.221.059c.022 0 .043.007.065.022a.19.19 0 01.036.033v.268c0 .025-.005.041-.014.05C.299.438.279.443.25.444v.016h.158V.118C.408.096.412.08.419.072.428.064.444.06.47.06V.047A1.412 1.412 0 01.333.002C.33.002.33.002.33.004a.02.02 0 000 .005v.079A.33.33 0 00.268.029.15.15 0 00.18 0 .126.126 0 00.1.03C.075.05.062.083.062.13v.254C.063.41.058.427.046.436.039.442.023.446 0 .448V.46h.146m.096.006z"/></symbol><symbol id="H"><path d="M0 .63v.017a.92.92 0 01.148.044V.388c.01.015.022.03.039.044A.16.16 0 00.413.408a.236.236 0 00.05-.157.257.257 0 00-.065-.177A.221.221 0 00.225 0a.278.278 0 00-.107.021C.083.036.066.051.066.064v.517c0 .018-.003.032-.008.04S.041.633.022.633L0 .63M.147.08C.15.065.163.052.185.045a.198.198 0 01.06-.01c.045 0 .078.016.1.05a.223.223 0 01.033.124c0 .049-.01.094-.03.135a.104.104 0 01-.1.062A.124.124 0 01.18.383C.158.37.147.351.147.33V.08z"/></symbol><use xlink:href="#F" transform="matrix(12 0 0 -12 7.581 93.756)"/><use xlink:href="#E" transform="matrix(12 0 0 -12 16.357 93.938)"/><use xlink:href="#G" transform="matrix(12 0 0 -12 22.157 93.867)"/><use xlink:href="#H" transform="matrix(12 0 0 -12 28.093 93.867)"/><use xlink:href="#x" transform="matrix(12 0 0 -12 34.269 93.756)"/><use xlink:href="#y" transform="matrix(12 0 0 -12 37.622 93.897)"/><use xlink:href="#z" transform="matrix(12 0 0 -12 42.716 93.756)"/><use xlink:href="#A" transform="matrix(12 0 0 -12 45.769 96.37)"/><use xlink:href="#B" transform="matrix(12 0 0 -12 51.769 93.756)"/><use xlink:href="#y" transform="matrix(12 0 0 -12 55.946 93.897)"/><use xlink:href="#C" transform="matrix(12 0 0 -12 61.315 93.867)"/><use xlink:href="#u" transform="matrix(12 0 0 -12 66.602 93.756)"/><use xlink:href="#D" transform="matrix(12 0 0 -12 70.313 93.867)"/><use xlink:href="#u" transform="matrix(12 0 0 -12 74.606 93.756)"/><use xlink:href="#E" transform="matrix(12 0 0 -12 78.013 93.938)"/><use xlink:href="#v" transform="matrix(12 0 0 -12 83.901 93.756)"/><use xlink:href="#c" transform="matrix(12 0 0 -12 89.708 93.756)"/><path d="M4.692 160.275h384v19.25h-384z" fill="#eee" fill-rule="evenodd"/><path stroke-width=".75" stroke-miterlimit="8" fill="none" stroke="#000" d="M4.692 160.275h384v19.25h-384z"/><use xlink:href="#k" transform="matrix(12 0 0 -12 165.152 174.7)"/><use xlink:href="#l" transform="matrix(12 0 0 -12 172.094 174.7)"/><use xlink:href="#m" transform="matrix(12 0 0 -12 179.136 174.893)"/><use xlink:href="#n" transform="matrix(12 0 0 -12 186.494 174.893)"/><use xlink:href="#g" transform="matrix(12 0 0 -12 192.692 174.7)"/><use xlink:href="#q" transform="matrix(12 0 0 -12 200.443 176.839)"/><use xlink:href="#a" transform="matrix(12 0 0 -12 204.41 174.788)"/><use xlink:href="#b" transform="matrix(12 0 0 -12 211.218 174.7)"/><use xlink:href="#r" transform="matrix(12 0 0 -12 216.855 174.8)"/><use xlink:href="#d" transform="matrix(12 0 0 -12 219.33 174.811)"/><use xlink:href="#s" transform="matrix(12 0 0 -12 225.54 176.839)"/><use xlink:href="#c" transform="matrix(12 0 0 -12 229.22 174.7)"/><use xlink:href="#a" transform="matrix(10 0 0 -10 6.626 155.348)"/><use xlink:href="#b" transform="matrix(10 0 0 -10 12.3 155.275)"/><use xlink:href="#c" transform="matrix(10 0 0 -10 16.192 155.275)"/><use xlink:href="#d" transform="matrix(10 0 0 -10 380.28 155.368)"/><use xlink:href="#c" transform="matrix(10 0 0 -10 385.192 155.275)"/><use xlink:href="#a" transform="matrix(10 0 0 -10 378.626 107.348)"/><use xlink:href="#e" transform="matrix(10 0 0 -10 383.49 107.275)"/><use xlink:href="#c" transform="matrix(10 0 0 -10 388.192 107.275)"/></svg>