<svg xmlns="http://www.w3.org/2000/svg" xmlns:xlink="http://www.w3.org/1999/xlink" width="532.723" height="239.936" viewBox="0 0 399.542 179.952"><path d="M-76.569 434.099h720v-540h-720z" fill="#fff"/><path stroke-width="2" stroke-linejoin="round" fill="none" stroke="#000" d="M157.431 65.35v106M152.431 172.349h10M152.431 118.349h10M152.431 64.349h10"/><symbol id="a"><path d="M0 .339c0 .075.011.14.034.195a.273.273 0 00.091.122c.03.02.06.031.09.031C.268.688.313.662.354.61A.41.41 0 00.428.35.514.514 0 00.395.152.26.26 0 00.31.036.173.173 0 00.21 0C.149 0 .096.037.054.112A.455.455 0 000 .339M.096.327c0-.091.01-.166.033-.223C.148.055.176.03.212.03.23.03.248.039.267.054a.152.152 0 01.043.08.965.965 0 01.023.237.648.648 0 01-.024.189.168.168 0 01-.045.08.077.077 0 01-.107-.014.249.249 0 01-.049-.128A1.185 1.185 0 01.096.327z"/></symbol><symbol id="c"><path d="M.437.127L.391 0H0v.018c.115.105.196.19.243.257.047.066.07.127.07.182a.144.144 0 01-.039.104.123.123 0 01-.092.04.144.144 0 01-.088-.029A.165.165 0 01.037.49H.02c.008.06.029.106.063.138a.176.176 0 00.126.049.186.186 0 00.134-.052.163.163 0 00.054-.122.236.236 0 00-.023-.1.663.663 0 00-.117-.168 3.477 3.477 0 00-.152-.16h.173c.035 0 .06.001.074.004a.099.099 0 01.038.015c.012.008.021.02.03.034h.018z"/></symbol><use xlink:href="#a" transform="matrix(18 0 0 -18 281.081 125.81)"/><use xlink:href="#b" transform="matrix(18 0 0 -18 289.431 125.599)"/><use xlink:href="#c" transform="matrix(18 0 0 -18 280.818 71.599)"/><symbol id="d"><path d="M.402.454L.436.087A1.3 1.3 0 01.57.274a.18.18 0 01.03.075.037.037 0 01-.005.019C.595.37.59.375.581.38a.06.06 0 00-.019.018.038.038 0 00-.005.02c0 .01.003.018.01.025a.04.04 0 00.03.01A.044.044 0 00.63.439a.054.054 0 00.015-.04.149.149 0 00-.008-.046A.557.557 0 00.58.243 1.783 1.783 0 00.392 0H.374L.342.338.14 0H.12C.116.139.109.249.098.33.093.362.085.384.073.394.065.403.053.406.036.406A.284.284 0 010 .403v.018l.14.033a.94.94 0 00.038-.25L.183.122l.2.33h.019z"/></symbol><use xlink:href="#d" transform="matrix(12 0 0 -12 289.636 66.34)"/><symbol id="e"><path d="M.517 0H0v.036h.517V0z"/></symbol><symbol id="f"><path d="M0 .597l.161.079h.016v-.56C.177.08.18.057.182.048a.037.037 0 01.02-.02A.164.164 0 01.26.017V0H.01v.018c.032 0 .052.003.061.008.01.005.016.011.02.019a.262.262 0 01.005.072v.357c0 .048-.002.08-.005.093A.038.038 0 01.079.59a.032.032 0 01-.021.007.13.13 0 01-.05-.015L0 .597z"/></symbol><use xlink:href="#e" transform="matrix(12 0 0 -12 297.33 63.545)"/><use xlink:href="#f" transform="matrix(12 0 0 -12 304.841 66.199)"/><use xlink:href="#b" transform="matrix(12 0 0 -12 309.435 66.199)"/><use xlink:href="#c" transform="matrix(18 0 0 -18 280.818 17.6)"/><use xlink:href="#d" transform="matrix(12 0 0 -12 289.636 12.34)"/><use xlink:href="#b" transform="matrix(12 0 0 -12 297.435 12.2)"/><symbol id="g"><path d="M.099.736V.293a.26.26 0 01.029-.13C.157.111.206.085.274.085c.083 0 .139.028.168.084C.458.2.466.241.466.293v.443h.099V.333A.466.466 0 00.529.13C.486.043.403 0 .282 0 .162 0 .08.043.036.13A.466.466 0 000 .333v.403h.099m.184 0z"/></symbol><symbol id="h"><path d="M0 .523h.083V.449a.21.21 0 00.17.086C.33.535.38.509.406.457A.276.276 0 00.426.335V0h-.09v.33a.178.178 0 01-.013.077C.307.439.279.456.238.456A.173.173 0 01.187.449.132.132 0 01.123.406.132.132 0 01.094.353a.37.37 0 01-.006-.08V0H0v.523m.207.013z"/></symbol><symbol id="i"><path d="M.084.184A.128.128 0 01.106.117C.13.088.167.074.222.074c.032 0 .06.007.086.021a.071.071 0 01.037.066c0 .023-.01.04-.03.051A.354.354 0 01.24.237L.17.255A.34.34 0 00.07.292a.11.11 0 00-.056.099c0 .05.017.09.053.12s.084.046.144.046c.079 0 .135-.023.17-.07A.15.15 0 00.414.393H.331a.102.102 0 01-.02.054C.29.47.254.48.204.48A.127.127 0 01.13.462a.06.06 0 01-.025-.05c0-.023.011-.04.034-.055A.202.202 0 01.195.336L.253.322A.45.45 0 00.38.277C.415.255.432.22.432.171a.161.161 0 00-.054-.12C.343.017.29 0 .218 0 .138 0 .083.018.051.053A.202.202 0 000 .184h.084m.13.372z"/></symbol><symbol id="j"><path d="M0 .52h.09V0H0v.52m0 .197h.09v-.1H0v.1z"/></symbol><symbol id="k"><path d="M.22.753a.19.19 0 00.107-.03.241.241 0 00.05-.05V.74h.081V.264A.35.35 0 00.43.106C.393.036.324 0 .223 0A.252.252 0 00.08.038C.042.063.02.103.016.156h.09A.1.1 0 01.13.102c.02-.02.051-.03.094-.03.067 0 .111.025.132.072a.401.401 0 01.017.15.172.172 0 00-.063-.06.211.211 0 00-.099-.02.21.21 0 00-.149.06C.021.316 0 .383 0 .475 0 .563.021.632.064.68a.2.2 0 00.155.073M.377.485c0 .065-.013.113-.04.144a.128.128 0 01-.102.047.126.126 0 01-.127-.087A.34.34 0 01.09.467C.09.408.102.363.126.333A.117.117 0 01.223.287c.063 0 .107.028.133.085.014.032.021.07.021.113M.23.757z"/></symbol><symbol id="l"><path d="M.247.553A.237.237 0 00.435.46.233.233 0 00.47.367.604.604 0 00.478.252H.094A.225.225 0 01.132.124C.155.092.192.076.24.076a.14.14 0 01.143.107H.47A.182.182 0 00.447.118a.205.205 0 00-.142-.11A.301.301 0 00.233 0a.22.22 0 00-.165.07.277.277 0 00-.068.2.3.3 0 00.068.205.226.226 0 00.18.078m.14-.231a.228.228 0 01-.026.091C.338.455.298.477.242.477A.133.133 0 01.14.433.164.164 0 01.097.322h.29M.24.554z"/></symbol><symbol id="m"><path d="M.093.274a.26.26 0 01.035-.14C.152.095.19.076.243.076a.12.12 0 01.1.052c.026.035.04.085.04.15 0 .067-.014.116-.041.147a.126.126 0 01-.1.048.133.133 0 01-.108-.05C.106.388.093.34.093.273M.225.55C.265.55.3.542.325.525A.236.236 0 00.38.475v.263h.084v-.72H.384v.073a.19.19 0 00-.072-.07A.208.208 0 00.215 0a.195.195 0 00-.151.073A.288.288 0 000 .27c0 .076.02.142.058.198.04.056.095.084.167.084z"/></symbol><use xlink:href="#g" transform="matrix(16 0 0 -16 327.884 69.904)"/><use xlink:href="#h" transform="matrix(16 0 0 -16 339.14 69.599)"/><use xlink:href="#i" transform="matrix(16 0 0 -16 347.52 69.92)"/><use xlink:href="#j" transform="matrix(16 0 0 -16 356.035 69.599)"/><use xlink:href="#k" transform="matrix(16 0 0 -16 359.032 73.138)"/><use xlink:href="#h" transform="matrix(16 0 0 -16 368.483 69.599)"/><use xlink:href="#l" transform="matrix(16 0 0 -16 376.91 69.896)"/><use xlink:href="#m" transform="matrix(16 0 0 -16 385.681 69.896)"/><use xlink:href="#n" transform="matrix(16 0 0 -16 394.14 69.599)"/><symbol id="o"><path d="M.582.717V.632H.34V0H.242v.632H0v.085h.582z"/></symbol><symbol id="p"><path d="M.096.523l.1-.412L.3.523h.098L.5.113l.107.41h.088L.543 0H.452L.345.405.242 0H.151L0 .523h.096z"/></symbol><symbol id="q"><path d="M.243.076c.058 0 .098.022.12.066a.33.33 0 01.033.147.262.262 0 01-.024.12C.347.455.305.48.244.48.19.48.151.46.127.42A.285.285 0 01.09.27C.09.215.103.168.127.13.151.094.19.076.243.076m.004.481A.237.237 0 00.417.49C.464.445.487.379.487.292a.34.34 0 00-.061-.21C.385.029.32 0 .235 0a.216.216 0 00-.172.073A.29.29 0 000 .269c0 .088.022.158.067.21a.225.225 0 00.18.078M.244.555z"/></symbol><use xlink:href="#o" transform="matrix(16 0 0 -16 48.318 111.599)"/><use xlink:href="#p" transform="matrix(16 0 0 -16 57.097 111.599)"/><use xlink:href="#q" transform="matrix(16 0 0 -16 68.969 111.904)"/><symbol id="r"><path d="M.137.246V.125L.047 0H0l.078.125H.016v.121h.12z"/></symbol><use xlink:href="#r" transform="matrix(16 0 0 -16 78.716 102.724)"/><use xlink:href="#i" transform="matrix(16 0 0 -16 85.92 111.92)"/><use xlink:href="#n" transform="matrix(16 0 0 -16 93.404 111.599)"/><symbol id="s"><path d="M.237.553A.227.227 0 00.381.51C.418.482.44.432.448.362H.362a.156.156 0 01-.035.08C.308.464.278.475.237.475.181.475.141.447.117.393A.326.326 0 01.094.26C.094.21.104.165.127.13.149.093.184.075.231.075c.037 0 .066.011.087.033A.184.184 0 01.362.2h.086C.438.13.414.08.375.048A.23.23 0 00.225 0 .2.2 0 00.06.075.288.288 0 000 .262c0 .092.022.163.067.215a.216.216 0 00.17.076M.224.551z"/></symbol><symbol id="t"><path d="M0 .523h.087V.449c.02.025.04.044.057.056a.17.17 0 00.098.03c.042 0 .075-.01.1-.031a.16.16 0 00.04-.052C.402.48.424.501.45.514a.19.19 0 00.089.02C.61.535.658.51.683.459a.249.249 0 00.02-.11V0h-.09v.363c0 .035-.01.059-.027.072a.102.102 0 01-.064.02A.127.127 0 01.433.42C.408.397.396.358.396.304V0h-.09v.341A.177.177 0 01.295.42C.28.443.256.456.219.456A.13.13 0 01.13.417C.1.391.087.345.087.277V0H0v.523z"/></symbol><symbol id="u"><path d="M.228.268c.04 0 .075.017.102.05.027.035.04.087.04.155a.288.288 0 01-.017.108C.33.638.288.667.228.667.167.667.125.637.103.576a.362.362 0 010-.227C.125.295.167.268.228.268M0 .729h.085v-.07a.213.213 0 00.058.056c.03.02.065.03.105.03.059 0 .11-.024.15-.07C.44.632.46.566.46.482.46.368.43.286.371.237A.202.202 0 00.24.191.179.179 0 00.14.217a.228.228 0 00-.052.05V0H0v.729z"/></symbol><symbol id="v"><path d="M0 .717h.088V0H0v.717z"/></symbol><symbol id="w"><path d="M.07.677h.09V.531h.083V.46H.16V.12c0-.02.006-.031.018-.037A.079.079 0 01.212.076h.014l.017.002v-.07A.293.293 0 00.176 0C.136 0 .107.01.093.031A.141.141 0 00.07.113V.46H0v.072h.07v.146z"/></symbol><use xlink:href="#s" transform="matrix(16 0 0 -16 6.52 130.833)"/><use xlink:href="#q" transform="matrix(16 0 0 -16 14.52 130.896)"/><use xlink:href="#t" transform="matrix(16 0 0 -16 23.987 130.591)"/><use xlink:href="#u" transform="matrix(16 0 0 -16 37.206 133.927)"/><use xlink:href="#v" transform="matrix(16 0 0 -16 46.25 130.591)"/><use xlink:href="#l" transform="matrix(16 0 0 -16 49.294 130.888)"/><use xlink:href="#t" transform="matrix(16 0 0 -16 58.66 130.591)"/><use xlink:href="#l" transform="matrix(16 0 0 -16 71.518 130.888)"/><use xlink:href="#h" transform="matrix(16 0 0 -16 80.883 130.591)"/><use xlink:href="#w" transform="matrix(16 0 0 -16 88.928 130.724)"/><use xlink:href="#n" transform="matrix(16 0 0 -16 93.196 130.591)"/><path stroke-width="2" stroke-linejoin="round" fill="none" stroke="#000" d="M260.306 9.099v106M255.306 116.099h10M255.306 62.099h10M255.306 8.1h10"/><symbol id="x"><path d="M.243 0v.244H0v.04h.243v.242h.04V.284h.243v-.04H.282V0H.243z"/></symbol><use xlink:href="#a" transform="matrix(18 0 0 -18 99.207 125.81)"/><use xlink:href="#b" transform="matrix(18 0 0 -18 107.556 125.599)"/><use xlink:href="#x" transform="matrix(18 0 0 -18 98.881 70.36)"/><use xlink:href="#c" transform="matrix(18 0 0 -18 109.095 71.599)"/><use xlink:href="#d" transform="matrix(12 0 0 -12 117.913 66.34)"/><use xlink:href="#e" transform="matrix(12 0 0 -12 125.606 63.545)"/><use xlink:href="#f" transform="matrix(12 0 0 -12 133.118 66.199)"/><use xlink:href="#b" transform="matrix(12 0 0 -12 137.712 66.199)"/><use xlink:href="#e" transform="matrix(18 0 0 -18 102.523 169.618)"/><use xlink:href="#c" transform="matrix(18 0 0 -18 112.068 173.599)"/><use xlink:href="#d" transform="matrix(12 0 0 -12 120.886 168.34)"/><use xlink:href="#e" transform="matrix(12 0 0 -12 128.58 165.545)"/><use xlink:href="#f" transform="matrix(12 0 0 -12 136.091 168.199)"/><use xlink:href="#b" transform="matrix(12 0 0 -12 140.685 168.199)"/><path stroke-width="18" stroke-linecap="round" stroke-linejoin="round" fill="none" stroke="#5f5f5f" d="M169.431 143.849h30l18-105.375 27-.375"/><path d="M241.431 20.099v36l18-18z" fill="#5f5f5f" fill-rule="evenodd"/><path stroke-width=".75" stroke-linejoin="round" fill="none" stroke="#5f5f5f" d="M241.431 20.099v36l18-18-18-18z"/><path d="M159.431 134.599h24v18h-24z" fill="#5f5f5f" fill-rule="evenodd"/><path stroke-width=".75" stroke-miterlimit="8" fill="none" stroke="#5f5f5f" d="M159.431 134.599h24v18h-24z"/><path d="M241.431 74.099v36l18-18zM159.931 83.599h81.5v18h-81.5z" fill="#0048aa" fill-opacity=".502" fill-rule="evenodd"/></svg>