<svg xmlns="http://www.w3.org/2000/svg" xmlns:xlink="http://www.w3.org/1999/xlink" width="415.397" height="348.807" viewBox="0 0 311.548 261.605"><path d="M-351.651 449.954h720v-540h-720z" fill="#fff"/><path stroke-width="18" stroke-linecap="round" stroke-linejoin="round" fill="none" stroke="#252525" d="M155.849 59.954h30l18 113.596 27 .404"/><path d="M227.849 191.954v-36l18 18z" fill="#252525" fill-rule="evenodd"/><path stroke-width=".75" stroke-linejoin="round" fill="none" stroke="#252525" d="M227.849 191.954v-36l18 18-18 18z"/><path d="M117.349 68.954h41v-18h-41z" fill="#252525" fill-rule="evenodd"/><path stroke-width=".75" stroke-miterlimit="8" fill="none" stroke="#252525" d="M117.349 68.954h41v-18h-41z"/><path stroke-width="2" stroke-linejoin="round" fill="none" stroke="#000" d="M112.474 139.704h10M112.474 85.704h10M112.474 31.704h10M249.974 86.704v52M244.974 139.704h10M244.974 85.704h10"/><symbol id="a"><path d="M0 .339c0 .075.011.14.034.195a.273.273 0 00.091.122c.03.02.06.031.09.031C.268.688.313.662.354.61A.41.41 0 00.428.35.514.514 0 00.395.152.26.26 0 00.31.036.173.173 0 00.21 0C.149 0 .096.037.054.112A.455.455 0 000 .339M.096.327c0-.091.01-.166.033-.223C.148.055.176.03.212.03.23.03.248.039.267.054a.152.152 0 01.043.08.965.965 0 01.023.237.648.648 0 01-.024.189.168.168 0 01-.045.08.077.077 0 01-.107-.014.249.249 0 01-.049-.128A1.185 1.185 0 01.096.327z"/></symbol><symbol id="c"><path d="M.517 0H0v.036h.517V0z"/></symbol><symbol id="d"><path d="M.437.127L.391 0H0v.018c.115.105.196.19.243.257.047.066.07.127.07.182a.144.144 0 01-.039.104.123.123 0 01-.092.04.144.144 0 01-.088-.029A.165.165 0 01.037.49H.02c.008.06.029.106.063.138a.176.176 0 00.126.049.186.186 0 00.134-.052.163.163 0 00.054-.122.236.236 0 00-.023-.1.663.663 0 00-.117-.168 3.477 3.477 0 00-.152-.16h.173c.035 0 .06.001.074.004a.099.099 0 01.038.015c.012.008.021.02.03.034h.018z"/></symbol><use xlink:href="#a" transform="matrix(18 0 0 -18 64.124 147.665)"/><use xlink:href="#b" transform="matrix(18 0 0 -18 72.474 147.454)"/><use xlink:href="#c" transform="matrix(18 0 0 -18 63.316 197.473)"/><use xlink:href="#d" transform="matrix(18 0 0 -18 72.86 201.454)"/><symbol id="e"><path d="M.402.454L.436.087A1.3 1.3 0 01.57.274a.18.18 0 01.03.075.037.037 0 01-.005.019C.595.37.59.375.581.38a.06.06 0 00-.019.018.038.038 0 00-.005.02c0 .01.003.018.01.025a.04.04 0 00.03.01A.044.044 0 00.63.439a.054.054 0 00.015-.04.149.149 0 00-.008-.046A.557.557 0 00.58.243 1.783 1.783 0 00.392 0H.374L.342.338.14 0H.12C.116.139.109.249.098.33.093.362.085.384.073.394.065.403.053.406.036.406A.284.284 0 010 .403v.018l.14.033a.94.94 0 00.038-.25L.183.122l.2.33h.019z"/></symbol><use xlink:href="#e" transform="matrix(12 0 0 -12 81.679 196.195)"/><use xlink:href="#f" transform="matrix(12 0 0 -12 89.478 196.054)"/><symbol id="g"><path d="M0 .597l.161.079h.016v-.56C.177.08.18.057.182.048a.037.037 0 01.02-.02A.164.164 0 01.26.017V0H.01v.018c.032 0 .052.003.061.008.01.005.016.011.02.019a.262.262 0 01.005.072v.357c0 .048-.002.08-.005.093A.038.038 0 01.079.59a.032.032 0 01-.021.007.13.13 0 01-.05-.015L0 .597z"/></symbol><use xlink:href="#c" transform="matrix(12 0 0 -12 92.372 193.4)"/><use xlink:href="#g" transform="matrix(12 0 0 -12 99.884 196.054)"/><use xlink:href="#b" transform="matrix(12 0 0 -12 104.478 196.054)"/><symbol id="h"><path d="M.243 0v.244H0v.04h.243v.242h.04V.284h.243v-.04H.282V0H.243z"/></symbol><use xlink:href="#h" transform="matrix(18 0 0 -18 63.8 38.215)"/><use xlink:href="#d" transform="matrix(18 0 0 -18 74.013 39.454)"/><use xlink:href="#e" transform="matrix(12 0 0 -12 82.83 34.195)"/><path stroke-width="2" stroke-linejoin="round" fill="none" stroke="#000" d="M112.474 247.704h10M112.474 193.704h10M112.474 139.704h10M249.974 140.704v52M244.974 193.704h10M244.974 139.704h10"/><symbol id="i"><path d="M0 .717h.323A.218.218 0 00.477.663.195.195 0 00.536.512.221.221 0 00.483.365C.45.324.395.303.323.303H.097V0H0v.717M.438.511C.438.564.417.6.378.62a.212.212 0 01-.087.015H.097V.385h.194c.043 0 .078.01.105.028.028.019.041.051.041.098z"/></symbol><symbol id="j"><path d="M.243.076c.058 0 .098.022.12.066a.33.33 0 01.033.147.262.262 0 01-.024.12C.347.455.305.48.244.48.19.48.151.46.127.42A.285.285 0 01.09.27C.09.215.103.168.127.13.151.094.19.076.243.076m.004.481A.237.237 0 00.417.49C.464.445.487.379.487.292a.34.34 0 00-.061-.21C.385.029.32 0 .235 0a.216.216 0 00-.172.073A.29.29 0 000 .269c0 .088.022.158.067.21a.225.225 0 00.18.078M.244.555z"/></symbol><symbol id="k"><path d="M.084.184A.128.128 0 01.106.117C.13.088.167.074.222.074c.032 0 .06.007.086.021a.071.071 0 01.037.066c0 .023-.01.04-.03.051A.354.354 0 01.24.237L.17.255A.34.34 0 00.07.292a.11.11 0 00-.056.099c0 .05.017.09.053.12s.084.046.144.046c.079 0 .135-.023.17-.07A.15.15 0 00.414.393H.331a.102.102 0 01-.02.054C.29.47.254.48.204.48A.127.127 0 01.13.462a.06.06 0 01-.025-.05c0-.023.011-.04.034-.055A.202.202 0 01.195.336L.253.322A.45.45 0 00.38.277C.415.255.432.22.432.171a.161.161 0 00-.054-.12C.343.017.29 0 .218 0 .138 0 .083.018.051.053A.202.202 0 000 .184h.084m.13.372z"/></symbol><symbol id="l"><path d="M0 .52h.09V0H0v.52m0 .197h.09v-.1H0v.1z"/></symbol><symbol id="m"><path d="M.07.677h.09V.531h.083V.46H.16V.12c0-.02.006-.031.018-.037A.079.079 0 01.212.076h.014l.017.002v-.07A.293.293 0 00.176 0C.136 0 .107.01.093.031A.141.141 0 00.07.113V.46H0v.072h.07v.146z"/></symbol><symbol id="n"><path d="M.102.523l.14-.426.146.426h.096L.287 0H.193L0 .523h.102z"/></symbol><symbol id="o"><path d="M.247.553A.237.237 0 00.435.46.233.233 0 00.47.367.604.604 0 00.478.252H.094A.225.225 0 01.132.124C.155.092.192.076.24.076a.14.14 0 01.143.107H.47A.182.182 0 00.447.118a.205.205 0 00-.142-.11A.301.301 0 00.233 0a.22.22 0 00-.165.07.277.277 0 00-.068.2.3.3 0 00.068.205.226.226 0 00.18.078m.14-.231a.228.228 0 01-.026.091C.338.455.298.477.242.477A.133.133 0 01.14.433.164.164 0 01.097.322h.29M.24.554z"/></symbol><symbol id="q"><path d="M0 .523h.083v-.09a.198.198 0 00.05.064.13.13 0 00.101.037c.004 0 .011 0 .02-.002V.44a.13.13 0 01-.028.003.125.125 0 01-.102-.043A.148.148 0 01.088.3V0H0v.523z"/></symbol><symbol id="r"><path d="M.418 0H.33v.717h.088V0M.16 0H.073v.451H0v.07h.073v.092c0 .039.012.068.035.086a.152.152 0 00.097.029.202.202 0 00.043-.004V.646a.314.314 0 01-.032.001C.192.647.176.64.167.625A.082.082 0 01.16.585V.521h.088V.45H.16V0z"/></symbol><symbol id="s"><path d="M.096.523l.1-.412L.3.523h.098L.5.113l.107.41h.088L.543 0H.452L.345.405.242 0H.151L0 .523h.096z"/></symbol><use xlink:href="#i" transform="matrix(14 0 0 -14 131.795 47.704)"/><use xlink:href="#j" transform="matrix(14 0 0 -14 140.34 47.97)"/><use xlink:href="#k" transform="matrix(14 0 0 -14 148.172 47.984)"/><use xlink:href="#l" transform="matrix(14 0 0 -14 155.623 47.704)"/><use xlink:href="#m" transform="matrix(14 0 0 -14 157.986 47.82)"/><use xlink:href="#l" transform="matrix(14 0 0 -14 162.623 47.704)"/><use xlink:href="#n" transform="matrix(14 0 0 -14 164.904 47.704)"/><use xlink:href="#o" transform="matrix(14 0 0 -14 172.321 47.964)"/><use xlink:href="#p" transform="matrix(14 0 0 -14 179.613 47.704)"/><use xlink:href="#j" transform="matrix(14 0 0 -14 183.908 47.97)"/><use xlink:href="#n" transform="matrix(14 0 0 -14 191.364 47.704)"/><use xlink:href="#o" transform="matrix(14 0 0 -14 198.781 47.964)"/><use xlink:href="#q" transform="matrix(14 0 0 -14 207.01 47.704)"/><use xlink:href="#r" transform="matrix(14 0 0 -14 210.926 47.704)"/><use xlink:href="#j" transform="matrix(14 0 0 -14 218.138 47.97)"/><use xlink:href="#s" transform="matrix(14 0 0 -14 225.642 47.704)"/><use xlink:href="#t" transform="matrix(14 0 0 -14 235.627 47.704)"/><symbol id="u"><path d="M0 .717h.115l.362-.58v.58H.57V0H.46L.093.58V0H0v.717m.278 0z"/></symbol><symbol id="v"><path d="M.22.753a.19.19 0 00.107-.03.241.241 0 00.05-.05V.74h.081V.264A.35.35 0 00.43.106C.393.036.324 0 .223 0A.252.252 0 00.08.038C.042.063.02.103.016.156h.09A.1.1 0 01.13.102c.02-.02.051-.03.094-.03.067 0 .111.025.132.072a.401.401 0 01.017.15.172.172 0 00-.063-.06.211.211 0 00-.099-.02.21.21 0 00-.149.06C.021.316 0 .383 0 .475 0 .563.021.632.064.68a.2.2 0 00.155.073M.377.485c0 .065-.013.113-.04.144a.128.128 0 01-.102.047.126.126 0 01-.127-.087A.34.34 0 01.09.467C.09.408.102.363.126.333A.117.117 0 01.223.287c.063 0 .107.028.133.085.014.032.021.07.021.113M.23.757z"/></symbol><symbol id="w"><path d="M.092.157C.092.13.102.11.12.097A.103.103 0 01.186.075a.2.2 0 01.09.021.12.12 0 01.073.117v.07A.15.15 0 00.307.268a.354.354 0 00-.05-.01L.204.25A.204.204 0 01.132.23C.105.215.092.19.092.157m.213.177c.02.003.033.012.04.026a.077.077 0 01.006.034c0 .03-.01.051-.032.064A.169.169 0 01.228.48C.182.479.149.467.13.442A.122.122 0 01.109.38H.027c.001.064.022.11.062.134.04.026.087.038.14.038A.285.285 0 00.38.518C.417.495.437.458.437.408v-.3A.04.04 0 01.442.084C.446.08.454.077.466.077A.2.2 0 01.495.08V.015A.245.245 0 00.463.008.228.228 0 00.434.006C.404.006.382.017.368.04a.124.124 0 00-.015.048A.239.239 0 00.165 0a.166.166 0 00-.12.044.148.148 0 00-.045.11c0 .05.015.087.045.114.03.026.07.043.12.049l.14.017m-.073.22z"/></symbol><use xlink:href="#u" transform="matrix(14 0 0 -14 130.545 243.074)"/><use xlink:href="#o" transform="matrix(14 0 0 -14 140.079 243.334)"/><use xlink:href="#v" transform="matrix(14 0 0 -14 147.788 246.17)"/><use xlink:href="#w" transform="matrix(14 0 0 -14 155.715 243.32)"/><use xlink:href="#m" transform="matrix(14 0 0 -14 163.096 243.19)"/><use xlink:href="#l" transform="matrix(14 0 0 -14 167.733 243.074)"/><use xlink:href="#n" transform="matrix(14 0 0 -14 170.014 243.074)"/><use xlink:href="#o" transform="matrix(14 0 0 -14 177.431 243.334)"/><use xlink:href="#p" transform="matrix(14 0 0 -14 184.723 243.074)"/><use xlink:href="#j" transform="matrix(14 0 0 -14 189.018 243.34)"/><use xlink:href="#n" transform="matrix(14 0 0 -14 196.474 243.074)"/><use xlink:href="#o" transform="matrix(14 0 0 -14 203.891 243.334)"/><use xlink:href="#q" transform="matrix(14 0 0 -14 212.12 243.074)"/><use xlink:href="#r" transform="matrix(14 0 0 -14 216.036 243.074)"/><use xlink:href="#j" transform="matrix(14 0 0 -14 223.248 243.34)"/><use xlink:href="#s" transform="matrix(14 0 0 -14 230.752 243.074)"/><use xlink:href="#t" transform="matrix(14 0 0 -14 240.737 243.074)"/><use xlink:href="#c" transform="matrix(18 0 0 -18 63.316 251.473)"/><use xlink:href="#d" transform="matrix(18 0 0 -18 72.86 255.454)"/><use xlink:href="#e" transform="matrix(12 0 0 -12 81.679 250.195)"/><use xlink:href="#b" transform="matrix(18 0 0 -18 89.478 255.454)"/><use xlink:href="#h" transform="matrix(18 0 0 -18 63.793 92.215)"/><use xlink:href="#d" transform="matrix(18 0 0 -18 74.007 93.454)"/><use xlink:href="#e" transform="matrix(12 0 0 -12 82.83 88.195)"/><use xlink:href="#f" transform="matrix(12 0 0 -12 90.63 88.054)"/><use xlink:href="#c" transform="matrix(12 0 0 -12 93.524 85.4)"/><use xlink:href="#g" transform="matrix(12 0 0 -12 101.036 88.054)"/><use xlink:href="#b" transform="matrix(12 0 0 -12 105.63 88.054)"/><use xlink:href="#a" transform="matrix(18 0 0 -18 262.624 147.665)"/><use xlink:href="#b" transform="matrix(18 0 0 -18 270.974 147.454)"/><use xlink:href="#c" transform="matrix(18 0 0 -18 261.816 197.473)"/><use xlink:href="#d" transform="matrix(18 0 0 -18 271.36 201.454)"/><use xlink:href="#e" transform="matrix(12 0 0 -12 280.179 196.195)"/><use xlink:href="#f" transform="matrix(12 0 0 -12 287.978 196.054)"/><use xlink:href="#c" transform="matrix(12 0 0 -12 290.872 193.4)"/><use xlink:href="#g" transform="matrix(12 0 0 -12 298.384 196.054)"/><use xlink:href="#b" transform="matrix(12 0 0 -12 302.978 196.054)"/><use xlink:href="#h" transform="matrix(18 0 0 -18 262.3 92.215)"/><use xlink:href="#d" transform="matrix(18 0 0 -18 272.513 93.454)"/><use xlink:href="#e" transform="matrix(12 0 0 -12 281.33 88.195)"/><use xlink:href="#f" transform="matrix(12 0 0 -12 289.13 88.054)"/><use xlink:href="#c" transform="matrix(12 0 0 -12 292.024 85.4)"/><use xlink:href="#g" transform="matrix(12 0 0 -12 299.535 88.054)"/><use xlink:href="#b" transform="matrix(12 0 0 -12 304.13 88.054)"/><symbol id="x"><path d="M.208.454A.204.204 0 00.245.403.676.676 0 00.273.31l.043.064a.264.264 0 00.085.074.067.067 0 00.026.005A.047.047 0 00.46.442.035.035 0 00.473.415C.473.403.47.395.465.39a.046.046 0 00-.03-.013.063.063 0 00-.023.005.123.123 0 01-.03.008C.373.39.363.385.353.376A.387.387 0 01.28.278L.321.11A.155.155 0 01.337.063C.34.06.345.056.35.056c.006 0 .014.004.024.011a.191.191 0 01.045.059L.437.117A.306.306 0 00.358.021C.34.007.325 0 .313 0 .295 0 .28.01.27.03a1.198 1.198 0 00-.043.165.693.693 0 00-.122-.17A.092.092 0 00.047 0a.053.053 0 00-.035.014A.037.037 0 000 .043a.036.036 0 00.037.038C.047.08.06.075.07.065.08.057.085.054.09.054c.004 0 .009.002.015.008A.787.787 0 01.219.23L.187.355a.092.092 0 01-.03.045.09.09 0 01-.053.013H.078V.43l.13.023z"/></symbol><use xlink:href="#x" transform="matrix(16 0 0 -16 92.911 13.642)"/><use xlink:href="#b" transform="matrix(16 0 0 -16 100.578 13.454)"/><use xlink:href="#h" transform="matrix(16 0 0 -16 104.867 12.353)"/><use xlink:href="#b" transform="matrix(16 0 0 -16 113.602 13.454)"/><symbol id="y"><path d="M.24.658A.209.209 0 00.263.604.719.719 0 00.275.508l.022-.24A2.425 2.425 0 01.448.48a.344.344 0 01.03.055L.48.55A.012.012 0 01.477.56.05.05 0 01.46.567a.048.048 0 00-.033.046c0 .014.004.024.012.033a.039.039 0 00.029.012A.046.046 0 00.503.64.072.072 0 00.52.59.194.194 0 00.492.503 1.46 1.46 0 00.391.351 3.216 3.216 0 00.208.127.595.595 0 00.1.022.122.122 0 00.04 0a.035.035 0 00-.027.012A.035.035 0 000 .038c0 .013.005.024.016.035.01.01.022.015.034.015A.028.028 0 00.066.084C.07.082.072.078.076.07A.047.047 0 01.082.055.008.008 0 01.09.052L.1.057a.812.812 0 01.132.13l-.027.31C.2.55.193.58.184.592.174.6.159.607.138.607A.393.393 0 01.1.604L.097.623.24.658z"/></symbol><use xlink:href="#y" transform="matrix(16 0 0 -16 116.32 16.907)"/><use xlink:href="#f" transform="matrix(16 0 0 -16 124.706 13.454)"/><use xlink:href="#x" transform="matrix(16 0 0 -16 231.407 73.642)"/><use xlink:href="#b" transform="matrix(16 0 0 -16 239.074 73.454)"/><use xlink:href="#h" transform="matrix(16 0 0 -16 243.363 72.353)"/><symbol id="z"><path d="M.151.602V.455h.105V.42H.15V.13c0-.029.004-.048.013-.058A.04.04 0 01.196.057c.01 0 .021.003.031.01.01.006.018.016.023.03h.02A.155.155 0 00.22.023.105.105 0 00.157 0a.088.088 0 00-.044.012.077.077 0 00-.032.036.19.19 0 00-.01.072v.3H0v.017c.018.007.036.019.055.036a.29.29 0 01.081.129h.015z"/></symbol><use xlink:href="#z" transform="matrix(10.6667 0 0 -10.6667 252.203 68.732)"/><use xlink:href="#b" transform="matrix(16 0 0 -16 255.062 73.454)"/><use xlink:href="#y" transform="matrix(16 0 0 -16 257.781 76.907)"/><use xlink:href="#f" transform="matrix(16 0 0 -16 266.166 73.454)"/><symbol id="A"><path d="M.688.52H.593a.156.156 0 01-.04.11C.525.657.482.67.425.67A.268.268 0 01.239.597.42.42 0 01.125.368C.107.284.112.216.14.164.17.11.222.085.3.085c.071 0 .132.028.18.083a.411.411 0 01.07.114h.094A.42.42 0 00.52.092.368.368 0 00.27 0a.249.249 0 00-.194.076C.016.142 0 .246.03.385a.494.494 0 00.139.26.38.38 0 00.274.11c.09 0 .156-.024.196-.071A.205.205 0 00.688.52z"/></symbol><symbol id="B"><path d="M.178.075c.03 0 .062.007.095.021A.16.16 0 01.37.213l.014.07A.183.183 0 00.34.268.4.4 0 00.29.257L.234.25A.24.24 0 01.158.23.102.102 0 01.102.157C.096.13.102.11.116.097A.086.086 0 01.178.075m.174.26C.373.336.39.344.4.36c.005.008.01.019.012.034.007.03 0 .051-.018.064C.375.472.346.48.306.48.26.479.225.467.2.442A.152.152 0 01.167.38H.085C.1.445.13.49.175.515a.299.299 0 00.149.038.244.244 0 00.142-.035C.499.495.511.458.5.408l-.064-.3a.038.038 0 010-.023C.44.08.447.077.46.077a.2.2 0 01.03.003L.473.015A.228.228 0 00.412.006c-.03 0-.05.011-.059.033C.348.05.347.066.348.087A.307.307 0 00.142 0C.093 0 .057.015.032.044.007.074 0 .11.009.154c.01.05.034.087.07.114a.27.27 0 00.13.049l.143.017z"/></symbol><symbol id="C"><path d="M.093.184C.09.154.093.132.101.117.117.088.152.074.207.074c.033 0 .063.007.09.021A.092.092 0 01.35.161c.005.023-.002.04-.02.051a.286.286 0 01-.07.025L.195.255a.273.273 0 00-.091.037C.07.316.058.349.067.391c.01.05.037.09.079.12S.24.557.3.557c.079 0 .13-.023.156-.07C.47.458.476.427.467.393H.384c.003.02 0 .038-.01.054C.36.47.328.48.278.48a.146.146 0 01-.08-.019.079.079 0 01-.036-.05.05.05 0 01.022-.055.165.165 0 01.053-.021L.292.322C.352.306.39.292.409.277.44.255.448.22.438.171a.207.207 0 00-.08-.12A.268.268 0 00.188 0C.109 0 .057.018.033.053a.171.171 0 00-.024.131h.084z"/></symbol><symbol id="D"><path d="M.493.46A.198.198 0 00.508.366.58.58 0 00.492.252H.109a.2.2 0 01.01-.128C.136.092.169.076.218.076c.046 0 .086.015.12.046.019.017.034.038.045.06H.47A.302.302 0 00.378.06a.263.263 0 00-.11-.052A.326.326 0 00.194 0a.176.176 0 00-.15.07C.008.119 0 .186.018.27A.378.378 0 00.13.475a.28.28 0 00.195.078.206.206 0 00.103-.026.142.142 0 00.065-.068M.416.322a.205.205 0 01-.005.091C.396.455.36.477.304.477A.165.165 0 01.193.433.211.211 0 01.126.322h.29z"/></symbol><symbol id="F"><path d="M.321.248L.39.564.097.248h.224M.271 0l.036.17H0l.018.087L.433.7h.074L.411.248h.103L.498.17H.395L.358 0H.271z"/></symbol><use xlink:href="#A" transform="matrix(16 0 0 -16 8.694 67.75)"/><use xlink:href="#B" transform="matrix(16 0 0 -16 19.725 67.735)"/><use xlink:href="#C" transform="matrix(16 0 0 -16 28.6 67.774)"/><use xlink:href="#D" transform="matrix(16 0 0 -16 36.793 67.75)"/><use xlink:href="#E" transform="matrix(16 0 0 -16 44.566 67.454)"/><use xlink:href="#F" transform="matrix(16 0 0 -16 49.999 67.454)"/><use xlink:href="#G" transform="matrix(16 0 0 -16 57.91 67.454)"/><symbol id="H"><path d="M.014.234h.091A.203.203 0 01.11.135C.125.098.162.08.222.08.268.08.308.092.34.117a.158.158 0 01.062.096C.413.26.406.295.38.314.355.334.316.343.264.343A.344.344 0 01.228.342l.016.077A.398.398 0 01.287.417c.032 0 .06.005.084.016A.13.13 0 01.447.53c.008.035.001.062-.02.08a.115.115 0 01-.08.03C.288.64.243.62.213.58A.246.246 0 01.173.49H.084c.012.052.031.096.06.133.05.065.12.097.21.097C.424.72.477.703.51.671.542.64.552.594.54.534A.196.196 0 00.482.429.195.195 0 00.418.39C.453.38.478.36.492.332A.156.156 0 00.501.226.276.276 0 00.4.063.311.311 0 00.2 0C.117 0 .062.023.034.068a.224.224 0 00-.02.166z"/></symbol><use xlink:href="#A" transform="matrix(16 0 0 -16 9.062 121.75)"/><use xlink:href="#B" transform="matrix(16 0 0 -16 20.093 121.735)"/><use xlink:href="#C" transform="matrix(16 0 0 -16 28.968 121.774)"/><use xlink:href="#D" transform="matrix(16 0 0 -16 37.16 121.75)"/><use xlink:href="#E" transform="matrix(16 0 0 -16 44.934 121.454)"/><use xlink:href="#H" transform="matrix(16 0 0 -16 50.273 121.759)"/><use xlink:href="#G" transform="matrix(16 0 0 -16 58.278 121.454)"/><symbol id="I"><path d="M.223.279l.105.054A.608.608 0 01.43.396a.166.166 0 01.06.092C.499.53.493.561.474.585c-.02.024-.05.036-.09.036a.162.162 0 01-.14-.068A.29.29 0 01.202.45h-.09a.38.38 0 00.066.15.266.266 0 00.223.1C.481.702.535.68.563.638A.187.187 0 00.588.492.252.252 0 00.498.35a.773.773 0 00-.14-.084L.283.228a.562.562 0 01-.086-.05.244.244 0 01-.081-.095h.382L.48 0H0c.016.06.04.113.07.157A.413.413 0 00.223.28z"/></symbol><use xlink:href="#A" transform="matrix(16 0 0 -16 9.062 173.495)"/><use xlink:href="#B" transform="matrix(16 0 0 -16 20.093 173.48)"/><use xlink:href="#C" transform="matrix(16 0 0 -16 28.968 173.518)"/><use xlink:href="#D" transform="matrix(16 0 0 -16 37.16 173.495)"/><use xlink:href="#E" transform="matrix(16 0 0 -16 44.934 173.198)"/><use xlink:href="#I" transform="matrix(16 0 0 -16 49.882 173.198)"/><use xlink:href="#G" transform="matrix(16 0 0 -16 58.278 173.198)"/><symbol id="J"><path d="M0 .495l.014.068a.416.416 0 01.14.03c.028.015.054.05.078.103h.07L.152 0H.06l.105.495H0z"/></symbol><use xlink:href="#A" transform="matrix(16 0 0 -16 9.062 223.75)"/><use xlink:href="#B" transform="matrix(16 0 0 -16 20.093 223.735)"/><use xlink:href="#C" transform="matrix(16 0 0 -16 28.968 223.774)"/><use xlink:href="#D" transform="matrix(16 0 0 -16 37.16 223.75)"/><use xlink:href="#E" transform="matrix(16 0 0 -16 44.934 223.454)"/><use xlink:href="#J" transform="matrix(16 0 0 -16 52.593 223.454)"/><use xlink:href="#G" transform="matrix(16 0 0 -16 58.278 223.454)"/><path d="M116.349 209.954h42v18h-42z" fill="#929292" fill-rule="evenodd"/><path stroke-width="18" stroke-linecap="round" stroke-linejoin="round" fill="none" stroke="#929292" d="M156.849 218.954h30l18-98.649 27-.351"/><path d="M228.849 101.954v36l18-18z" fill="#929292" fill-rule="evenodd"/><path stroke-width=".75" stroke-linejoin="round" fill="none" stroke="#929292" d="M228.849 101.954v36l18-18-18-18z"/><path d="M116.349 159.454h113.5v18h-113.5zM229.849 149.954v36l18.5-18z" fill="#0048aa" fill-opacity=".502" fill-rule="evenodd"/><path stroke-width="2" stroke-linejoin="round" fill="none" stroke="#000" d="M117.474 140.704v106"/><path d="M229.849 95.954v36l18.5-18zM116.349 105.454h113.5v18h-113.5z" fill="#0048aa" fill-opacity=".502" fill-rule="evenodd"/><path stroke-width="2" stroke-linejoin="round" fill="none" stroke="#000" d="M117.474 32.704v106"/><symbol id="K"><path d="M0 .717h.115l.362-.58v.58H.57V0H.46L.093.58V0H0v.717m.278 0z"/></symbol><symbol id="L"><path d="M.243.076c.058 0 .098.022.12.066a.33.33 0 01.033.147.262.262 0 01-.024.12C.347.455.305.48.244.48.19.48.151.46.127.42A.285.285 0 01.09.27C.09.215.103.168.127.13.151.094.19.076.243.076m.004.481A.237.237 0 00.417.49C.464.445.487.379.487.292a.34.34 0 00-.061-.21C.385.029.32 0 .235 0a.216.216 0 00-.172.073A.29.29 0 000 .269c0 .088.022.158.067.21a.225.225 0 00.18.078M.244.555z"/></symbol><symbol id="M"><path d="M0 .523h.083v-.09a.198.198 0 00.05.064.13.13 0 00.101.037c.004 0 .011 0 .02-.002V.44a.13.13 0 01-.028.003.125.125 0 01-.102-.043A.148.148 0 01.088.3V0H0v.523z"/></symbol><symbol id="N"><path d="M0 .523h.087V.449c.02.025.04.044.057.056a.17.17 0 00.098.03c.042 0 .075-.01.1-.031a.16.16 0 00.04-.052C.402.48.424.501.45.514a.19.19 0 00.089.02C.61.535.658.51.683.459a.249.249 0 00.02-.11V0h-.09v.363c0 .035-.01.059-.027.072a.102.102 0 01-.064.02A.127.127 0 01.433.42C.408.397.396.358.396.304V0h-.09v.341A.177.177 0 01.295.42C.28.443.256.456.219.456A.13.13 0 01.13.417C.1.391.087.345.087.277V0H0v.523z"/></symbol><symbol id="O"><path d="M.092.157C.092.13.102.11.12.097A.103.103 0 01.186.075a.2.2 0 01.09.021.12.12 0 01.073.117v.07A.15.15 0 00.307.268a.354.354 0 00-.05-.01L.204.25A.204.204 0 01.132.23C.105.215.092.19.092.157m.213.177c.02.003.033.012.04.026a.077.077 0 01.006.034c0 .03-.01.051-.032.064A.169.169 0 01.228.48C.182.479.149.467.13.442A.122.122 0 01.109.38H.027c.001.064.022.11.062.134.04.026.087.038.14.038A.285.285 0 00.38.518C.417.495.437.458.437.408v-.3A.04.04 0 01.442.084C.446.08.454.077.466.077A.2.2 0 01.495.08V.015A.245.245 0 00.463.008.228.228 0 00.434.006C.404.006.382.017.368.04a.124.124 0 00-.015.048A.239.239 0 00.165 0a.166.166 0 00-.12.044.148.148 0 00-.045.11c0 .05.015.087.045.114.03.026.07.043.12.049l.14.017m-.073.22z"/></symbol><symbol id="P"><path d="M0 .717h.088V0H0v.717z"/></symbol><use xlink:href="#K" transform="matrix(14 0 0 -14 130.54 143.454)"/><use xlink:href="#L" transform="matrix(14 0 0 -14 139.985 143.72)"/><use xlink:href="#M" transform="matrix(14 0 0 -14 148.302 143.454)"/><use xlink:href="#N" transform="matrix(14 0 0 -14 152.93 143.454)"/><use xlink:href="#O" transform="matrix(14 0 0 -14 164.25 143.7)"/><use xlink:href="#P" transform="matrix(14 0 0 -14 172.41 143.454)"/><use xlink:href="#t" transform="matrix(14 0 0 -14 174.582 143.454)"/></svg>