<svg xmlns="http://www.w3.org/2000/svg" xmlns:xlink="http://www.w3.org/1999/xlink" width="234.651" height="197.657" viewBox="0 0 175.989 148.243"><path d="M-48.823 289.82h720v-540h-720z" fill="#fff"/><path d="M53.177 58.82h24v-18h-24z" fill-rule="evenodd"/><path stroke-width=".75" stroke-miterlimit="8" fill="none" stroke="#000" d="M53.177 58.82h24v-18h-24z"/><path stroke-width="18" stroke-linecap="round" stroke-linejoin="round" fill="none" stroke="#000" d="M62.177 49.82h30l18 59.787 27 .213"/><path d="M134.677 127.82v-36l18 18z" fill-rule="evenodd"/><path stroke-width=".75" stroke-linejoin="round" fill="none" stroke="#000" d="M134.677 127.82v-36l18 18-18 18z"/><path stroke-width="2" stroke-linejoin="round" fill="none" stroke="#000" d="M155.177 80.82v52M150.177 133.82h10M150.177 79.82h10"/><symbol id="a"><path d="M0 .339c0 .075.011.14.034.195a.273.273 0 00.091.122c.03.02.06.031.09.031C.268.688.313.662.354.61A.41.41 0 00.428.35.514.514 0 00.395.152.26.26 0 00.31.036.173.173 0 00.21 0C.149 0 .096.037.054.112A.455.455 0 000 .339M.096.327c0-.091.01-.166.033-.223C.148.055.176.03.212.03.23.03.248.039.267.054a.152.152 0 01.043.08.965.965 0 01.023.237.648.648 0 01-.024.189.168.168 0 01-.045.08.077.077 0 01-.107-.014.249.249 0 01-.049-.128A1.185 1.185 0 01.096.327z"/></symbol><symbol id="c"><path d="M.437.127L.391 0H0v.018c.115.105.196.19.243.257.047.066.07.127.07.182a.144.144 0 01-.039.104.123.123 0 01-.092.04.144.144 0 01-.088-.029A.165.165 0 01.037.49H.02c.008.06.029.106.063.138a.176.176 0 00.126.049.186.186 0 00.134-.052.163.163 0 00.054-.122.236.236 0 00-.023-.1.663.663 0 00-.117-.168 3.477 3.477 0 00-.152-.16h.173c.035 0 .06.001.074.004a.099.099 0 01.038.015c.012.008.021.02.03.034h.018z"/></symbol><use xlink:href="#a" transform="matrix(18 0 0 -18 11.827 141.78)"/><use xlink:href="#b" transform="matrix(18 0 0 -18 20.177 141.57)"/><use xlink:href="#c" transform="matrix(18 0 0 -18 11.563 87.57)"/><symbol id="d"><path d="M.402.454L.436.087A1.3 1.3 0 01.57.274a.18.18 0 01.03.075.037.037 0 01-.005.019C.595.37.59.375.581.38a.06.06 0 00-.019.018.038.038 0 00-.005.02c0 .01.003.018.01.025a.04.04 0 00.03.01A.044.044 0 00.63.439a.054.054 0 00.015-.04.149.149 0 00-.008-.046A.557.557 0 00.58.243 1.783 1.783 0 00.392 0H.374L.342.338.14 0H.12C.116.139.109.249.098.33.093.362.085.384.073.394.065.403.053.406.036.406A.284.284 0 010 .403v.018l.14.033a.94.94 0 00.038-.25L.183.122l.2.33h.019z"/></symbol><use xlink:href="#d" transform="matrix(12 0 0 -12 20.382 82.31)"/><use xlink:href="#e" transform="matrix(12 0 0 -12 28.18 82.17)"/><use xlink:href="#c" transform="matrix(18 0 0 -18 11.563 33.57)"/><use xlink:href="#d" transform="matrix(12 0 0 -12 20.382 28.31)"/><symbol id="f"><path d="M.243 0v.244H0v.04h.243v.242h.04V.284h.243v-.04H.282V0H.243z"/></symbol><symbol id="g"><path d="M0 .597l.161.079h.016v-.56C.177.08.18.057.182.048a.037.037 0 01.02-.02A.164.164 0 01.26.017V0H.01v.018c.032 0 .052.003.061.008.01.005.016.011.02.019a.262.262 0 01.005.072v.357c0 .048-.002.08-.005.093A.038.038 0 01.079.59a.032.032 0 01-.021.007.13.13 0 01-.05-.015L0 .597z"/></symbol><use xlink:href="#f" transform="matrix(12 0 0 -12 28.397 27.344)"/><use xlink:href="#g" transform="matrix(12 0 0 -12 36.355 28.17)"/><use xlink:href="#b" transform="matrix(12 0 0 -12 40.949 28.17)"/><symbol id="h"><path d="M.208.454A.204.204 0 00.245.403.676.676 0 00.273.31l.043.064a.264.264 0 00.085.074.067.067 0 00.026.005A.047.047 0 00.46.442.035.035 0 00.473.415C.473.403.47.395.465.39a.046.046 0 00-.03-.013.063.063 0 00-.023.005.123.123 0 01-.03.008C.373.39.363.385.353.376A.387.387 0 01.28.278L.321.11A.155.155 0 01.337.063C.34.06.345.056.35.056c.006 0 .014.004.024.011a.191.191 0 01.045.059L.437.117A.306.306 0 00.358.021C.34.007.325 0 .313 0 .295 0 .28.01.27.03a1.198 1.198 0 00-.043.165.693.693 0 00-.122-.17A.092.092 0 00.047 0a.053.053 0 00-.035.014A.037.037 0 000 .043a.036.036 0 00.037.038C.047.08.06.075.07.065.08.057.085.054.09.054c.004 0 .009.002.015.008A.787.787 0 01.219.23L.187.355a.092.092 0 01-.03.045.09.09 0 01-.053.013H.078V.43l.13.023z"/></symbol><use xlink:href="#h" transform="matrix(16 0 0 -16 35.739 13.258)"/><use xlink:href="#b" transform="matrix(16 0 0 -16 43.405 13.07)"/><use xlink:href="#f" transform="matrix(16 0 0 -16 47.695 11.968)"/><use xlink:href="#b" transform="matrix(16 0 0 -16 56.43 13.07)"/><symbol id="i"><path d="M.24.658A.209.209 0 00.263.604.719.719 0 00.275.508l.022-.24A2.425 2.425 0 01.448.48a.344.344 0 01.03.055L.48.55A.012.012 0 01.477.56.05.05 0 01.46.567a.048.048 0 00-.033.046c0 .014.004.024.012.033a.039.039 0 00.029.012A.046.046 0 00.503.64.072.072 0 00.52.59.194.194 0 00.492.503 1.46 1.46 0 00.391.351 3.216 3.216 0 00.208.127.595.595 0 00.1.022.122.122 0 00.04 0a.035.035 0 00-.027.012A.035.035 0 000 .038c0 .013.005.024.016.035.01.01.022.015.034.015A.028.028 0 00.066.084C.07.082.072.078.076.07A.047.047 0 01.082.055.008.008 0 01.09.052L.1.057a.812.812 0 01.132.13l-.027.31C.2.55.193.58.184.592.174.6.159.607.138.607A.393.393 0 01.1.604L.097.623.24.658z"/></symbol><use xlink:href="#i" transform="matrix(16 0 0 -16 59.148 16.523)"/><use xlink:href="#e" transform="matrix(16 0 0 -16 67.534 13.07)"/><use xlink:href="#h" transform="matrix(16 0 0 -16 131.739 63.514)"/><use xlink:href="#b" transform="matrix(16 0 0 -16 139.406 63.326)"/><use xlink:href="#f" transform="matrix(16 0 0 -16 143.695 62.224)"/><symbol id="j"><path d="M.422.46V.19c0-.052.002-.084.004-.095C.428.083.432.075.438.07A.03.03 0 01.457.064c.01 0 .021.003.034.008L.498.055.364 0H.342v.095A.407.407 0 00.254.016.134.134 0 00.19 0a.104.104 0 00-.065.021.114.114 0 00-.039.057.338.338 0 00-.01.096v.2a.098.098 0 01-.007.044.044.044 0 01-.02.019A.113.113 0 010 .443V.46h.157v-.3C.157.12.164.094.178.08A.077.077 0 01.231.06c.014 0 .03.004.047.013.018.009.04.026.064.05v.254c0 .025-.005.042-.014.051C.318.438.299.442.27.443V.46h.152z"/></symbol><use xlink:href="#j" transform="matrix(10.6667 0 0 -10.6667 152.437 58.666)"/><use xlink:href="#b" transform="matrix(16 0 0 -16 157.76 63.32)"/><use xlink:href="#i" transform="matrix(16 0 0 -16 160.479 66.773)"/><use xlink:href="#e" transform="matrix(16 0 0 -16 168.864 63.32)"/><symbol id="k"><path d="M.347.758c.126 0 .22-.04.28-.122A.396.396 0 00.7.392.426.426 0 00.618.125.323.323 0 00.345 0a.326.326 0 00-.26.11A.413.413 0 000 .375c0 .097.024.18.072.249a.313.313 0 00.275.133m.01-.671c.085 0 .147.03.185.092A.392.392 0 01.6.39a.301.301 0 01-.067.203.225.225 0 01-.18.077A.235.235 0 01.17.595C.124.544.1.469.1.37.1.29.12.223.16.168.2.114.266.087.356.087M.35.757z"/></symbol><symbol id="l"><path d="M.102.523l.14-.426.146.426h.096L.287 0H.193L0 .523h.102z"/></symbol><symbol id="m"><path d="M.247.553A.237.237 0 00.435.46.233.233 0 00.47.367.604.604 0 00.478.252H.094A.225.225 0 01.132.124C.155.092.192.076.24.076a.14.14 0 01.143.107H.47A.182.182 0 00.447.118a.205.205 0 00-.142-.11A.301.301 0 00.233 0a.22.22 0 00-.165.07.277.277 0 00-.068.2.3.3 0 00.068.205.226.226 0 00.18.078m.14-.231a.228.228 0 01-.026.091C.338.455.298.477.242.477A.133.133 0 01.14.433.164.164 0 01.097.322h.29M.24.554z"/></symbol><symbol id="n"><path d="M0 .523h.083v-.09a.198.198 0 00.05.064.13.13 0 00.101.037c.004 0 .011 0 .02-.002V.44a.13.13 0 01-.028.003.125.125 0 01-.102-.043A.148.148 0 01.088.3V0H0v.523z"/></symbol><symbol id="o"><path d="M.418 0H.33v.717h.088V0M.16 0H.073v.451H0v.07h.073v.092c0 .039.012.068.035.086a.152.152 0 00.097.029.202.202 0 00.043-.004V.646a.314.314 0 01-.032.001C.192.647.176.64.167.625A.082.082 0 01.16.585V.521h.088V.45H.16V0z"/></symbol><symbol id="p"><path d="M.243.076c.058 0 .098.022.12.066a.33.33 0 01.033.147.262.262 0 01-.024.12C.347.455.305.48.244.48.19.48.151.46.127.42A.285.285 0 01.09.27C.09.215.103.168.127.13.151.094.19.076.243.076m.004.481A.237.237 0 00.417.49C.464.445.487.379.487.292a.34.34 0 00-.061-.21C.385.029.32 0 .235 0a.216.216 0 00-.172.073A.29.29 0 000 .269c0 .088.022.158.067.21a.225.225 0 00.18.078M.244.555z"/></symbol><symbol id="q"><path d="M.096.523l.1-.412L.3.523h.098L.5.113l.107.41h.088L.543 0H.452L.345.405.242 0H.151L0 .523h.096z"/></symbol><use xlink:href="#k" transform="matrix(14 0 0 -14 66.848 31.614)"/><use xlink:href="#l" transform="matrix(14 0 0 -14 77.269 31.32)"/><use xlink:href="#m" transform="matrix(14 0 0 -14 84.686 31.58)"/><use xlink:href="#n" transform="matrix(14 0 0 -14 92.914 31.32)"/><use xlink:href="#o" transform="matrix(14 0 0 -14 96.83 31.32)"/><use xlink:href="#p" transform="matrix(14 0 0 -14 104.043 31.587)"/><use xlink:href="#q" transform="matrix(14 0 0 -14 111.547 31.32)"/><use xlink:href="#r" transform="matrix(14 0 0 -14 121.531 31.32)"/><path d="M134.677 85.82v36l18-18zM53.177 95.32h81.5v18h-81.5z" fill="#0048aa" fill-opacity=".502" fill-rule="evenodd"/><path stroke-width="2" stroke-linejoin="round" fill="none" stroke="#000" d="M53.177 26.82v106M48.177 133.82h10M48.177 79.82h10M48.177 25.82h10"/><symbol id="s"><path d="M0 .717h.115l.362-.58v.58H.57V0H.46L.093.58V0H0v.717m.278 0z"/></symbol><symbol id="t"><path d="M0 .523h.087V.449c.02.025.04.044.057.056a.17.17 0 00.098.03c.042 0 .075-.01.1-.031a.16.16 0 00.04-.052C.402.48.424.501.45.514a.19.19 0 00.089.02C.61.535.658.51.683.459a.249.249 0 00.02-.11V0h-.09v.363c0 .035-.01.059-.027.072a.102.102 0 01-.064.02A.127.127 0 01.433.42C.408.397.396.358.396.304V0h-.09v.341A.177.177 0 01.295.42C.28.443.256.456.219.456A.13.13 0 01.13.417C.1.391.087.345.087.277V0H0v.523z"/></symbol><symbol id="u"><path d="M.092.157C.092.13.102.11.12.097A.103.103 0 01.186.075a.2.2 0 01.09.021.12.12 0 01.073.117v.07A.15.15 0 00.307.268a.354.354 0 00-.05-.01L.204.25A.204.204 0 01.132.23C.105.215.092.19.092.157m.213.177c.02.003.033.012.04.026a.077.077 0 01.006.034c0 .03-.01.051-.032.064A.169.169 0 01.228.48C.182.479.149.467.13.442A.122.122 0 01.109.38H.027c.001.064.022.11.062.134.04.026.087.038.14.038A.285.285 0 00.38.518C.417.495.437.458.437.408v-.3A.04.04 0 01.442.084C.446.08.454.077.466.077A.2.2 0 01.495.08V.015A.245.245 0 00.463.008.228.228 0 00.434.006C.404.006.382.017.368.04a.124.124 0 00-.015.048A.239.239 0 00.165 0a.166.166 0 00-.12.044.148.148 0 00-.045.11c0 .05.015.087.045.114.03.026.07.043.12.049l.14.017m-.073.22z"/></symbol><symbol id="v"><path d="M0 .717h.088V0H0v.717z"/></symbol><use xlink:href="#s" transform="matrix(14 0 0 -14 67.368 133.57)"/><use xlink:href="#p" transform="matrix(14 0 0 -14 76.813 133.837)"/><use xlink:href="#n" transform="matrix(14 0 0 -14 85.13 133.57)"/><use xlink:href="#t" transform="matrix(14 0 0 -14 89.758 133.57)"/><use xlink:href="#u" transform="matrix(14 0 0 -14 101.078 133.816)"/><use xlink:href="#v" transform="matrix(14 0 0 -14 109.238 133.57)"/><use xlink:href="#r" transform="matrix(14 0 0 -14 111.41 133.57)"/></svg>